<?xml version="1.0" encoding="utf-8"?>
<!-- Generator: Adobe Illustrator 23.0.1, SVG Export Plug-In . SVG Version: 6.00 Build 0)  -->
<svg version="1.1" id="Layer_1" xmlns="http://www.w3.org/2000/svg" xmlns:xlink="http://www.w3.org/1999/xlink" x="0px" y="0px"
	 viewBox="0 0 465 22.1" style="enable-background:new 0 0 465 22.1;" xml:space="preserve">
<style type="text/css">
	.st0{fill:none;}
	.st1{fill:#939598;}
</style>
<g>
	<rect x="9.9" y="6.5" class="st0" width="477.6" height="18.4"/>
	<path class="st1" d="M10.8,7c0.5-0.1,1.2-0.2,2-0.2c1,0,1.8,0.2,2.3,0.7c0.4,0.4,0.7,1,0.7,1.7c0,0.7-0.2,1.3-0.6,1.7
		c-0.6,0.6-1.5,0.9-2.5,0.9c-0.3,0-0.6,0-0.8-0.1V15h-1V7z M11.8,10.9c0.2,0.1,0.5,0.1,0.9,0.1c1.3,0,2-0.6,2-1.7
		c0-1.1-0.8-1.6-1.9-1.6c-0.5,0-0.8,0-1,0.1V10.9z"/>
	<path class="st1" d="M17.6,9.2l1.3,3.4c0.1,0.4,0.3,0.8,0.4,1.2h0c0.1-0.3,0.2-0.8,0.4-1.2l1.2-3.4h1.1l-1.6,4.1
		c-0.8,2-1.3,3-2,3.6c-0.5,0.4-1,0.6-1.3,0.7l-0.3-0.9c0.3-0.1,0.6-0.3,0.9-0.5c0.3-0.2,0.6-0.6,0.9-1.2c0-0.1,0.1-0.2,0.1-0.3
		c0-0.1,0-0.1-0.1-0.3l-2.1-5.3H17.6z"/>
	<path class="st1" d="M24.1,7.8v1.4h1.5V10h-1.5v3.1c0,0.7,0.2,1.1,0.8,1.1c0.3,0,0.5,0,0.6-0.1l0,0.8c-0.2,0.1-0.5,0.1-0.9,0.1
		c-0.5,0-0.9-0.2-1.1-0.4c-0.3-0.3-0.4-0.8-0.4-1.5V10h-0.9V9.2h0.9V8.1L24.1,7.8z"/>
	<path class="st1" d="M26.8,6.5h1.1v3.6h0c0.2-0.3,0.4-0.6,0.8-0.7c0.3-0.2,0.7-0.3,1.1-0.3c0.8,0,2,0.5,2,2.5V15h-1.1v-3.3
		c0-0.9-0.3-1.7-1.3-1.7c-0.7,0-1.2,0.5-1.4,1.1c-0.1,0.1-0.1,0.3-0.1,0.5V15h-1.1V6.5z"/>
	<path class="st1" d="M35.8,15.1c-1.6,0-2.8-1.2-2.8-3c0-1.9,1.3-3.1,2.9-3.1c1.7,0,2.8,1.2,2.8,3C38.7,14.2,37.2,15.1,35.8,15.1
		L35.8,15.1z M35.9,14.3c1,0,1.8-0.9,1.8-2.3c0-1-0.5-2.2-1.7-2.2c-1.2,0-1.8,1.2-1.8,2.3C34.1,13.4,34.8,14.3,35.9,14.3L35.9,14.3z
		"/>
	<path class="st1" d="M40.1,10.8c0-0.6,0-1.1,0-1.6h0.9l0.1,0.9h0c0.3-0.5,1-1.1,1.9-1.1c0.8,0,2.1,0.5,2.1,2.5V15h-1.1v-3.3
		c0-0.9-0.3-1.7-1.3-1.7c-0.7,0-1.2,0.5-1.4,1.1c0,0.1-0.1,0.3-0.1,0.5V15h-1.1V10.8z"/>
	<path class="st1" d="M62.7,15.1c-2.1,0-3.6-1.7-3.6-4.1c0-2.6,1.6-4.2,3.7-4.2c2.2,0,3.6,1.7,3.6,4.1
		C66.4,13.6,64.7,15.1,62.7,15.1L62.7,15.1z M62.7,14.3c1.7,0,2.6-1.5,2.6-3.4c0-1.6-0.8-3.3-2.6-3.3c-1.7,0-2.6,1.6-2.6,3.4
		C60.1,12.7,61.1,14.3,62.7,14.3L62.7,14.3z"/>
	<path class="st1" d="M67.7,11.1c0-0.7,0-1.3,0-1.9h0.9l0.1,1h0c0.4-0.7,1.1-1.1,2.1-1.1c1.4,0,2.5,1.2,2.5,3c0,2.1-1.3,3.1-2.6,3.1
		c-0.8,0-1.4-0.3-1.8-0.9h0v3.2h-1.1V11.1z M68.8,12.6c0,0.1,0,0.3,0,0.4c0.2,0.7,0.8,1.2,1.6,1.2c1.1,0,1.8-0.9,1.8-2.2
		c0-1.2-0.6-2.2-1.7-2.2c-0.7,0-1.4,0.5-1.6,1.3c0,0.1-0.1,0.3-0.1,0.4V12.6z"/>
	<path class="st1" d="M75.2,12.3c0,1.4,0.9,2,2,2c0.8,0,1.2-0.1,1.6-0.3l0.2,0.8c-0.4,0.2-1,0.4-1.9,0.4c-1.8,0-2.9-1.2-2.9-2.9
		c0-1.8,1-3.1,2.7-3.1c1.9,0,2.4,1.7,2.4,2.7c0,0.2,0,0.4,0,0.5H75.2z M78.2,11.5c0-0.7-0.3-1.7-1.5-1.7c-1.1,0-1.5,1-1.6,1.7H78.2z
		"/>
	<path class="st1" d="M80.6,10.8c0-0.6,0-1.1,0-1.6h0.9l0.1,0.9h0c0.3-0.5,1-1.1,1.9-1.1c0.8,0,2.1,0.5,2.1,2.5V15h-1.1v-3.3
		c0-0.9-0.3-1.7-1.3-1.7c-0.7,0-1.2,0.5-1.4,1.1c0,0.1-0.1,0.3-0.1,0.5V15h-1.1V10.8z"/>
	<path class="st1" d="M92.9,14.7c-0.4,0.2-1.2,0.4-2.1,0.4c-2.3,0-4-1.4-4-4.1c0-2.5,1.7-4.2,4.2-4.2c1,0,1.6,0.2,1.9,0.3L92.7,8
		c-0.4-0.2-0.9-0.3-1.6-0.3c-1.9,0-3.2,1.2-3.2,3.3c0,2,1.1,3.2,3.1,3.2c0.6,0,1.3-0.1,1.7-0.3L92.9,14.7z"/>
	<path class="st1" d="M96.2,15l-2.7-8.1h1.1l1.3,4c0.3,1.1,0.6,2.1,0.9,3h0c0.2-0.9,0.6-2,0.9-3l1.4-4h1.1L97.3,15H96.2z"/>
	<path class="st1" d="M116.3,15V6.9h1.2l2.6,4.1c0.6,0.9,1.1,1.8,1.4,2.6l0,0c-0.1-1.1-0.1-2.1-0.1-3.3V6.9h1V15h-1.1l-2.6-4.1
		c-0.6-0.9-1.1-1.8-1.5-2.7l0,0c0.1,1,0.1,2,0.1,3.3V15H116.3z"/>
	<path class="st1" d="M129.1,13.4c0,0.6,0,1.1,0,1.6h-0.9l-0.1-0.9h0c-0.3,0.5-0.9,1.1-1.9,1.1c-0.9,0-2-0.5-2-2.5V9.2h1.1v3.2
		c0,1.1,0.3,1.9,1.3,1.9c0.7,0,1.2-0.5,1.4-1c0.1-0.1,0.1-0.3,0.1-0.5V9.2h1.1V13.4z"/>
	<path class="st1" d="M130.8,10.8c0-0.6,0-1.1,0-1.6h0.9l0,0.9h0c0.3-0.6,0.9-1.1,1.8-1.1c0.8,0,1.4,0.5,1.6,1.2h0
		c0.2-0.3,0.4-0.6,0.7-0.8c0.3-0.3,0.7-0.4,1.3-0.4c0.8,0,1.9,0.5,1.9,2.5V15h-1v-3.3c0-1.1-0.4-1.8-1.3-1.8c-0.6,0-1.1,0.4-1.3,0.9
		c0,0.2-0.1,0.3-0.1,0.5V15h-1v-3.5c0-0.9-0.4-1.6-1.2-1.6c-0.6,0-1.1,0.5-1.3,1.1c-0.1,0.2-0.1,0.3-0.1,0.5V15h-1V10.8z"/>
	<path class="st1" d="M140.9,7c0.5-0.1,1.2-0.2,2-0.2c1,0,1.8,0.2,2.3,0.7c0.4,0.4,0.7,1,0.7,1.7c0,0.7-0.2,1.3-0.6,1.7
		c-0.6,0.6-1.5,0.9-2.5,0.9c-0.3,0-0.6,0-0.8-0.1V15h-1V7z M141.9,10.9c0.2,0.1,0.5,0.1,0.9,0.1c1.3,0,2-0.6,2-1.7
		c0-1.1-0.8-1.6-1.9-1.6c-0.5,0-0.8,0-1,0.1V10.9z"/>
	<path class="st1" d="M147.6,9.2l1.3,3.4c0.1,0.4,0.3,0.8,0.4,1.2h0c0.1-0.3,0.2-0.8,0.4-1.2l1.2-3.4h1.1l-1.6,4.1
		c-0.8,2-1.3,3-2,3.6c-0.5,0.4-1,0.6-1.3,0.7l-0.3-0.9c0.3-0.1,0.6-0.3,0.9-0.5c0.3-0.2,0.6-0.6,0.9-1.2c0-0.1,0.1-0.2,0.1-0.3
		c0-0.1,0-0.1-0.1-0.3l-2.1-5.3H147.6z"/>
	<path class="st1" d="M168.2,7c0.5-0.1,1.2-0.2,2-0.2c1,0,1.8,0.2,2.3,0.7c0.4,0.4,0.7,1,0.7,1.7c0,0.7-0.2,1.3-0.6,1.7
		c-0.6,0.6-1.5,0.9-2.5,0.9c-0.3,0-0.6,0-0.8-0.1V15h-1V7z M169.2,10.9c0.2,0.1,0.5,0.1,0.9,0.1c1.3,0,2-0.6,2-1.7
		c0-1.1-0.8-1.6-1.9-1.6c-0.5,0-0.8,0-1,0.1V10.9z"/>
	<path class="st1" d="M178.3,13.6c0,0.5,0,1,0.1,1.4h-0.9l-0.1-0.7h0c-0.3,0.5-0.9,0.9-1.8,0.9c-1.2,0-1.8-0.8-1.8-1.7
		c0-1.4,1.2-2.2,3.5-2.2v-0.1c0-0.5-0.1-1.4-1.3-1.3c-0.6,0-1.1,0.2-1.5,0.4l-0.2-0.7c0.5-0.3,1.2-0.5,1.9-0.5
		c1.8,0,2.2,1.2,2.2,2.4V13.6z M177.3,12c-1.2,0-2.5,0.2-2.5,1.3c0,0.7,0.5,1,1,1c0.8,0,1.3-0.5,1.4-1c0-0.1,0-0.2,0-0.3V12z"/>
	<path class="st1" d="M180,10.8c0-0.6,0-1.1,0-1.6h0.9l0.1,0.9h0c0.3-0.5,1-1.1,1.9-1.1c0.8,0,2.1,0.5,2.1,2.5V15h-1.1v-3.3
		c0-0.9-0.3-1.7-1.3-1.7c-0.7,0-1.2,0.5-1.4,1.1c0,0.1-0.1,0.3-0.1,0.5V15H180V10.8z"/>
	<path class="st1" d="M191.7,6.5v7c0,0.5,0,1.1,0,1.5h-0.9l0-1h0c-0.3,0.6-1,1.1-2,1.1c-1.4,0-2.5-1.2-2.5-3c0-1.9,1.2-3.1,2.6-3.1
		c0.9,0,1.5,0.4,1.8,0.9h0V6.5H191.7z M190.6,11.5c0-0.1,0-0.3,0-0.5c-0.2-0.7-0.7-1.2-1.5-1.2c-1.1,0-1.7,1-1.7,2.2
		c0,1.2,0.6,2.2,1.7,2.2c0.7,0,1.4-0.5,1.5-1.3c0-0.1,0-0.3,0-0.4V11.5z"/>
	<path class="st1" d="M197.5,13.6c0,0.5,0,1,0.1,1.4h-0.9l-0.1-0.7h0c-0.3,0.5-0.9,0.9-1.8,0.9c-1.2,0-1.8-0.8-1.8-1.7
		c0-1.4,1.2-2.2,3.5-2.2v-0.1c0-0.5-0.1-1.4-1.3-1.3c-0.6,0-1.1,0.2-1.5,0.4l-0.2-0.7c0.5-0.3,1.2-0.5,1.9-0.5
		c1.8,0,2.2,1.2,2.2,2.4V13.6z M196.5,12c-1.2,0-2.5,0.2-2.5,1.3c0,0.7,0.5,1,1,1c0.8,0,1.3-0.5,1.4-1c0-0.1,0-0.2,0-0.3V12z"/>
	<path class="st1" d="M199.1,13.9c0.3,0.2,0.9,0.4,1.4,0.4c0.8,0,1.1-0.4,1.1-0.9c0-0.5-0.3-0.8-1.1-1.1c-1.1-0.4-1.5-1-1.5-1.6
		c0-0.9,0.8-1.7,2-1.7c0.6,0,1.1,0.2,1.4,0.4l-0.3,0.8c-0.2-0.1-0.6-0.3-1.2-0.3c-0.6,0-1,0.4-1,0.8c0,0.5,0.3,0.7,1.1,1
		c1,0.4,1.5,0.9,1.5,1.7c0,1-0.8,1.8-2.2,1.8c-0.6,0-1.2-0.2-1.6-0.4L199.1,13.9z"/>
	<path class="st1" d="M222.9,7.8h-2.5V6.9h6v0.9h-2.5V15h-1.1V7.8z"/>
	<path class="st1" d="M227,12.3c0,1.4,0.9,2,2,2c0.8,0,1.2-0.1,1.6-0.3l0.2,0.8c-0.4,0.2-1,0.4-1.9,0.4c-1.8,0-2.9-1.2-2.9-2.9
		c0-1.8,1-3.1,2.7-3.1c1.9,0,2.4,1.7,2.4,2.7c0,0.2,0,0.4,0,0.5H227z M230.1,11.5c0-0.7-0.3-1.7-1.5-1.7c-1.1,0-1.5,1-1.6,1.7H230.1
		z"/>
	<path class="st1" d="M232.4,10.8c0-0.6,0-1.1,0-1.6h0.9l0.1,0.9h0c0.3-0.5,1-1.1,1.9-1.1c0.8,0,2.1,0.5,2.1,2.5V15h-1.1v-3.3
		c0-0.9-0.3-1.7-1.3-1.7c-0.7,0-1.2,0.5-1.4,1.1c0,0.1-0.1,0.3-0.1,0.5V15h-1.1V10.8z"/>
	<path class="st1" d="M238.9,13.9c0.3,0.2,0.9,0.4,1.4,0.4c0.8,0,1.1-0.4,1.1-0.9c0-0.5-0.3-0.8-1.1-1.1c-1.1-0.4-1.5-1-1.5-1.6
		c0-0.9,0.8-1.7,2-1.7c0.6,0,1.1,0.2,1.4,0.4l-0.3,0.8c-0.2-0.1-0.6-0.3-1.2-0.3c-0.6,0-1,0.4-1,0.8c0,0.5,0.3,0.7,1.1,1
		c1,0.4,1.5,0.9,1.5,1.7c0,1-0.8,1.8-2.2,1.8c-0.6,0-1.2-0.2-1.6-0.4L238.9,13.9z"/>
	<path class="st1" d="M246.2,15.1c-1.6,0-2.8-1.2-2.8-3c0-1.9,1.3-3.1,2.9-3.1c1.7,0,2.8,1.2,2.8,3
		C249.1,14.2,247.6,15.1,246.2,15.1L246.2,15.1z M246.2,14.3c1,0,1.8-0.9,1.8-2.3c0-1-0.5-2.2-1.7-2.2c-1.2,0-1.8,1.2-1.8,2.3
		C244.5,13.4,245.2,14.3,246.2,14.3L246.2,14.3z"/>
	<path class="st1" d="M250.4,11c0-0.7,0-1.3,0-1.8h0.9l0,1.1h0c0.3-0.8,0.9-1.3,1.6-1.3c0.1,0,0.2,0,0.3,0v1c-0.1,0-0.2,0-0.4,0
		c-0.7,0-1.3,0.6-1.4,1.3c0,0.2,0,0.3,0,0.5V15h-1.1V11z"/>
	<path class="st1" d="M254.4,6.9h4.4v0.9h-3.3v2.7h3v0.9h-3V15h-1.1V6.9z"/>
	<path class="st1" d="M260,6.5h1.1V15H260V6.5z"/>
	<path class="st1" d="M265.2,15.1c-1.6,0-2.8-1.2-2.8-3c0-1.9,1.3-3.1,2.9-3.1c1.7,0,2.8,1.2,2.8,3
		C268.1,14.2,266.6,15.1,265.2,15.1L265.2,15.1z M265.2,14.3c1,0,1.8-0.9,1.8-2.3c0-1-0.5-2.2-1.7-2.2c-1.2,0-1.8,1.2-1.8,2.3
		C263.5,13.4,264.2,14.3,265.2,14.3L265.2,14.3z"/>
	<path class="st1" d="M269.7,9.2l0.8,2.9c0.2,0.6,0.3,1.3,0.4,1.9h0c0.1-0.6,0.3-1.2,0.5-1.8l0.9-3h0.9l0.9,2.9
		c0.2,0.7,0.4,1.3,0.5,1.9h0c0.1-0.6,0.3-1.2,0.4-1.9l0.8-2.9h1l-1.9,5.8h-1l-0.9-2.8c-0.2-0.7-0.4-1.2-0.5-1.9h0
		c-0.1,0.7-0.3,1.3-0.5,1.9l-0.9,2.8h-1l-1.8-5.8H269.7z"/>
	<path class="st1" d="M301.6,14.7c-0.4,0.2-1.2,0.4-2.1,0.4c-2.3,0-4-1.4-4-4.1c0-2.5,1.7-4.2,4.2-4.2c1,0,1.6,0.2,1.9,0.3L301.4,8
		c-0.4-0.2-0.9-0.3-1.6-0.3c-1.9,0-3.2,1.2-3.2,3.3c0,2,1.1,3.2,3.1,3.2c0.6,0,1.3-0.1,1.7-0.3L301.6,14.7z"/>
	<path class="st1" d="M306,8.6v2.8h2.7v0.7H306V15h-0.8v-2.8h-2.7v-0.7h2.7V8.6H306z"/>
	<path class="st1" d="M313.2,8.6v2.8h2.7v0.7h-2.7V15h-0.8v-2.8h-2.7v-0.7h2.7V8.6H313.2z"/>
	<path class="st1" d="M341.9,11.4c-0.1-1.1-0.1-2.5-0.1-3.5h0c-0.3,0.9-0.6,2-1,3.1l-1.4,3.9h-0.8l-1.3-3.9
		c-0.4-1.1-0.7-2.2-0.9-3.1h0c0,1-0.1,2.4-0.2,3.6l-0.2,3.5h-1l0.6-8.1h1.3l1.4,3.9c0.3,1,0.6,1.9,0.8,2.7h0
		c0.2-0.8,0.5-1.7,0.9-2.7l1.4-3.9h1.3l0.5,8.1h-1L341.9,11.4z"/>
	<path class="st1" d="M345.9,12.4l-0.8,2.5H344l2.7-8.1h1.3l2.8,8.1h-1.1l-0.9-2.5H345.9z M348.6,11.6l-0.8-2.3
		c-0.2-0.5-0.3-1-0.4-1.5h0c-0.1,0.5-0.2,1-0.4,1.5l-0.8,2.3H348.6z"/>
	<path class="st1" d="M352.6,7.8h-2.5V6.9h6v0.9h-2.5V15h-1.1V7.8z"/>
	<path class="st1" d="M357,6.9h1.1v7.2h3.5V15H357V6.9z"/>
	<path class="st1" d="M364,12.4l-0.8,2.5H362l2.7-8.1h1.3l2.8,8.1h-1.1l-0.9-2.5H364z M366.6,11.6l-0.8-2.3c-0.2-0.5-0.3-1-0.4-1.5
		h0c-0.1,0.5-0.2,1-0.4,1.5l-0.8,2.3H366.6z"/>
	<path class="st1" d="M370,7c0.5-0.1,1.2-0.2,1.9-0.2c1,0,1.7,0.2,2.2,0.6c0.4,0.3,0.7,0.8,0.7,1.4c0,0.8-0.5,1.5-1.4,1.8v0
		c0.8,0.2,1.7,0.8,1.7,2c0,0.7-0.3,1.2-0.7,1.6c-0.6,0.5-1.5,0.8-2.8,0.8c-0.7,0-1.3,0-1.6-0.1V7z M371,10.3h0.9
		c1.1,0,1.7-0.6,1.7-1.4c0-0.9-0.7-1.3-1.8-1.3c-0.5,0-0.8,0-0.9,0.1V10.3z M371,14.2c0.2,0,0.5,0,0.9,0c1.1,0,2.1-0.4,2.1-1.6
		c0-1.1-0.9-1.6-2.1-1.6H371V14.2z"/>
	<path class="st1" d="M396.8,6.9h1.1v7.2h3.5V15h-4.5V6.9z"/>
	<path class="st1" d="M407.1,13.4c0,0.6,0,1.1,0,1.6h-0.9l-0.1-0.9h0c-0.3,0.5-0.9,1.1-1.9,1.1c-0.9,0-2-0.5-2-2.5V9.2h1.1v3.2
		c0,1.1,0.3,1.9,1.3,1.9c0.7,0,1.2-0.5,1.4-1c0.1-0.1,0.1-0.3,0.1-0.5V9.2h1.1V13.4z"/>
	<path class="st1" d="M413,13.6c0,0.5,0,1,0.1,1.4h-0.9l-0.1-0.7h0c-0.3,0.5-0.9,0.9-1.8,0.9c-1.2,0-1.8-0.8-1.8-1.7
		c0-1.4,1.2-2.2,3.5-2.2v-0.1c0-0.5-0.1-1.4-1.3-1.3c-0.6,0-1.1,0.2-1.5,0.4l-0.2-0.7c0.5-0.3,1.2-0.5,1.9-0.5
		c1.8,0,2.2,1.2,2.2,2.4V13.6z M412,12c-1.2,0-2.5,0.2-2.5,1.3c0,0.7,0.5,1,1,1c0.8,0,1.3-0.5,1.4-1c0-0.1,0-0.2,0-0.3V12z"/>
	<path class="st1" d="M440.2,7c0.5-0.1,1.3-0.2,2-0.2c1.1,0,1.8,0.2,2.4,0.7c0.4,0.3,0.6,0.9,0.6,1.5c0,1.1-0.7,1.8-1.5,2.1v0
		c0.6,0.2,1,0.8,1.2,1.6c0.3,1.1,0.5,1.9,0.6,2.2h-1.1c-0.1-0.2-0.3-0.9-0.5-1.9c-0.2-1.1-0.7-1.5-1.6-1.6h-1V15h-1V7z M441.2,10.7
		h1.1c1.1,0,1.8-0.6,1.8-1.5c0-1-0.8-1.5-1.9-1.5c-0.5,0-0.9,0-1,0.1V10.7z"/>
</g>
<g>
</g>
<g>
</g>
<g>
</g>
<g>
</g>
<g>
</g>
<g>
</g>
</svg>
