<?xml version="1.0" encoding="utf-8"?>
<!-- Generator: Adobe Illustrator 23.0.1, SVG Export Plug-In . SVG Version: 6.00 Build 0)  -->
<svg version="1.1" id="Layer_1" xmlns="http://www.w3.org/2000/svg" xmlns:xlink="http://www.w3.org/1999/xlink" x="0px" y="0px"
	 viewBox="0 0 544.7 22.1" style="enable-background:new 0 0 544.7 22.1;" xml:space="preserve">
<style type="text/css">
	.st0{fill:#939598;}
	.st1{fill:#898B8E;}
	.st2{font-family:'MyriadPro-Regular';}
	.st3{font-size:12px;}
</style>
<path class="st0" d="M0.9,7c0.5-0.1,1.2-0.2,2-0.2c1,0,1.8,0.2,2.3,0.7c0.4,0.4,0.7,1,0.7,1.7s-0.2,1.3-0.6,1.7
	c-0.6,0.6-1.5,0.9-2.5,0.9c-0.3,0-0.6,0-0.8-0.1V15H1L0.9,7L0.9,7z M2,10.9c0.2,0,0.5,0.1,0.8,0.1c1.3,0,2-0.6,2-1.7S4,7.7,2.9,7.7
	c-0.5,0-0.8,0-1,0.1L2,10.9L2,10.9z"/>
<path class="st0" d="M7.7,9.2L9,12.6c0.1,0.4,0.3,0.8,0.4,1.2l0,0c0.1-0.3,0.2-0.8,0.4-1.2L11,9.2h1l-1.6,4.1c-0.8,2-1.3,3-2,3.6
	c-0.5,0.4-1,0.6-1.3,0.7l-0.3-0.9c0.3-0.1,0.6-0.3,0.9-0.5C8,16,8.3,15.6,8.6,15c0-0.1,0.1-0.2,0.1-0.3s0-0.1-0.1-0.3L6.5,9.2H7.7z"
	/>
<path class="st0" d="M14.2,7.8v1.4h1.5V10h-1.5v3.1c0,0.7,0.2,1.1,0.8,1.1c0.3,0,0.5,0,0.6-0.1v0.8C15.4,15,15.1,15,14.7,15
	c-0.5,0-0.9-0.2-1.1-0.4c-0.3-0.3-0.4-0.8-0.4-1.5V10h-0.9V9.2h0.9V8.1L14.2,7.8z"/>
<path class="st0" d="M16.9,6.5H18v3.6l0,0c0.2-0.3,0.4-0.6,0.8-0.7c0.3-0.2,0.7-0.3,1.1-0.3c0.8,0,2,0.5,2,2.5V15h-1.1v-3.3
	c0-0.9-0.3-1.7-1.3-1.7c-0.7,0-1.2,0.5-1.4,1.1c-0.1,0-0.1,0.2-0.1,0.4V15h-1.1V6.5z"/>
<path class="st0" d="M26,15.1c-1.6,0-2.8-1.2-2.8-3c0-1.9,1.3-3.1,2.9-3.1c1.7,0,2.8,1.2,2.8,3C28.8,14.2,27.3,15.1,26,15.1L26,15.1
	z M26,14.3c1,0,1.8-0.9,1.8-2.3c0-1-0.5-2.2-1.7-2.2s-1.8,1.2-1.8,2.3C24.3,13.4,25,14.3,26,14.3L26,14.3z"/>
<path class="st0" d="M30.2,10.8c0-0.6,0-1.1,0-1.6h0.9l0.1,0.9l0,0c0.3-0.5,1-1.1,1.9-1.1c0.8,0,2.1,0.5,2.1,2.5V15h-1.1v-3.3
	c0-0.9-0.3-1.7-1.3-1.7c-0.7,0-1.2,0.5-1.4,1.1c0,0.1-0.1,0.3-0.1,0.5V15h-1.1C30.2,15,30.2,10.8,30.2,10.8z"/>
<path class="st0" d="M63,15.1c-2.1,0-3.6-1.7-3.6-4.1c0-2.6,1.6-4.2,3.7-4.2c2.2,0,3.6,1.7,3.6,4.1C66.7,13.6,65,15.1,63,15.1
	L63,15.1z M63,14.3c1.7,0,2.6-1.5,2.6-3.4c0-1.6-0.8-3.3-2.6-3.3c-1.7,0-2.6,1.6-2.6,3.4C60.4,12.7,61.4,14.3,63,14.3L63,14.3z"/>
<path class="st0" d="M68,11.1c0-0.7,0-1.3,0-1.9h0.9l0.1,1l0,0c0.4-0.7,1.1-1.1,2.1-1.1c1.4,0,2.5,1.2,2.5,3c0,2.1-1.3,3.1-2.6,3.1
	c-0.8,0-1.4-0.3-1.8-0.9l0,0v3.2H68V11.1z M69.1,12.6c0,0.1,0,0.3,0,0.4c0.2,0.7,0.8,1.2,1.6,1.2c1.1,0,1.8-0.9,1.8-2.2
	c0-1.2-0.6-2.2-1.7-2.2c-0.7,0-1.4,0.5-1.6,1.3c0,0.1-0.1,0.3-0.1,0.4C69.1,11.5,69.1,12.6,69.1,12.6z"/>
<path class="st0" d="M75.5,12.3c0,1.4,0.9,2,2,2c0.8,0,1.2-0.1,1.6-0.3l0.2,0.8c-0.4,0.2-1,0.4-1.9,0.4c-1.8,0-2.9-1.2-2.9-2.9
	c0-1.8,1-3.1,2.7-3.1c1.9,0,2.4,1.7,2.4,2.7c0,0.2,0,0.4,0,0.5L75.5,12.3L75.5,12.3z M78.5,11.5c0-0.7-0.3-1.7-1.5-1.7
	c-1.1,0-1.5,1-1.6,1.7H78.5z"/>
<path class="st0" d="M80.9,10.8c0-0.6,0-1.1,0-1.6h0.9l0.1,0.9l0,0c0.3-0.5,1-1.1,1.9-1.1c0.8,0,2.1,0.5,2.1,2.5V15h-1.1v-3.3
	c0-0.9-0.3-1.7-1.3-1.7c-0.7,0-1.2,0.5-1.4,1.1c0,0.1-0.1,0.3-0.1,0.5V15h-1.1V10.8z"/>
<path class="st0" d="M93.2,14.7c-0.4,0.2-1.2,0.4-2.1,0.4c-2.3,0-4-1.4-4-4.1c0-2.5,1.7-4.2,4.2-4.2c1,0,1.6,0.2,1.9,0.3L93,8
	c-0.4-0.2-0.9-0.3-1.6-0.3c-1.9,0-3.2,1.2-3.2,3.3c0,2,1.1,3.2,3.1,3.2c0.6,0,1.3-0.1,1.7-0.3L93.2,14.7z"/>
<path class="st0" d="M96.5,15l-2.7-8.1h1.1l1.3,4c0.3,1.1,0.6,2.1,0.9,3l0,0c0.2-0.9,0.6-2,0.9-3l1.4-4h1.1L97.6,15H96.5z"/>
<path class="st0" d="M121.7,15V6.9h1.2l2.6,4.1c0.6,0.9,1.1,1.8,1.4,2.6l0,0c-0.1-1.1-0.1-2.1-0.1-3.3V6.9h1V15h-1.1l-2.6-4.1
	c-0.6-0.9-1.1-1.8-1.5-2.7l0,0c0.1,1,0.1,2,0.1,3.3V15H121.7z"/>
<path class="st0" d="M134.4,13.4c0,0.6,0,1.1,0,1.6h-0.9l-0.1-0.9l0,0c-0.3,0.5-0.9,1.1-1.9,1.1c-0.9,0-2-0.5-2-2.5V9.2h1.1v3.2
	c0,1.1,0.3,1.9,1.3,1.9c0.7,0,1.2-0.5,1.4-1c0.1-0.1,0.1-0.3,0.1-0.5V9.2h1.1v4.2H134.4z"/>
<path class="st0" d="M136.2,10.8c0-0.6,0-1.1,0-1.6h0.9v0.9l0,0c0.3-0.6,0.9-1.1,1.8-1.1c0.8,0,1.4,0.5,1.6,1.2l0,0
	c0.2-0.3,0.4-0.6,0.7-0.8c0.3-0.3,0.7-0.4,1.3-0.4c0.8,0,1.9,0.5,1.9,2.5V15h-1v-3.3c0-1.1-0.4-1.8-1.3-1.8c-0.6,0-1.1,0.4-1.3,0.9
	c0,0.2-0.1,0.3-0.1,0.5V15h-1v-3.5c0-0.9-0.4-1.6-1.2-1.6c-0.6,0-1.1,0.5-1.3,1.1c-0.1,0.2-0.1,0.3-0.1,0.5V15h-1v-4.2H136.2z"/>
<path class="st0" d="M146.2,7c0.5-0.1,1.2-0.2,2-0.2c1,0,1.8,0.2,2.3,0.7c0.4,0.4,0.7,1,0.7,1.7s-0.2,1.3-0.6,1.7
	c-0.6,0.6-1.5,0.9-2.5,0.9c-0.3,0-0.6,0-0.8-0.1V15h-1L146.2,7L146.2,7z M147.3,10.9c0.2,0.1,0.5,0.1,0.9,0.1c1.3,0,2-0.6,2-1.7
	s-0.8-1.6-1.9-1.6c-0.5,0-0.8,0-1,0.1V10.9z"/>
<path class="st0" d="M153,9.2l1.3,3.4c0.1,0.4,0.3,0.8,0.4,1.2l0,0c0.1-0.3,0.2-0.8,0.4-1.2l1.2-3.4h1.1l-1.6,4.1
	c-0.8,2-1.3,3-2,3.6c-0.5,0.4-1,0.6-1.3,0.7l-0.3-0.9c0.3-0.1,0.6-0.3,0.9-0.5c0.3-0.2,0.6-0.6,0.9-1.2c0-0.1,0.1-0.2,0.1-0.3
	s0-0.1-0.1-0.3l-2.1-5.3L153,9.2L153,9.2z"/>
<path class="st0" d="M183.8,7c0.5-0.1,1.2-0.2,2-0.2c1,0,1.8,0.2,2.3,0.7c0.4,0.4,0.7,1,0.7,1.7s-0.2,1.3-0.6,1.7
	c-0.6,0.6-1.5,0.9-2.5,0.9c-0.3,0-0.6,0-0.8-0.1V15h-1L183.8,7L183.8,7z M184.8,10.9c0.2,0.1,0.5,0.1,0.9,0.1c1.3,0,2-0.6,2-1.7
	s-0.8-1.6-1.9-1.6c-0.5,0-0.8,0-1,0.1V10.9z"/>
<path class="st0" d="M193.9,13.6c0,0.5,0,1,0.1,1.4h-1l-0.1-0.7l0,0c-0.3,0.5-0.9,0.9-1.8,0.9c-1.2,0-1.8-0.8-1.8-1.7
	c0-1.4,1.2-2.2,3.5-2.2v-0.1c0-0.5-0.1-1.4-1.3-1.3c-0.6,0-1.1,0.2-1.5,0.4l-0.2-0.7c0.5-0.3,1.2-0.5,1.9-0.5c1.8,0,2.2,1.2,2.2,2.4
	L193.9,13.6L193.9,13.6z M192.9,12c-1.2,0-2.5,0.2-2.5,1.3c0,0.7,0.5,1,1,1c0.8,0,1.3-0.5,1.4-1c0-0.1,0-0.2,0-0.3v-1H192.9z"/>
<path class="st0" d="M195.6,10.8c0-0.6,0-1.1,0-1.6h0.9l0.1,0.9l0,0c0.3-0.5,1-1.1,1.9-1.1c0.8,0,2.1,0.5,2.1,2.5V15h-1.1v-3.3
	c0-0.9-0.3-1.7-1.3-1.7c-0.7,0-1.2,0.5-1.4,1.1c0,0.1-0.1,0.3-0.1,0.5V15h-1.1L195.6,10.8L195.6,10.8z"/>
<path class="st0" d="M207.3,6.5v7c0,0.5,0,1.1,0,1.5h-0.9v-1l0,0c-0.3,0.6-1,1.1-2,1.1c-1.4,0-2.5-1.2-2.5-3c0-1.9,1.2-3.1,2.6-3.1
	c0.9,0,1.5,0.4,1.8,0.9l0,0V6.5H207.3z M206.2,11.5c0-0.1,0-0.3,0-0.5c-0.2-0.7-0.7-1.2-1.5-1.2c-1.1,0-1.7,1-1.7,2.2
	s0.6,2.2,1.7,2.2c0.7,0,1.4-0.5,1.5-1.3c0-0.1,0-0.3,0-0.4V11.5z"/>
<path class="st0" d="M213.1,13.6c0,0.5,0,1,0.1,1.4h-0.9l-0.1-0.7l0,0c-0.3,0.5-0.9,0.9-1.8,0.9c-1.2,0-1.8-0.8-1.8-1.7
	c0-1.4,1.2-2.2,3.5-2.2v-0.1c0-0.5-0.1-1.4-1.3-1.3c-0.6,0-1.1,0.2-1.5,0.4L209,9.6c0.5-0.3,1.2-0.5,1.9-0.5c1.8,0,2.2,1.2,2.2,2.4
	L213.1,13.6L213.1,13.6z M212.1,12c-1.2,0-2.5,0.2-2.5,1.3c0,0.7,0.5,1,1,1c0.8,0,1.3-0.5,1.4-1c0-0.1,0-0.2,0-0.3v-1H212.1z"/>
<path class="st0" d="M214.7,13.9c0.3,0.2,0.9,0.4,1.4,0.4c0.8,0,1.1-0.4,1.1-0.9s-0.3-0.8-1.1-1.1c-1.1-0.4-1.5-1-1.5-1.6
	c0-0.9,0.8-1.7,2-1.7c0.6,0,1.1,0.2,1.4,0.4l-0.3,0.8c-0.2-0.1-0.6-0.3-1.2-0.3c-0.6,0-1,0.4-1,0.8c0,0.5,0.3,0.7,1.1,1
	c1,0.4,1.5,0.9,1.5,1.7c0,1-0.8,1.8-2.2,1.8c-0.6,0-1.2-0.2-1.6-0.4L214.7,13.9z"/>
<path class="st0" d="M317.2,14.7c-0.4,0.2-1.2,0.4-2.1,0.4c-2.3,0-4-1.4-4-4.1c0-2.5,1.7-4.2,4.2-4.2c1,0,1.6,0.2,1.9,0.3L317,8
	c-0.4-0.2-0.9-0.3-1.6-0.3c-1.9,0-3.2,1.2-3.2,3.3c0,2,1.1,3.2,3.1,3.2c0.6,0,1.3-0.1,1.7-0.3L317.2,14.7z"/>
<path class="st0" d="M321.6,8.6v2.8h2.7v0.7h-2.7V15h-0.8v-2.8h-2.7v-0.7h2.7V8.6H321.6z"/>
<path class="st0" d="M328.7,8.6v2.8h2.7v0.7h-2.7V15H328v-2.8h-2.7v-0.7h2.7V8.6H328.7z"/>
<path class="st0" d="M370.2,11.4c-0.1-1.1-0.1-2.5-0.1-3.5l0,0c-0.3,0.9-0.6,2-1,3.1l-1.4,3.9h-0.8l-1.3-3.9
	c-0.4-1.1-0.7-2.2-0.9-3.1l0,0c0,1-0.1,2.4-0.2,3.6l-0.2,3.5h-1l0.6-8.1h1.3l1.4,3.9c0.3,1,0.6,1.9,0.8,2.7l0,0
	c0.2-0.8,0.5-1.7,0.9-2.7l1.4-3.9h1.3l0.5,8.1h-1L370.2,11.4z"/>
<path class="st0" d="M374.2,12.4l-0.8,2.5h-1.1l2.7-8.1h1.3L379,15h-1.1l-0.9-2.5h-2.8V12.4z M376.8,11.6L376,9.3
	c-0.2-0.5-0.3-1-0.4-1.5l0,0c-0.1,0.5-0.2,1-0.4,1.5l-0.8,2.3H376.8z"/>
<path class="st0" d="M380.8,7.8h-2.5V6.9h6v0.9h-2.5V15h-1.1V7.8H380.8z"/>
<path class="st0" d="M385.3,6.9h1.1v7.2h3.5V15h-4.5V6.9H385.3z"/>
<path class="st0" d="M392.2,12.4l-0.8,2.5h-1.1l2.7-8.1h1.3l2.8,8.1H396l-0.9-2.5H392.2z M394.9,11.6l-0.8-2.3
	c-0.2-0.5-0.3-1-0.4-1.5l0,0c-0.1,0.5-0.2,1-0.4,1.5l-0.8,2.3H394.9z"/>
<path class="st0" d="M398.3,7c0.5-0.1,1.2-0.2,1.9-0.2c1,0,1.7,0.2,2.2,0.6c0.4,0.3,0.7,0.8,0.7,1.4c0,0.8-0.5,1.5-1.4,1.8l0,0
	c0.8,0.2,1.7,0.8,1.7,2c0,0.7-0.3,1.2-0.7,1.6c-0.6,0.5-1.5,0.8-2.8,0.8c-0.7,0-1.3,0-1.6-0.1L398.3,7L398.3,7z M399.3,10.3h0.9
	c1.1,0,1.7-0.6,1.7-1.4c0-0.9-0.7-1.3-1.8-1.3c-0.5,0-0.8,0-0.9,0.1L399.3,10.3L399.3,10.3z M399.3,14.2c0.2,0,0.5,0,0.9,0
	c1.1,0,2.1-0.4,2.1-1.6c0-1.1-0.9-1.6-2.1-1.6h-0.9V14.2z"/>
<path class="st0" d="M435.3,6.9h1.1v7.2h3.5V15h-4.5V6.9H435.3z"/>
<path class="st0" d="M445.6,13.4c0,0.6,0,1.1,0,1.6h-0.9l-0.1-0.9l0,0c-0.3,0.5-0.9,1.1-1.9,1.1c-0.9,0-2-0.5-2-2.5V9.2h1.1v3.2
	c0,1.1,0.3,1.9,1.3,1.9c0.7,0,1.2-0.5,1.4-1c0.1-0.1,0.1-0.3,0.1-0.5V9.2h1.1v4.2H445.6z"/>
<path class="st0" d="M451.5,13.6c0,0.5,0,1,0.1,1.4h-0.9l-0.1-0.7l0,0c-0.3,0.5-0.9,0.9-1.8,0.9c-1.2,0-1.8-0.8-1.8-1.7
	c0-1.4,1.2-2.2,3.5-2.2v-0.1c0-0.5-0.1-1.4-1.3-1.3c-0.6,0-1.1,0.2-1.5,0.4l-0.2-0.7c0.5-0.3,1.2-0.5,1.9-0.5c1.8,0,2.2,1.2,2.2,2.4
	v2.1H451.5z M450.4,12c-1.2,0-2.5,0.2-2.5,1.3c0,0.7,0.5,1,1,1c0.8,0,1.3-0.5,1.4-1c0-0.1,0-0.2,0-0.3v-1H450.4z"/>
<path class="st0" d="M501.5,7c0.5-0.1,1.3-0.2,2-0.2c1.1,0,1.8,0.2,2.4,0.7c0.4,0.3,0.6,0.9,0.6,1.5c0,1.1-0.7,1.8-1.5,2.1l0,0
	c0.6,0.2,1,0.8,1.2,1.6c0.3,1.1,0.5,1.9,0.6,2.2h-1.1c-0.1-0.2-0.3-0.9-0.5-1.9c-0.2-1.1-0.7-1.5-1.6-1.6h-1V15h-1V7H501.5z
	 M502.6,10.7h1.1c1.1,0,1.8-0.6,1.8-1.5c0-1-0.8-1.5-1.9-1.5c-0.5,0-0.9,0-1,0.1V10.7z"/>
<text transform="matrix(1 0 0 1 245.7543 15.0999)" class="st1 st2 st3">PyTorch</text>
</svg>
