<?xml version="1.0" encoding="utf-8"?>
<!-- Generator: Adobe Illustrator 23.0.1, SVG Export Plug-In . SVG Version: 6.00 Build 0)  -->
<svg version="1.1" id="Layer_1" xmlns="http://www.w3.org/2000/svg" xmlns:xlink="http://www.w3.org/1999/xlink" x="0px" y="0px"
	 viewBox="0 0 544.7 22.1" style="enable-background:new 0 0 544.7 22.1;" xml:space="preserve">
<style type="text/css">
	.st0{fill:none;}
	.st1{fill:#939598;}
</style>
<g>
	<rect y="6.5" class="st0" width="538.9" height="18.4"/>
	<path class="st1" d="M0.9,7c0.5-0.1,1.2-0.2,2-0.2c1,0,1.8,0.2,2.3,0.7c0.4,0.4,0.7,1,0.7,1.7c0,0.7-0.2,1.3-0.6,1.7
		c-0.6,0.6-1.5,0.9-2.5,0.9c-0.3,0-0.6,0-0.8-0.1V15h-1V7z M2,10.9C2.2,10.9,2.5,11,2.8,11c1.3,0,2-0.6,2-1.7c0-1.1-0.8-1.6-1.9-1.6
		c-0.5,0-0.8,0-1,0.1V10.9z"/>
	<path class="st1" d="M7.7,9.2L9,12.6c0.1,0.4,0.3,0.8,0.4,1.2h0c0.1-0.3,0.2-0.8,0.4-1.2l1.2-3.4H12l-1.6,4.1c-0.8,2-1.3,3-2,3.6
		c-0.5,0.4-1,0.6-1.3,0.7l-0.3-0.9c0.3-0.1,0.6-0.3,0.9-0.5c0.3-0.2,0.6-0.6,0.9-1.2c0-0.1,0.1-0.2,0.1-0.3c0-0.1,0-0.1-0.1-0.3
		L6.5,9.2H7.7z"/>
	<path class="st1" d="M14.2,7.8v1.4h1.5V10h-1.5v3.1c0,0.7,0.2,1.1,0.8,1.1c0.3,0,0.5,0,0.6-0.1l0,0.8c-0.2,0.1-0.5,0.1-0.9,0.1
		c-0.5,0-0.9-0.2-1.1-0.4c-0.3-0.3-0.4-0.8-0.4-1.5V10h-0.9V9.2h0.9V8.1L14.2,7.8z"/>
	<path class="st1" d="M16.9,6.5H18v3.6h0c0.2-0.3,0.4-0.6,0.8-0.7c0.3-0.2,0.7-0.3,1.1-0.3c0.8,0,2,0.5,2,2.5V15h-1.1v-3.3
		c0-0.9-0.3-1.7-1.3-1.7c-0.7,0-1.2,0.5-1.4,1.1C18,11.1,18,11.3,18,11.5V15h-1.1V6.5z"/>
	<path class="st1" d="M26,15.1c-1.6,0-2.8-1.2-2.8-3c0-1.9,1.3-3.1,2.9-3.1c1.7,0,2.8,1.2,2.8,3C28.8,14.2,27.3,15.1,26,15.1
		L26,15.1z M26,14.3c1,0,1.8-0.9,1.8-2.3c0-1-0.5-2.2-1.7-2.2c-1.2,0-1.8,1.2-1.8,2.3C24.3,13.4,25,14.3,26,14.3L26,14.3z"/>
	<path class="st1" d="M30.2,10.8c0-0.6,0-1.1,0-1.6h0.9l0.1,0.9h0c0.3-0.5,1-1.1,1.9-1.1c0.8,0,2.1,0.5,2.1,2.5V15h-1.1v-3.3
		c0-0.9-0.3-1.7-1.3-1.7c-0.7,0-1.2,0.5-1.4,1.1c0,0.1-0.1,0.3-0.1,0.5V15h-1.1V10.8z"/>
	<path class="st1" d="M65.5,15.1c-2.1,0-3.6-1.7-3.6-4.1c0-2.6,1.6-4.2,3.7-4.2c2.2,0,3.6,1.7,3.6,4.1
		C69.3,13.6,67.6,15.1,65.5,15.1L65.5,15.1z M65.6,14.3c1.7,0,2.6-1.5,2.6-3.4c0-1.6-0.8-3.3-2.6-3.3C63.8,7.6,63,9.2,63,11
		C63,12.7,63.9,14.3,65.6,14.3L65.6,14.3z"/>
	<path class="st1" d="M70.6,11.1c0-0.7,0-1.3,0-1.9h0.9l0.1,1h0c0.4-0.7,1.1-1.1,2.1-1.1c1.4,0,2.5,1.2,2.5,3c0,2.1-1.3,3.1-2.6,3.1
		c-0.8,0-1.4-0.3-1.8-0.9h0v3.2h-1.1V11.1z M71.6,12.6c0,0.1,0,0.3,0,0.4c0.2,0.7,0.8,1.2,1.6,1.2c1.1,0,1.8-0.9,1.8-2.2
		c0-1.2-0.6-2.2-1.7-2.2c-0.7,0-1.4,0.5-1.6,1.3c0,0.1-0.1,0.3-0.1,0.4V12.6z"/>
	<path class="st1" d="M78,12.3c0,1.4,0.9,2,2,2c0.8,0,1.2-0.1,1.6-0.3l0.2,0.8c-0.4,0.2-1,0.4-1.9,0.4c-1.8,0-2.9-1.2-2.9-2.9
		c0-1.8,1-3.1,2.7-3.1c1.9,0,2.4,1.7,2.4,2.7c0,0.2,0,0.4,0,0.5H78z M81.1,11.5c0-0.7-0.3-1.7-1.5-1.7c-1.1,0-1.5,1-1.6,1.7H81.1z"
		/>
	<path class="st1" d="M83.4,10.8c0-0.6,0-1.1,0-1.6h0.9l0.1,0.9h0c0.3-0.5,1-1.1,1.9-1.1c0.8,0,2.1,0.5,2.1,2.5V15h-1.1v-3.3
		c0-0.9-0.3-1.7-1.3-1.7c-0.7,0-1.2,0.5-1.4,1.1c0,0.1-0.1,0.3-0.1,0.5V15h-1.1V10.8z"/>
	<path class="st1" d="M95.8,14.7c-0.4,0.2-1.2,0.4-2.1,0.4c-2.3,0-4-1.4-4-4.1c0-2.5,1.7-4.2,4.2-4.2c1,0,1.6,0.2,1.9,0.3L95.5,8
		c-0.4-0.2-0.9-0.3-1.6-0.3c-1.9,0-3.2,1.2-3.2,3.3c0,2,1.1,3.2,3.1,3.2c0.6,0,1.3-0.1,1.7-0.3L95.8,14.7z"/>
	<path class="st1" d="M99,15l-2.7-8.1h1.1l1.3,4c0.3,1.1,0.6,2.1,0.9,3h0c0.2-0.9,0.6-2,0.9-3l1.4-4h1.1l-2.9,8.1H99z"/>
	<path class="st1" d="M131.9,15V6.9h1.2l2.6,4.1c0.6,0.9,1.1,1.8,1.4,2.6l0,0c-0.1-1.1-0.1-2.1-0.1-3.3V6.9h1V15h-1.1l-2.6-4.1
		c-0.6-0.9-1.1-1.8-1.5-2.7l0,0c0.1,1,0.1,2,0.1,3.3V15H131.9z"/>
	<path class="st1" d="M144.6,13.4c0,0.6,0,1.1,0,1.6h-0.9l-0.1-0.9h0c-0.3,0.5-0.9,1.1-1.9,1.1c-0.9,0-2-0.5-2-2.5V9.2h1.1v3.2
		c0,1.1,0.3,1.9,1.3,1.9c0.7,0,1.2-0.5,1.4-1c0.1-0.1,0.1-0.3,0.1-0.5V9.2h1.1V13.4z"/>
	<path class="st1" d="M146.4,10.8c0-0.6,0-1.1,0-1.6h0.9l0,0.9h0c0.3-0.6,0.9-1.1,1.8-1.1c0.8,0,1.4,0.5,1.6,1.2h0
		c0.2-0.3,0.4-0.6,0.7-0.8c0.3-0.3,0.7-0.4,1.3-0.4c0.8,0,1.9,0.5,1.9,2.5V15h-1v-3.3c0-1.1-0.4-1.8-1.3-1.8c-0.6,0-1.1,0.4-1.3,0.9
		c0,0.2-0.1,0.3-0.1,0.5V15h-1v-3.5c0-0.9-0.4-1.6-1.2-1.6c-0.6,0-1.1,0.5-1.3,1.1c-0.1,0.2-0.1,0.3-0.1,0.5V15h-1V10.8z"/>
	<path class="st1" d="M156.4,7c0.5-0.1,1.2-0.2,2-0.2c1,0,1.8,0.2,2.3,0.7c0.4,0.4,0.7,1,0.7,1.7c0,0.7-0.2,1.3-0.6,1.7
		c-0.6,0.6-1.5,0.9-2.5,0.9c-0.3,0-0.6,0-0.8-0.1V15h-1V7z M157.5,10.9c0.2,0.1,0.5,0.1,0.9,0.1c1.3,0,2-0.6,2-1.7
		c0-1.1-0.8-1.6-1.9-1.6c-0.5,0-0.8,0-1,0.1V10.9z"/>
	<path class="st1" d="M163.2,9.2l1.3,3.4c0.1,0.4,0.3,0.8,0.4,1.2h0c0.1-0.3,0.2-0.8,0.4-1.2l1.2-3.4h1.1l-1.6,4.1
		c-0.8,2-1.3,3-2,3.6c-0.5,0.4-1,0.6-1.3,0.7l-0.3-0.9c0.3-0.1,0.6-0.3,0.9-0.5c0.3-0.2,0.6-0.6,0.9-1.2c0-0.1,0.1-0.2,0.1-0.3
		c0-0.1,0-0.1-0.1-0.3L162,9.2H163.2z"/>
	<path class="st1" d="M196.5,7c0.5-0.1,1.2-0.2,2-0.2c1,0,1.8,0.2,2.3,0.7c0.4,0.4,0.7,1,0.7,1.7c0,0.7-0.2,1.3-0.6,1.7
		c-0.6,0.6-1.5,0.9-2.5,0.9c-0.3,0-0.6,0-0.8-0.1V15h-1V7z M197.5,10.9c0.2,0.1,0.5,0.1,0.9,0.1c1.3,0,2-0.6,2-1.7
		c0-1.1-0.8-1.6-1.9-1.6c-0.5,0-0.8,0-1,0.1V10.9z"/>
	<path class="st1" d="M206.6,13.6c0,0.5,0,1,0.1,1.4h-0.9l-0.1-0.7h0c-0.3,0.5-0.9,0.9-1.8,0.9c-1.2,0-1.8-0.8-1.8-1.7
		c0-1.4,1.2-2.2,3.5-2.2v-0.1c0-0.5-0.1-1.4-1.3-1.3c-0.6,0-1.1,0.2-1.5,0.4l-0.2-0.7c0.5-0.3,1.2-0.5,1.9-0.5
		c1.8,0,2.2,1.2,2.2,2.4V13.6z M205.6,12c-1.2,0-2.5,0.2-2.5,1.3c0,0.7,0.5,1,1,1c0.8,0,1.3-0.5,1.4-1c0-0.1,0-0.2,0-0.3V12z"/>
	<path class="st1" d="M208.3,10.8c0-0.6,0-1.1,0-1.6h0.9l0.1,0.9h0c0.3-0.5,1-1.1,1.9-1.1c0.8,0,2.1,0.5,2.1,2.5V15h-1.1v-3.3
		c0-0.9-0.3-1.7-1.3-1.7c-0.7,0-1.2,0.5-1.4,1.1c0,0.1-0.1,0.3-0.1,0.5V15h-1.1V10.8z"/>
	<path class="st1" d="M220,6.5v7c0,0.5,0,1.1,0,1.5h-0.9l0-1h0c-0.3,0.6-1,1.1-2,1.1c-1.4,0-2.5-1.2-2.5-3c0-1.9,1.2-3.1,2.6-3.1
		c0.9,0,1.5,0.4,1.8,0.9h0V6.5H220z M218.9,11.5c0-0.1,0-0.3,0-0.5c-0.2-0.7-0.7-1.2-1.5-1.2c-1.1,0-1.7,1-1.7,2.2
		c0,1.2,0.6,2.2,1.7,2.2c0.7,0,1.4-0.5,1.5-1.3c0-0.1,0-0.3,0-0.4V11.5z"/>
	<path class="st1" d="M225.8,13.6c0,0.5,0,1,0.1,1.4H225l-0.1-0.7h0c-0.3,0.5-0.9,0.9-1.8,0.9c-1.2,0-1.8-0.8-1.8-1.7
		c0-1.4,1.2-2.2,3.5-2.2v-0.1c0-0.5-0.1-1.4-1.3-1.3c-0.6,0-1.1,0.2-1.5,0.4l-0.2-0.7c0.5-0.3,1.2-0.5,1.9-0.5
		c1.8,0,2.2,1.2,2.2,2.4V13.6z M224.8,12c-1.2,0-2.5,0.2-2.5,1.3c0,0.7,0.5,1,1,1c0.8,0,1.3-0.5,1.4-1c0-0.1,0-0.2,0-0.3V12z"/>
	<path class="st1" d="M227.4,13.9c0.3,0.2,0.9,0.4,1.4,0.4c0.8,0,1.1-0.4,1.1-0.9c0-0.5-0.3-0.8-1.1-1.1c-1.1-0.4-1.5-1-1.5-1.6
		c0-0.9,0.8-1.7,2-1.7c0.6,0,1.1,0.2,1.4,0.4l-0.3,0.8c-0.2-0.1-0.6-0.3-1.2-0.3c-0.6,0-1,0.4-1,0.8c0,0.5,0.3,0.7,1.1,1
		c1,0.4,1.5,0.9,1.5,1.7c0,1-0.8,1.8-2.2,1.8c-0.6,0-1.2-0.2-1.6-0.4L227.4,13.9z"/>
	<path class="st1" d="M251.2,7.8h-2.5V6.9h6v0.9h-2.5V15h-1.1V7.8z"/>
	<path class="st1" d="M255.3,12.3c0,1.4,0.9,2,2,2c0.8,0,1.2-0.1,1.6-0.3l0.2,0.8c-0.4,0.2-1,0.4-1.9,0.4c-1.8,0-2.9-1.2-2.9-2.9
		c0-1.8,1-3.1,2.7-3.1c1.9,0,2.4,1.7,2.4,2.7c0,0.2,0,0.4,0,0.5H255.3z M258.4,11.5c0-0.7-0.3-1.7-1.5-1.7c-1.1,0-1.5,1-1.6,1.7
		H258.4z"/>
	<path class="st1" d="M260.7,10.8c0-0.6,0-1.1,0-1.6h0.9l0.1,0.9h0c0.3-0.5,1-1.1,1.9-1.1c0.8,0,2.1,0.5,2.1,2.5V15h-1.1v-3.3
		c0-0.9-0.3-1.7-1.3-1.7c-0.7,0-1.2,0.5-1.4,1.1c0,0.1-0.1,0.3-0.1,0.5V15h-1.1V10.8z"/>
	<path class="st1" d="M267.2,13.9c0.3,0.2,0.9,0.4,1.4,0.4c0.8,0,1.1-0.4,1.1-0.9c0-0.5-0.3-0.8-1.1-1.1c-1.1-0.4-1.5-1-1.5-1.6
		c0-0.9,0.8-1.7,2-1.7c0.6,0,1.1,0.2,1.4,0.4l-0.3,0.8c-0.2-0.1-0.6-0.3-1.2-0.3c-0.6,0-1,0.4-1,0.8c0,0.5,0.3,0.7,1.1,1
		c1,0.4,1.5,0.9,1.5,1.7c0,1-0.8,1.8-2.2,1.8c-0.6,0-1.2-0.2-1.6-0.4L267.2,13.9z"/>
	<path class="st1" d="M274.5,15.1c-1.6,0-2.8-1.2-2.8-3c0-1.9,1.3-3.1,2.9-3.1c1.7,0,2.8,1.2,2.8,3
		C277.4,14.2,275.9,15.1,274.5,15.1L274.5,15.1z M274.5,14.3c1,0,1.8-0.9,1.8-2.3c0-1-0.5-2.2-1.7-2.2c-1.2,0-1.8,1.2-1.8,2.3
		C272.8,13.4,273.5,14.3,274.5,14.3L274.5,14.3z"/>
	<path class="st1" d="M278.7,11c0-0.7,0-1.3,0-1.8h0.9l0,1.1h0c0.3-0.8,0.9-1.3,1.6-1.3c0.1,0,0.2,0,0.3,0v1c-0.1,0-0.2,0-0.4,0
		c-0.7,0-1.3,0.6-1.4,1.3c0,0.2,0,0.3,0,0.5V15h-1.1V11z"/>
	<path class="st1" d="M282.7,6.9h4.4v0.9h-3.3v2.7h3v0.9h-3V15h-1.1V6.9z"/>
	<path class="st1" d="M288.3,6.5h1.1V15h-1.1V6.5z"/>
	<path class="st1" d="M293.5,15.1c-1.6,0-2.8-1.2-2.8-3c0-1.9,1.3-3.1,2.9-3.1c1.7,0,2.8,1.2,2.8,3
		C296.4,14.2,294.9,15.1,293.5,15.1L293.5,15.1z M293.5,14.3c1,0,1.8-0.9,1.8-2.3c0-1-0.5-2.2-1.7-2.2c-1.2,0-1.8,1.2-1.8,2.3
		C291.8,13.4,292.5,14.3,293.5,14.3L293.5,14.3z"/>
	<path class="st1" d="M298,9.2l0.8,2.9c0.2,0.6,0.3,1.3,0.4,1.9h0c0.1-0.6,0.3-1.2,0.5-1.8l0.9-3h0.9l0.9,2.9
		c0.2,0.7,0.4,1.3,0.5,1.9h0c0.1-0.6,0.3-1.2,0.4-1.9l0.8-2.9h1l-1.9,5.8h-1l-0.9-2.8c-0.2-0.7-0.4-1.2-0.5-1.9h0
		c-0.1,0.7-0.3,1.3-0.5,1.9l-0.9,2.8h-1l-1.8-5.8H298z"/>
	<path class="st1" d="M337.6,14.7c-0.4,0.2-1.2,0.4-2.1,0.4c-2.3,0-4-1.4-4-4.1c0-2.5,1.7-4.2,4.2-4.2c1,0,1.6,0.2,1.9,0.3L337.3,8
		c-0.4-0.2-0.9-0.3-1.6-0.3c-1.9,0-3.2,1.2-3.2,3.3c0,2,1.1,3.2,3.1,3.2c0.6,0,1.3-0.1,1.7-0.3L337.6,14.7z"/>
	<path class="st1" d="M341.9,8.6v2.8h2.7v0.7h-2.7V15h-0.8v-2.8h-2.7v-0.7h2.7V8.6H341.9z"/>
	<path class="st1" d="M349.1,8.6v2.8h2.7v0.7h-2.7V15h-0.8v-2.8h-2.7v-0.7h2.7V8.6H349.1z"/>
	<path class="st1" d="M388,11.4c-0.1-1.1-0.1-2.5-0.1-3.5h0c-0.3,0.9-0.6,2-1,3.1l-1.4,3.9h-0.8l-1.3-3.9c-0.4-1.1-0.7-2.2-0.9-3.1
		h0c0,1-0.1,2.4-0.2,3.6l-0.2,3.5h-1l0.6-8.1h1.3l1.4,3.9c0.3,1,0.6,1.9,0.8,2.7h0c0.2-0.8,0.5-1.7,0.9-2.7l1.4-3.9h1.3l0.5,8.1h-1
		L388,11.4z"/>
	<path class="st1" d="M392,12.4l-0.8,2.5h-1.1l2.7-8.1h1.3l2.8,8.1h-1.1l-0.9-2.5H392z M394.6,11.6l-0.8-2.3c-0.2-0.5-0.3-1-0.4-1.5
		h0c-0.1,0.5-0.2,1-0.4,1.5l-0.8,2.3H394.6z"/>
	<path class="st1" d="M398.6,7.8h-2.5V6.9h6v0.9h-2.5V15h-1.1V7.8z"/>
	<path class="st1" d="M403.1,6.9h1.1v7.2h3.5V15h-4.5V6.9z"/>
	<path class="st1" d="M410,12.4l-0.8,2.5h-1.1l2.7-8.1h1.3l2.8,8.1h-1.1l-0.9-2.5H410z M412.7,11.6l-0.8-2.3c-0.2-0.5-0.3-1-0.4-1.5
		h0c-0.1,0.5-0.2,1-0.4,1.5l-0.8,2.3H412.7z"/>
	<path class="st1" d="M416.1,7c0.5-0.1,1.2-0.2,1.9-0.2c1,0,1.7,0.2,2.2,0.6c0.4,0.3,0.7,0.8,0.7,1.4c0,0.8-0.5,1.5-1.4,1.8v0
		c0.8,0.2,1.7,0.8,1.7,2c0,0.7-0.3,1.2-0.7,1.6c-0.6,0.5-1.5,0.8-2.8,0.8c-0.7,0-1.3,0-1.6-0.1V7z M417.1,10.3h0.9
		c1.1,0,1.7-0.6,1.7-1.4c0-0.9-0.7-1.3-1.8-1.3c-0.5,0-0.8,0-0.9,0.1V10.3z M417.1,14.2c0.2,0,0.5,0,0.9,0c1.1,0,2.1-0.4,2.1-1.6
		c0-1.1-0.9-1.6-2.1-1.6h-0.9V14.2z"/>
	<path class="st1" d="M453.1,6.9h1.1v7.2h3.5V15h-4.5V6.9z"/>
	<path class="st1" d="M463.4,13.4c0,0.6,0,1.1,0,1.6h-0.9l-0.1-0.9h0c-0.3,0.5-0.9,1.1-1.9,1.1c-0.9,0-2-0.5-2-2.5V9.2h1.1v3.2
		c0,1.1,0.3,1.9,1.3,1.9c0.7,0,1.2-0.5,1.4-1c0.1-0.1,0.1-0.3,0.1-0.5V9.2h1.1V13.4z"/>
	<path class="st1" d="M469.3,13.6c0,0.5,0,1,0.1,1.4h-0.9l-0.1-0.7h0c-0.3,0.5-0.9,0.9-1.8,0.9c-1.2,0-1.8-0.8-1.8-1.7
		c0-1.4,1.2-2.2,3.5-2.2v-0.1c0-0.5-0.1-1.4-1.3-1.3c-0.6,0-1.1,0.2-1.5,0.4l-0.2-0.7c0.5-0.3,1.2-0.5,1.9-0.5
		c1.8,0,2.2,1.2,2.2,2.4V13.6z M468.2,12c-1.2,0-2.5,0.2-2.5,1.3c0,0.7,0.5,1,1,1c0.8,0,1.3-0.5,1.4-1c0-0.1,0-0.2,0-0.3V12z"/>
	<path class="st1" d="M509.2,7c0.5-0.1,1.3-0.2,2-0.2c1.1,0,1.8,0.2,2.4,0.7c0.4,0.3,0.6,0.9,0.6,1.5c0,1.1-0.7,1.8-1.5,2.1v0
		c0.6,0.2,1,0.8,1.2,1.6c0.3,1.1,0.5,1.9,0.6,2.2h-1.1c-0.1-0.2-0.3-0.9-0.5-1.9c-0.2-1.1-0.7-1.5-1.6-1.6h-1V15h-1V7z M510.2,10.7
		h1.1c1.1,0,1.8-0.6,1.8-1.5c0-1-0.8-1.5-1.9-1.5c-0.5,0-0.9,0-1,0.1V10.7z"/>
</g>
<g>
</g>
<g>
</g>
<g>
</g>
<g>
</g>
<g>
</g>
<g>
</g>
</svg>
