<?xml version="1.0" encoding="utf-8"?>
<!-- Generator: Adobe Illustrator 23.0.1, SVG Export Plug-In . SVG Version: 6.00 Build 0)  -->
<svg version="1.1" id="Layer_1" xmlns="http://www.w3.org/2000/svg" xmlns:xlink="http://www.w3.org/1999/xlink" x="0px" y="0px"
	 viewBox="0 0 4094 387" style="enable-background:new 0 0 4094 387;" xml:space="preserve">
<style type="text/css">
	.st0{fill-rule:evenodd;clip-rule:evenodd;fill:#B8BABD;}
	.st1{fill-rule:evenodd;clip-rule:evenodd;fill:#2167B9;}
	.st2{fill-rule:evenodd;clip-rule:evenodd;fill:#000080;}
	.st3{fill-rule:evenodd;clip-rule:evenodd;fill:#625066;}
	.st4{fill-rule:evenodd;clip-rule:evenodd;fill:#4499DD;}
	.st5{fill-rule:evenodd;clip-rule:evenodd;fill:#E3573B;}
	.st6{fill-rule:evenodd;clip-rule:evenodd;fill:#004482;}
	.st7{fill-rule:evenodd;clip-rule:evenodd;fill:#659AD2;}
	.st8{fill-rule:evenodd;clip-rule:evenodd;fill:#FF6F00;}
	.st9{fill-rule:evenodd;clip-rule:evenodd;fill:#E70287;}
	.st10{fill-rule:evenodd;clip-rule:evenodd;fill:#FFD432;}
	.st11{fill-rule:evenodd;clip-rule:evenodd;fill:#130754;}
	.st12{fill-rule:evenodd;clip-rule:evenodd;fill:#4DABCF;}
	.st13{fill-rule:evenodd;clip-rule:evenodd;fill:#4C75CF;}
	.st14{fill-rule:evenodd;clip-rule:evenodd;fill:#128DFF;}
	.st15{fill-rule:evenodd;clip-rule:evenodd;fill:#8BDA67;}
	.st16{fill-rule:evenodd;clip-rule:evenodd;fill:#FF2A44;}
	.st17{fill-rule:evenodd;clip-rule:evenodd;fill:#FFDF5D;}
	.st18{fill-rule:evenodd;clip-rule:evenodd;fill:#3C79AA;}
	.st19{fill-rule:evenodd;clip-rule:evenodd;fill:#234A88;}
</style>
<path class="st0" d="M3901.5,76.6c-22.1,3.2-36.1,7.2-49.7,14c-23.4,11.8-39.2,28.9-44.4,48.4c-3.1,11.5-1.1,26,5.1,38
	c3.1,5.9,11.3,16.2,12.4,15.5c0.5-0.3,1.2,0,1.6,0.6c0.5,0.8,0.3,0.9-0.6,0.4c-0.8-0.5-1.1-0.4-0.7,0.2c1.2,2,10.9,8.8,12,8.4
	c0.6-0.2,0.8,0,0.4,0.4c-1.1,1.1,3,3.7,4.4,2.8c0.7-0.4,0.9-0.3,0.5,0.3c-0.8,1.3,14.9,9.7,16.3,8.8c0.5-0.3,1-0.1,1,0.6
	c0,0.6,0.7,0.9,1.6,0.6c1-0.4,1.3-0.2,0.9,0.5c-0.5,0.7,0.1,0.9,1.6,0.4c1.6-0.5,2-0.4,1.5,0.5s-0.1,1,1.5,0.5s2-0.4,1.5,0.5
	s-0.1,1,1.5,0.5s2-0.4,1.5,0.5c-0.5,0.9-0.2,1,1.3,0.6c2.9-0.9,7.8,0.4,6.1,1.7c-0.9,0.7-0.6,0.8,1.2,0.4c1.4-0.3,4.3-0.3,6.5,0.1
	c3.3,0.5,3.6,0.8,2,1.5c-1.2,0.5-0.1,0.6,3,0.4c3.8-0.3,4.4-0.2,2.5,0.5c-2.4,0.9-2.4,0.9,0.5,0.7l3-0.2l0.6-12
	c0.3-6.6,0.7-29.4,0.8-50.7l0.1-38.7l40.3-0.3l40.3-0.3l-40.8-0.2L3898,122v40.5c0,38.1-0.1,40.4-1.8,39.9c-1.5-0.5-1.5-0.4-0.3,0.6
	c1.3,1,1.2,1.1-0.3,0.6c-1-0.3-2.3-0.6-2.8-0.6c-0.5,0-0.7-0.5-0.3-1.2c0.4-0.7,0.3-0.9-0.4-0.4c-1.5,0.9-5.3-0.3-4.6-1.5
	c0.3-0.5-0.2-0.6-1.1-0.3c-1.2,0.4-1.5,0.3-1-0.5c0.5-0.8,0.2-1-0.8-0.6c-0.9,0.3-1.6,0.1-1.6-0.5c0-0.6-0.7-0.8-1.5-0.5
	c-0.9,0.3-1.8-0.1-2.1-1c-0.3-0.9-1-1.3-1.5-1c-0.5,0.3-0.9,0.1-0.9-0.4s-1.9-2.2-4.1-3.6c-2.3-1.5-3.8-2.1-3.3-1.4
	c0.4,0.7-2.2-1.8-5.9-5.7c-17-17.7-18-35.7-3-52.4c9-10.1,24.8-18.5,43.2-23c22.8-5.6,54.1-4.5,76.2,2.7c4.6,1.5,9,2.7,9.8,2.8
	s1.6,0.6,1.8,1.3c0.2,0.7,0.8,1,1.3,0.7c0.5-0.3,0.9,0,0.9,0.7c0,0.7,0.3,0.9,0.7,0.6c0.4-0.4,1.3,0.1,2.1,1.1
	c0.9,1.1,1.2,1.2,0.7,0.2c-0.4-0.8,0.5,0,2,1.8c1.5,1.8,3.3,3.1,4,2.8c0.7-0.3,2.1,0.5,3.1,1.7c1.6,1.9,1.6,2,0.1,0.8
	c-3-2.3-1.9,0.2,1.9,4.4c3.5,3.8,3.7,3.2,0.4-1c-1.6-2-1.6-2,0.6-0.2c1.2,1,3.4,4.5,5,7.7c1.6,3.3,3.5,6,4.3,6
	c1,0.1,1.1,0.3,0.3,0.6c-2.4,1-1.3,3.3,1.5,3.3c2.1,0,2.4-0.2,1.3-1c-1.2-0.8-1-1,1-1c1.9,0,2.1-0.3,1.1-0.9c-1.1-0.7-0.5-1,1.9-1.2
	c1.8-0.2,3.5-0.9,3.6-1.6c0.1-0.7,0-0.8-0.3-0.3c-1.2,2.4-2.2,0.8-1.2-1.9c0.7-2.1,0.7-3.5-0.1-4.8c-0.9-1.5-1-1.3-0.6,1.2
	c0.4,2.4,0.2,2.2-1-1c-0.8-2.2-1.3-4.6-1-5.3c0.3-0.8,0.1-1.1-0.6-0.6c-0.8,0.5-1,0.2-0.6-0.9c0.3-0.9-0.1-2.4-0.9-3.4
	c-1.4-1.7-1.4-1.7-0.4,0.4c1.7,3.4,0.3,2.7-1.5-0.9c-1.2-2.3-1.3-2.9-0.3-2.4c0.7,0.4,0-0.4-1.6-1.7c-1.6-1.3-2.6-2.9-2.3-3.4
	c0.3-0.5-2.4-3.9-6.1-7.4l-6.7-6.4l6,6.5c5.9,6.5,5.9,6.5-1.3-0.7c-4-4-7.3-7-7.3-6.7c0,0.3-0.9-0.5-2.1-1.8
	c-1.1-1.3-1.8-1.7-1.4-0.9c0.4,0.8-0.2,0.5-1.2-0.7c-4.9-5.8-29.4-15.9-46.8-19.3C3939.9,76.9,3909.5,75.4,3901.5,76.6 M224.4,115.5
	c0,13.2,0.1,18.5,0.3,11.7c0.2-6.8,0.2-17.6,0-24S224.4,102.3,224.4,115.5 M1522.5,189c0,47,0.1,66.3,0.3,42.8
	c0.1-23.5,0.1-62,0-85.5C1522.6,122.7,1522.5,142,1522.5,189 M1600.2,129.3L1600,155h-12h-12l-0.3-24.8l-0.3-24.8l0,25l0,25
	l12.3,0.3c9.3,0.2,12.4,0,12.8-1c0.3-0.7,0.4-12.5,0.2-26.3l-0.3-25L1600.2,129.3 M1210.4,133.5c0,13.8,0.1,19.5,0.3,12.8
	c0.2-6.7,0.2-18,0-25C1210.6,114.3,1210.4,119.7,1210.4,133.5 M148.2,111.7c5.9,0.2,15.8,0.2,22,0c6.2-0.2,1.4-0.3-10.7-0.3
	S142.3,111.6,148.2,111.7 M2432.5,160c0,27.2,0.1,38.4,0.3,24.8s0.2-35.9,0-49.5S2432.5,132.8,2432.5,160 M1157,160.7
	c-0.3,13.9-0.2,24.9,0.3,24.4c0.4-0.4,0.6-11.8,0.5-25.2l-0.3-24.4L1157,160.7 M1113.4,182c0,14,0.1,19.8,0.3,12.8
	c0.2-7,0.2-18.5,0-25.5C1113.6,162.2,1113.4,168,1113.4,182 M167.8,158.7c6.7,0.2,17.8,0.2,24.5,0c6.7-0.2,1.2-0.3-12.3-0.3
	S161,158.6,167.8,158.7 M1575.2,182.3L1575,195h13h13l-0.2-12.8l-0.2-12.8l-0.3,12.3l-0.3,12.3H1588h-11.9l-0.3-12.3l-0.3-12.3
	L1575.2,182.3 M1210.4,200.5c0,13.8,0.1,19.5,0.3,12.8c0.2-6.7,0.2-18,0-25C1210.6,181.3,1210.4,186.8,1210.4,200.5 M1025.8,207
	c-0.2,15.9,0,28.6,0.4,28.2c0.9-0.9,1.5-57.2,0.6-57.2C1026.4,178,1025.9,191,1025.8,207 M1157,227.2c-0.3,14.1-0.2,25.4,0.3,24.9
	c0.4-0.4,0.6-12,0.5-25.7l-0.3-24.9L1157,227.2 M1600.2,234.3L1600,260h-12h-12l-0.3-24.8l-0.3-24.8l0,25l0,25l12.3,0.3
	c9.3,0.2,12.4,0,12.8-1c0.3-0.7,0.4-12.5,0.2-26.3l-0.3-25L1600.2,234.3 M1113.2,248.8c-0.1,13.9,0.1,25.3,0.5,25.3
	c0.4,0,0.6-7.5,0.5-16.8C1113.8,226.3,1113.4,223.3,1113.2,248.8 M3898.4,237.7l0.1,11.8l18.5,0l18.5,0l-18.2-0.3l-18.2-0.3
	l-0.3-11.5l-0.3-11.5L3898.4,237.7 M4000.5,249l-22,0.6l21.7,0.2c13.6,0.1,21.9-0.2,22.3-0.8c0.3-0.6,0.5-0.9,0.3-0.8
	C4022.6,248.3,4012.6,248.7,4000.5,249 M2106.4,339.5c0,14.3,0.1,20,0.3,12.7c0.2-7.3,0.2-19,0-26
	C2106.6,319.2,2106.4,325.2,2106.4,339.5 M2146.4,339.5c0,14.3,0.1,20,0.3,12.7c0.2-7.3,0.2-19,0-26
	C2146.6,319.2,2146.4,325.2,2146.4,339.5 M2862.4,339.5c0,14.3,0.1,20,0.3,12.7c0.2-7.3,0.2-19,0-26
	C2862.6,319.2,2862.4,325.2,2862.4,339.5 M3004.4,339.5c0,14.3,0.1,20,0.3,12.7c0.2-7.3,0.2-19,0-26
	C3004.6,319.2,3004.4,325.2,3004.4,339.5 M3090.4,339.5c0,14.3,0.1,20,0.3,12.7c0.2-7.3,0.2-19,0-26
	C3090.6,319.2,3090.4,325.2,3090.4,339.5 M74.4,340.5c0,14.3,0.1,20,0.3,12.7c0.2-7.3,0.2-19,0-26C74.6,320.2,74.4,326.2,74.4,340.5
	 M177.4,340.5c0,14.3,0.1,20,0.3,12.7c0.2-7.3,0.2-19,0-26C177.6,320.2,177.4,326.2,177.4,340.5 M1034.4,340.5
	c0,14.3,0.1,20,0.3,12.7c0.2-7.3,0.2-19,0-26C1034.6,320.2,1034.4,326.2,1034.4,340.5 M2982.4,342.5c0,12.6,0.1,17.7,0.3,11.2
	c0.2-6.5,0.2-16.8,0-23C2982.6,324.5,2982.4,329.9,2982.4,342.5 M2905.9,324.3c-0.2,0.7-0.1,10.3,0.2,21.3l0.5,20l0.2-21.3
	C2907,324.6,2906.8,320.9,2905.9,324.3 M1000.2,346.3c0.2,20.3,0.6,17.9,1-7c0.1-7.3-0.1-13.3-0.5-13.3
	C1000.3,326,1000.1,335.1,1000.2,346.3 M567.4,355c0,14,0.1,19.8,0.3,12.8s0.2-18.5,0-25.5S567.4,341,567.4,355"/>
<path class="st1" d="M138.2,101.7L138,111l21.8-0.2l21.8-0.2l-21.2-0.3l-21.2-0.3l-0.3-8.7l-0.3-8.7L138.2,101.7 M219,118.1
	c-1.4,1.6-3.4,2.9-4.5,2.9c-1.5,0-1.7,0.3-0.6,0.9c1.2,0.7,1.2,0.9,0,1.4c-1,0.4-0.9,0.6,0.3,0.6c0.9,0,2-0.4,2.3-0.9s1.1-1,1.6-1
	c0.6,0,0.3,0.7-0.5,1.5c-0.8,0.8-3.2,1.6-5.3,1.7c-3.7,0.2-3.8,0.2-0.5,0.6l3.3,0.4l-3,2.8c-2,1.9-2.6,3-1.8,3.4
	c0.8,0.3,0.7,0.5-0.4,0.6c-0.9,0-1.9-0.5-2.2-1.2c-0.4-1-0.5-1-0.6,0c0,0.7-1.1,1.3-2.3,1.3c-1.8,0-2,0.2-0.8,1c1.2,0.8,1,1-1,1.1
	c-2,0.1-1.8,0.3,1,0.9c3.4,0.7,3.3,0.7-1.5,1c-2.8,0.1-4.2,0.5-3.2,0.7c1,0.3,1.5,0.9,1.2,1.4c-0.3,0.5-0.1,0.9,0.4,0.9
	s1.3-0.4,1.6-1s1.1-1,1.7-1c0.6,0-0.4,1.3-2.1,2.9c-2.1,1.9-2.7,3.1-1.9,3.4c0.8,0.3,0.6,0.5-0.5,0.6c-1,0-1.8-0.4-1.8-1
	s-1.3,0.3-2.9,2c-1.6,1.7-3.9,3.1-5.2,3.1c-3.4,0-1.6,1.1,1.9,1.2c2.5,0.1,2.8,0.3,1.7,1.4c-0.7,0.7-3.1,1.4-5.2,1.5l-3.8,0.1
	l3.5,0.7c1.9,0.4,2.8,0.8,2.1,0.9c-0.9,0.1-1.1,0.5-0.5,1.1c1.2,1.2,15.5,1.8,17.3,0.7c0.7-0.4,1.6-0.6,1.9-0.3c1,1,9.1-5.3,11-8.4
	c1-1.6,2-3,2.4-3c0.9,0,1-27.2,0.1-28.7C221.7,115.6,220.7,116.2,219,118.1 M136.3,117.7c8.7,0.2,22.6,0.2,31,0
	c8.4-0.2,1.2-0.3-15.8-0.3C134.4,117.4,127.6,117.6,136.3,117.7 M3899.5,123.9c-0.8,1.3-0.7,67.4,0.2,102.3l0.5,21.8h17.9h17.9
	l-0.1-5.8c0-3.2,0.1-14.3,0.2-24.8l0.3-19h6.7c6.2,0,6.9,0.2,10.2,3.4c1.9,1.9,3.3,3.8,3,4.3c-0.3,0.5,0,0.8,0.6,0.8
	s0.9,0.4,0.6,0.9c-0.3,0.5,0.1,1.2,1,1.5c0.9,0.3,1.3,1.1,0.9,1.6c-0.3,0.6-0.1,1,0.5,1s0.8,0.4,0.5,1s-0.1,1,0.5,1s0.8,0.4,0.5,1
	s-0.1,1,0.5,1s0.8,0.4,0.5,1s-0.1,1,0.6,1c0.7,0,1,0.3,0.6,0.6c-0.3,0.3,0.3,1.5,1.4,2.5c1.1,1.1,1.7,2.4,1.4,2.9
	c-0.3,0.5-0.1,1,0.5,1c1.2,0,8.6,13.9,8.4,15.7c-0.1,0.7,0.2,1,0.6,0.8c0.4-0.2,1.5,1.1,2.4,3l1.6,3.5h20.1h20.1l-3.1-5.3
	c-1.7-2.9-2.7-5.7-2.3-6.2c0.4-0.4,0.2-0.5-0.4-0.1c-1.1,0.6-3-2.9-2.5-4.7c0.1-0.5-0.2-0.6-0.7-0.2c-0.9,0.6-2.7-3.1-2.3-4.8
	c0.1-0.5-0.2-0.6-0.7-0.2c-0.9,0.6-2.7-3.1-2.3-4.8c0.1-0.5-0.2-0.6-0.7-0.3c-0.9,0.6-3.8-5.2-3.4-6.7c0.1-0.5-0.2-0.6-0.7-0.2
	c-0.9,0.6-2.7-3.1-2.3-4.8c0.1-0.5-0.2-0.6-0.7-0.2c-0.9,0.6-2.7-3.1-2.3-4.7c0.1-0.4-0.2-0.8-0.7-0.8c-0.5,0-1.1-0.9-1.4-2.1
	c-0.3-1.1-1.5-2.3-2.6-2.6c-1.1-0.3-2.1-1-2.1-1.5c0-0.5-0.4-0.7-1-0.3s-1,0.2-1-0.3c0-0.5-0.6-0.9-1.4-0.9c-2.6,0-7.6-2.6-7.6-4
	c0-0.8,0.3-1.3,0.8-1.2c0.4,0.1,1.4-0.1,2.3-0.4c0.8-0.3,3.3-1.1,5.5-1.8c8-2.5,17.5-10.7,19.7-17c0.6-1.6,1.4-2.9,1.9-2.9
	c0.5,0,0.6-0.7,0.3-1.5c-0.3-0.8-0.2-2,0.2-2.7c1.1-1.8,0.5-14.5-1-19.5c-0.7-2.4-1-4.4-0.7-4.4c0.4,0,0.2-0.3-0.3-0.8
	s-3.1-3-5.6-5.7c-5.2-5.8-4.8-5.4-7.7-6.1c-1.2-0.3-2.3-1-2.3-1.5c0-0.5-0.3-0.7-0.8-0.5c-0.4,0.2-1.9,0-3.3-0.6
	c-4-1.6-4.7-1.7-46.6-2.4C3909.6,122.9,3900.1,123,3899.5,123.9 M1082,150.9l13.5,6.8l0.5,57.4l0.5,57.4l0.2-57.5l0.2-57.5
	l-13.5-6.7c-7.4-3.7-13.8-6.7-14.3-6.7C1068.8,144.1,1074.6,147.2,1082,150.9 M3936.3,150.6c-0.2,0.6-0.3,5.8-0.1,11.5l0.3,10.4
	l11.9,0.3c6.6,0.2,12.6,0,13.5-0.4c0.9-0.4,1.8-0.8,2.1-0.8c3.4-0.9,5.2-2,6.2-3.8c1.5-2.8,2-11.7,0.7-11.7c-0.5,0-0.8-0.4-0.5-0.9
	c0.3-0.5-0.6-1.9-1.9-3.2c-2.3-2.2-3.2-2.3-17.1-2.4C3941.9,149.5,3936.6,149.9,3936.3,150.6 M1025.4,205.5
	c0,15.9,0.1,22.3,0.3,14.2c0.2-8.1,0.2-21.2,0-29C1025.6,182.9,1025.4,189.6,1025.4,205.5"/>
<path class="st2" d="M3533.2,52.6c-8.5,4.3-13.2,12.1-13.1,22.1c0,9.3,5.2,17.7,13.2,21.9c4.9,2.5,13.9,2.9,19.4,0.9
	c20.9-8,21.7-36.2,1.4-45.4C3547.5,49.1,3539.7,49.3,3533.2,52.6 M3443.3,76c-12.9,2.3-27.9,9.3-39.2,18.3
	c-12.4,9.9-24.3,28.3-28.8,44.7c-2.8,10.2-2.6,33.9,0.5,44.5c9.2,32,36.8,56.5,69.4,61.6c8.8,1.4,26,0.6,33.8-1.5
	c30.8-8.4,55.2-33,62.7-63.2c2.5-10.1,2.3-30.4-0.5-40.5c-8.1-30.2-29.9-52.6-59.7-61.5C3471.5,75.5,3452.9,74.3,3443.3,76
	 M3487.8,100.4c-10,2.8-16.8,9.8-18.9,19.5c-2.4,11.2,3.9,23.5,14.5,28.3c5.7,2.6,15.6,2.5,21.2-0.2c5.5-2.7,12-10.1,13.4-15.3
	C3523.5,112.6,3507,95,3487.8,100.4 M3399.2,175.3l0.3,28.3l17.8,0.3l17.8,0.3v-3.5V197h-14h-14v-25v-25h-4h-4L3399.2,175.3
	 M3494.8,162.4c-6.7,1.8-8.7,3.8-10.2,9.9c-0.6,2.7-0.5,2.8,3.4,2.8c2.7,0,4-0.4,4-1.3c0-4,9.2-6.9,14-4.4c2,1.1,2.5,2.1,2.5,5.3
	c0,3.8-0.1,4-4,4.7c-14.5,2.7-15.5,3-18.5,5.7c-2.6,2.4-3,3.6-3,7.5c0,6.1,2.4,10,7.4,12.1c5,2,11.1,1.2,16-2
	c3.4-2.3,3.5-2.3,4.1-0.4c0.8,2.5,5,4.1,8.6,3.3c2.3-0.5,2.8-1.2,2.8-3.5c0-2.2-0.5-2.9-2.3-3.2c-2.2-0.3-2.3-0.7-2.8-15.5
	c-0.5-14.2-0.6-15.3-2.9-17.7c-1.4-1.5-4.3-2.9-7.3-3.6C3500.9,160.8,3500.8,160.8,3494.8,162.4 M3441,179c0,17.3,0.9,21.6,5.2,24.3
	c5.8,3.7,14.4,2.8,19.2-2l2.6-2.6v2.6c0,2.3,0.4,2.6,3,2.6h3v-20.5V163h-3.4h-3.4l-0.3,14.9l-0.3,14.9l-2.9,3.1
	c-3.6,3.8-9,4.2-12.4,1c-2.1-1.9-2.2-2.9-2.2-18v-16h-4h-4V179 M3502,185.7c-6.5,1.1-10.1,2.5-11,4.4c-3.9,7.3,7.9,12.3,15,6.3
	c2.6-2.2,3.1-3.3,3.1-7C3509,184.7,3508.8,184.5,3502,185.7"/>
<path class="st3" d="M1549,62.7l12,0.3l0.3,25l0.3,25l0-25.3l0-25.3l-12.3,0l-12.3,0L1549,62.7 M2989,130
	c-7.6,2.5-22.7,7.1-24.4,7.4c-1.5,0.2-8.6,7.4-8.6,8.7c0,0.4-0.7,1.2-1.7,1.7c-1.5,0.8-1.4,1.1,0.7,2.2c1.3,0.7,3.2,2.2,4.2,3.4
	c1,1.2,1.6,1.4,1.2,0.6c-0.4-0.8,0.3-0.4,1.5,1s1.9,1.9,1.5,1.1c-0.6-1.1-0.3-1.1,1.4-0.2c1.2,0.6,1.9,1.5,1.6,2
	c-0.3,0.5,0,1.2,0.6,1.6c0.7,0.5,0.9,0.3,0.5-0.4c-0.5-0.7,0-1.2,1.3-1.2c1.1,0,2.1-0.6,2.1-1.3c0-0.8,0.3-0.8,1,0.3s1,1.1,1,0.3
	c0-0.7,0.9-1.3,2-1.3s2-0.6,2-1.3c0-0.8,0.3-0.8,1,0.3c0.8,1.2,1,1.2,1,0.1c0-0.9,0.8-1.2,2.4-0.9c1.8,0.4,2.3,0.1,1.8-1
	c-0.4-1-0.2-1.3,0.6-0.8c0.7,0.4,1.1,0.4,1.1-0.1c-0.4-2.1,0.2-3.4,1.2-2.7c0.7,0.4,0.9,0.3,0.5-0.4c-0.4-0.6,0.2-2,1.3-3.1
	c1.1-1.1,1.7-2.2,1.4-2.5c-0.3-0.3,0-0.6,0.6-0.6c0.7,0,0.9-0.4,0.6-1s-0.1-1,0.4-1s1-0.3,0.9-0.8c-0.1-0.7,2.4-6.8,4.3-10.5
	C2997.3,127.5,2996.2,127.6,2989,130 M1561.4,193c0,14,0.1,19.8,0.3,12.8c0.2-7,0.2-18.5,0-25.5C1561.6,173.2,1561.4,179,1561.4,193
	 M2152.4,339.5c0,14.3,0.1,20,0.3,12.7c0.2-7.3,0.2-19,0-26C2152.6,319.2,2152.4,325.2,2152.4,339.5 M2912.4,339.5
	c0,14.3,0.1,20,0.3,12.7c0.2-7.3,0.2-19,0-26C2912.6,319.2,2912.4,325.2,2912.4,339.5 M3405.4,339.5c0,14.3,0.1,20,0.3,12.7
	c0.2-7.3,0.2-19,0-26C3405.6,319.2,3405.4,325.2,3405.4,339.5 M3411.4,336.5c0,12.6,0.1,17.7,0.3,11.2c0.2-6.5,0.2-16.8,0-23
	C3411.6,318.5,3411.4,323.9,3411.4,336.5 M994.4,340.5c0,14.3,0.1,20,0.3,12.7c0.2-7.3,0.2-19,0-26
	C994.6,320.2,994.4,326.2,994.4,340.5 M1028.4,335.5c0,11.5,0.1,16.1,0.3,10.2c0.2-5.9,0.2-15.4,0-21
	C1028.6,319.1,1028.4,324,1028.4,335.5 M1454.4,340.5c0,14.3,0.1,20,0.3,12.7c0.2-7.3,0.2-19,0-26
	C1454.6,320.2,1454.4,326.2,1454.4,340.5 M1609.4,340.5c0,14.3,0.1,20,0.3,12.7c0.2-7.3,0.2-19,0-26
	C1609.6,320.2,1609.4,326.2,1609.4,340.5 M1907.4,342.5c0,12.6,0.1,17.7,0.3,11.2c0.2-6.5,0.2-16.8,0-23
	C1907.6,324.5,1907.4,329.9,1907.4,342.5 M1913.4,342.5c0,12.6,0.1,17.7,0.3,11.2c0.2-6.5,0.2-16.8,0-23
	C1913.6,324.5,1913.4,329.9,1913.4,342.5 M2868.4,344c0,11.8,0.1,16.7,0.3,10.8s0.2-15.6,0-21.5S2868.4,332.2,2868.4,344"/>
<path class="st4" d="M149,76.2c0,0.4,0.6,0.9,1.3,1.1c0.7,0.2,0.3,0.3-0.9,0.1c-2.8-0.4-7,2.9-7.8,6.2c-0.4,1.4-1,2.3-1.5,2
	c-0.5-0.3-0.6,0.4-0.4,1.5c0.3,1.1,1.4,2,2.4,2c2.4,0,9.3-6.7,7.6-7.3c-0.7-0.3-0.1-0.5,1.3-0.6c1.6-0.1,2.1-0.4,1.3-0.9
	c-0.9-0.6-0.7-1.2,0.8-2.2c2.7-2,2.5-2.5-1-2.5C150.4,75.5,149,75.8,149,76.2 M1209.4,134c0,12.9,0.1,18.2,0.3,11.8
	c0.2-6.5,0.2-17,0-23.5C1209.6,115.8,1209.4,121.1,1209.4,134 M112.3,119.5c-0.7,0.7-1,1.5-0.8,1.7c0.2,0.2-0.6,0.4-1.8,0.4
	c-1.4,0-2.1,0.4-2,1.2c0.2,0.7-0.2,1-0.8,0.6c-1.4-0.9-5.7,3.1-7.9,7.5c-1,1.9-1.8,3.7-1.8,4c-0.1,1.5-1.7,4.6-2.6,5.2
	c-0.6,0.4-0.1,0.7,1.2,0.8c1.3,0,2,0.5,1.7,1c-0.3,0.6-1,0.8-1.4,0.5c-0.4-0.3-0.8,0.2-0.8,1c0,2,0.3,1.9,4.2-2
	c2.2-2.2,3-3.6,2.2-3.9c-0.7-0.3-0.2-0.5,1.1-0.6c1.3,0,2-0.5,1.7-1s-1.1-0.8-1.8-0.7c-0.7,0.2-0.9,0.1-0.5-0.1
	c0.4-0.2,0.5-0.8,0.2-1.3c-0.3-0.5-0.1-0.9,0.5-0.9s1.1,0.4,1.1,1s0.5,1,1.1,1s0.8-0.4,0.4-1c-0.3-0.6,0.4-1,1.7-1
	c1.8,0,2-0.2,0.9-0.9c-0.8-0.5-1.7-0.7-2.1-0.5c-0.3,0.2-0.6-0.3-0.6-1.1c0-0.9,1-1.5,2.4-1.5c2.5,0,7.9-4.5,6.4-5.4
	c-0.5-0.3-1.7,0.6-2.7,1.9c-1,1.4-2.4,2.5-3.2,2.5s0.2-1.5,2-3.3c1.8-1.8,3.4-3,3.6-2.5c0.2,0.5,1.1,0.8,2,0.8c1.4,0,1.5-0.1,0.2-1
	c-1.2-0.8-1-1,0.9-1c2.4,0,2.4-1-0.1-1.4c-0.7-0.1-1.8-0.5-2.3-0.8C113.9,118.5,113,118.8,112.3,119.5 M1173.4,152.5
	c0,13.2,0.1,18.5,0.3,11.7c0.2-6.8,0.2-17.6,0-24C1173.6,133.8,1173.4,139.3,1173.4,152.5 M1156,160.8l0.5,23.7l0.3-22.9
	c0.1-12.6-0.1-23.3-0.5-23.7C1155.8,137.4,1155.7,147.8,1156,160.8 M2952.5,149.9c-0.5,0.5-1.9,1.1-3,1.3c-1.1,0.2-2.2,0.6-2.5,1
	c-0.3,0.4-1.4,0.8-2.5,1c-1.1,0.2-2.2,0.6-2.5,1c-0.3,0.4-1.4,0.8-2.5,1c-1.1,0.2-2.2,0.6-2.5,1c-0.3,0.4-1.4,0.8-2.5,1
	c-1.1,0.2-2.6,0.9-3.4,1.6s-1.9,1.1-2.5,0.9c-0.6-0.2-1.8,0.3-2.5,1c-0.8,0.8-2,1.2-2.8,0.9c-0.8-0.3-1.4-0.2-1.4,0.3
	c0,0.8-6.6,3.6-10,4.3c-0.8,0.2-1.7,0.6-2,0.9c-0.3,0.4-1.4,0.8-2.5,1c-1.1,0.2-2.3,0.7-2.6,1.2c-0.3,0.4-1.5,0.9-2.7,1
	s-2.4,0.8-2.6,1.5c-0.3,0.7-0.1,1.1,0.4,0.8c0.5-0.3,1.6,0.3,2.3,1.4c0.8,1.1,1.7,1.7,2,1.4c0.4-0.4,0.9,0.1,1.3,1
	c0.3,0.9,1,1.4,1.5,1.1c0.5-0.3,1.5,0.4,2.2,1.5c0.8,1.1,1.7,1.7,2,1.4c0.4-0.4,0.9,0.1,1.3,1c0.3,0.9,1,1.4,1.5,1.1
	c0.5-0.3,1.5,0.4,2.2,1.5c0.8,1.1,1.7,1.7,2,1.4c0.4-0.4,0.9,0.1,1.3,1c0.3,0.9,1,1.4,1.5,1.1c0.5-0.3,1.5,0.4,2.2,1.5
	c0.8,1.1,1.7,1.7,2,1.4c0.4-0.4,0.9,0.1,1.3,1c0.3,0.9,1,1.4,1.5,1.1c0.5-0.3,1.2,0.1,1.5,1c0.3,0.9,1,1.3,1.4,1
	c0.5-0.3,1.4,0.3,2.1,1.3c1.3,1.8,8.8,2.7,8.8,1c0-0.4,1-0.8,2.3-0.8c1.3,0,3.4-1.1,4.7-2.5s2.7-2.5,3.1-2.5
	c1.5,0,17.9-17.5,17.9-19.1c0-0.4,1-1.5,2.2-2.4c1.2-0.9,1.8-1.6,1.4-1.6c-0.5,0-0.4-0.6,0.3-1.3c1.2-1.5-0.3-3.7-2.4-3.7
	c-0.7,0-1.5-0.7-1.8-1.5c-0.3-0.8-1.1-1.5-1.6-1.5c-0.6,0-2.3-1.1-3.8-2.5c-1.5-1.4-3.2-2.5-3.9-2.5s-1.4-0.7-1.7-1.5
	c-0.3-0.8-1.1-1.5-1.7-1.5c-0.6,0-1.7-0.7-2.3-1.5C2953.9,149.5,2953.1,149.3,2952.5,149.9 M1114.2,181.3l-0.2,24.8l3.3-1.7
	c5.4-2.8,4.9-3.1-1-0.7c-0.9,0.4-1.3-4.9-1.5-23.3l-0.3-23.9L1114.2,181.3 M1209,201.7c-0.3,13.3-0.2,23.9,0.3,23.4
	c0.4-0.4,0.6-11.3,0.5-24.2l-0.3-23.4L1209,201.7 M1156.4,227.5c0,13.2,0.1,18.5,0.3,11.7c0.2-6.8,0.2-17.6,0-24
	C1156.6,208.8,1156.4,214.3,1156.4,227.5 M1114.4,248.5c0,13.2,0.1,18.5,0.3,11.7c0.2-6.8,0.2-17.6,0-24
	C1114.6,229.8,1114.4,235.3,1114.4,248.5"/>
<path class="st5" d="M3024,74.6c-1.4,1.5-1.9,2.4-1.2,1.9c1.1-0.6,1.1-0.4,0.1,1.3c-0.7,1.1-1.6,1.8-2.1,1.6
	c-0.4-0.3-0.5,0.3-0.1,1.2c0.4,1.2,0.3,1.5-0.5,1c-0.8-0.5-0.9-0.2-0.5,1c0.5,1.3,0.3,1.5-0.8,0.9c-0.8-0.5-1.1-0.5-0.8-0.1
	c0.9,1-1.1,6.7-2.2,6.1c-1-0.6-2.2,2.4-1.5,3.6c0.3,0.5,0.1,0.9-0.6,0.9s-0.8,0.4-0.5,1s0.1,1-0.5,1c-0.6,0-0.9,0.7-0.6,1.6
	c0.4,1,0.2,1.3-0.6,0.8c-0.8-0.5-0.9-0.2-0.5,0.9c0.4,0.9,0.2,1.7-0.4,1.7c-0.6,0-0.8,0.4-0.4,1s0.1,1-0.5,1c-0.6,0-0.9,0.7-0.6,1.6
	c0.4,1,0.2,1.3-0.5,0.9c-0.7-0.4-0.9-0.1-0.7,0.7c0.3,0.8-0.2,2-0.9,2.8s-1.2,2-0.9,2.8c0.3,0.8,0.1,1.4-0.4,1.4c-1,0-5,8.5-5,10.6
	c0,0.8-0.3,1.4-0.8,1.4c-0.9,0-3.8,6.1-3.5,7.3c0.1,0.4-0.3,0.8-0.9,0.8c-0.6,0-0.9,0.3-0.6,0.6c0.3,0.3,0.2,1.1-0.4,1.8
	c-1.8,2.1-10.1,17.1-10.2,18.4c0,0.7-0.4,1.3-0.8,1.3s-1.5,1.2-2.4,2.6c-1.2,1.8-1.3,2.4-0.4,1.9c0.7-0.4,0.2,0.2-1.1,1.4
	c-1.4,1.1-2.1,2.1-1.6,2.1c0.5,0,0.1,0.7-1,1.6c-1.1,0.9-1.3,1.3-0.6,0.9c0.8-0.4,0.3,0.7-0.9,2.4c-2.2,3-3.8,4.4-2.4,2
	c0.4-0.7,0.3-0.9-0.5-0.4c-0.6,0.4-1,1-0.7,1.4c0.2,0.4-0.5,1.8-1.6,3.2s-1.7,1.8-1.3,1c0.4-0.8,0.4-1.2-0.1-0.7
	c-1.2,1.1-1.7,5-0.5,4.2c0.6-0.4,0.7,0.1,0.4,1c-0.4,1.1-0.9,1.3-1.3,0.5c-0.4-0.7-4,2.2-9.3,7.4c-4.7,4.7-8,8.5-7.3,8.5
	c2,0,10.7,8,10,9.3c-0.3,0.6,0.2,0.3,1.1-0.8c1.2-1.5,1.6-1.6,1.1-0.4c-0.3,0.9,0.1,2.6,0.9,3.8c0.8,1.2,1.2,2.6,0.8,3.3
	c-0.4,0.7-0.3,0.9,0.4,0.5c1-0.6,2.9,2.9,2.4,4.6c-0.1,0.4,0.3,0.8,0.9,0.8s0.8,0.4,0.4,1s-0.1,1,0.5,1s0.8,0.4,0.5,1s-0.1,1,0.5,1
	s0.8,0.4,0.5,1s-0.1,1,0.6,1c0.7,0,0.9,0.3,0.6,0.6c-0.3,0.3-0.1,1.6,0.5,2.8c0.6,1.2,1.1,2.5,1,2.9c-0.1,0.4,0.2,0.8,0.8,0.8
	s0.9,0.3,0.8,0.8c-0.5,1.6,4.5,13.2,5.5,12.6c0.6-0.4,0.7,0.2,0.3,1.6c-0.5,1.7-0.4,2.1,0.6,1.5c0.9-0.5,1.1-0.3,0.7,0.6
	c-0.4,1,0.2,1.4,1.7,1.4c1.3,0,2-0.4,1.7-0.9c-0.3-0.5,0.3-0.6,1.3-0.2c1.9,0.7,1.9,0.6,0-0.8c-1.4-1.1-1.5-1.5-0.5-1.5
	c1.2,0,1.2-0.2-0.1-1c-1.1-0.7-1.1-1-0.2-1c0.7,0,1.1-0.4,0.7-0.9c-0.3-0.5,0.1-1.6,1-2.5c1.2-1.2,1.2-1.6,0.3-1.6
	c-1.1,0-1.1-0.2,0-0.9c1.2-0.7,1.2-0.9,0-1.4c-1.1-0.4-1.1-0.6-0.1-0.6c0.7,0,1.1-0.5,0.7-1c-0.3-0.5,0.1-1.6,0.9-2.4
	c0.9-0.9,1.1-1.8,0.5-2.1c-1.6-1-1.2-2.3,0.7-2.8c1.5-0.4,1.5-0.5-0.2-0.6c-1.9-0.1-1.9-0.1,0-1.9c2-1.9,3.2-4.8,1.4-3.8
	c-0.6,0.3-1,0.2-1-0.4s0.4-1.1,1-1.1s1-0.9,1-2s0.5-2,1.1-2c0.7,0,0.6-0.6-0.3-1.7c-1.1-1.3-1.1-1.8-0.1-2.1
	c0.7-0.2,1.3-1.2,1.3-2.3s0.6-2.1,1.3-2.3c0.9-0.4,0.9-0.8-0.3-1.6c-1.3-0.9-1.3-1.2-0.1-2c0.8-0.5,1.1-1.6,0.8-2.5
	c-0.4-1.1-0.1-1.6,1.1-1.6c1.5,0,1.5-0.2,0.2-1c-1.3-0.9-1.3-1,0-1s1.3-0.1,0-1c-1.2-0.8-1.2-1-0.1-1c0.9,0,1.2-0.7,0.8-2
	c-0.3-1.2,0-2,0.7-2c0.7,0,1.2-0.7,1.2-1.5c0-0.8-0.4-1.2-0.8-0.9c-1.4,0.9-0.9-0.7,0.7-2.3c1.3-1.3,1.3-1.7,0.3-2.4
	c-1-0.6-0.8-0.8,0.7-0.9c1.5,0,1.7-0.2,0.6-0.9c-1.2-0.7-1.2-0.9,0-1.4c1.1-0.4,1.1-0.6,0-0.6c-1-0.1-0.9-0.5,0.3-1.7
	c1.3-1.3,1.4-1.8,0.3-2.5c-1-0.6-0.8-0.8,0.7-0.9c1.7,0,1.7-0.2,0.5-1c-1.2-0.8-1.2-1,0.5-1.1l2-0.1l-2-0.9
	c-1.1-0.5-1.4-0.9-0.6-0.9c0.9,0,1.2-0.8,0.8-2.1c-0.4-1.4,0-2,1.1-2c1.3,0,1.4-0.2,0.3-0.9c-1.2-0.7-1.2-0.9,0-1.4
	c1.1-0.4,1.1-0.6,0-0.6c-1-0.1-0.9-0.5,0.3-1.7c1.3-1.3,1.4-1.8,0.3-2.5c-1-0.6-0.8-0.8,0.7-0.9c1.7,0,1.7-0.2,0.5-1
	c-1.2-0.8-1.2-1,0.5-1.1l2-0.1l-2-0.9c-1.1-0.5-1.5-0.9-0.8-0.9c0.7,0,1-1,0.8-2.1c-0.3-1.4,0.2-2,1.3-2c1.5,0,1.5-0.1,0.2-1
	c-1.3-0.9-1.3-1,0-1s1.3-0.1,0-1s-1.3-1,0-1s1.3-0.1,0-1c-1.1-0.7-1.1-1-0.2-1c0.7,0,1-0.5,0.7-1s0.2-1,1.2-1c1.5,0,1.6-0.2,0.3-1
	c-1.2-0.8-1.2-1,0.5-1.1l2-0.1l-2-0.9c-1.3-0.6-1.5-0.9-0.5-0.9c1.3-0.1,1.3-0.2,0-1.1c-1.1-0.7-1.1-1-0.2-1c0.7,0,1.1-0.4,0.7-0.9
	c-0.3-0.5,0.1-1.6,1-2.5c1.2-1.2,1.2-1.6,0.3-1.6c-1.1,0-1.1-0.2,0-0.9c1.2-0.7,1.2-0.9,0-1.4c-1.1-0.4-1.1-0.6-0.1-0.6
	c0.7,0,1.1-0.5,0.7-1c-0.3-0.5,0.1-1.6,1-2.5c1.2-1.2,1.2-1.6,0.3-1.6c-1.1,0-1.1-0.2,0-0.9c1.2-0.7,1.2-0.9,0-1.4
	c-1.1-0.4-1.1-0.6-0.1-0.6c0.7,0,1.1-0.5,0.7-1c-0.3-0.5,0.1-1.6,1-2.5c1.2-1.2,1.2-1.6,0.3-1.6c-1.1,0-1.1-0.2,0-0.9
	c1.2-0.7,1.2-0.9,0-1.4c-1.1-0.4-1.1-0.6-0.1-0.6c0.7,0,1.1-0.5,0.7-1c-0.3-0.5,0.1-1.6,1-2.5c1.2-1.2,1.2-1.6,0.3-1.6
	c-1,0-0.9-0.3,0.2-1c1.3-0.9,1.3-1,0-1c-1,0-1.1-0.3-0.4-0.8c0.6-0.4,1-1.5,0.8-2.5c-0.1-1,0.3-1.8,1-1.8c0.7,0,1.2-0.7,1.2-1.5
	s-0.4-1.2-0.8-0.9c-0.5,0.3-0.8,0-0.8-0.5s0.5-1.1,1.1-1.1c0.6,0,0.9-0.9,0.6-2c-0.4-1.4,0-2,1.1-2c0.9,0,1.2-0.3,0.7-0.8
	c-1.3-1-1.7-3.2-0.6-3.2c0.5,0,0.8-0.9,0.6-2c-0.2-1.2,0.2-2,0.9-2c0.7,0,1.3-0.7,1.3-1.5s-0.4-1.2-0.8-0.9c-0.5,0.3-0.8,0-0.8-0.5
	s0.5-1.1,1.1-1.1c0.6,0,0.9-0.9,0.6-2c-0.3-1.1-0.2-2,0.3-2c0.4,0,1.1-0.8,1.5-1.7c0.4-0.9,0.3-1.4,0-1c-0.4,0.4-1.2,0-1.8-0.8
	C3026.6,72.1,3026.1,72.2,3024,74.6 M3057.8,130.9c1.7,1,1.7,2.1,0.1,3.2c-1,0.6-1,1.1,0,2.4c1.1,1.3,1,1.6-0.6,1.6
	c-1.4,0-1.5,0.2-0.5,0.9c1.1,0.7,1,1.2-0.3,2.5c-1.3,1.3-1.4,2-0.5,3.1c1,1.2,0.8,1.5-1.2,1.5c-1.3,0-1.9,0.3-1.4,0.8
	c1.4,1,1.7,3.2,0.5,3.2c-0.6,0-1,0.7-1,1.6c0,0.9,0.4,1.3,1,0.9s1-0.1,1,0.4s-1,1.1-2.3,1.1s-1.7,0.3-1,0.6c0.7,0.3,1,1,0.6,1.6
	c-0.4,0.7-0.1,0.8,1,0.4c1-0.4,1.5-0.3,1.1,0.3c-0.3,0.5-1.3,1-2.1,1c-1.8,0-1.9,1.2-0.2,2.8c0.9,0.9,0.7,1.2-1.3,1.3
	c-1.3,0-1.9,0.3-1.2,0.6c0.7,0.3,1,1,0.6,1.6c-0.4,0.7-0.1,0.8,1,0.4c1-0.4,1.5-0.3,1.1,0.3c-0.3,0.5-1.2,1-1.9,1
	c-0.7,0-1.3,0.7-1.3,1.5c0,0.8,0.3,1.2,0.8,1c0.4-0.3,1,0,1.4,0.5c0.4,0.6-0.5,1-2.2,1.1c-1.5,0-2.2,0.3-1.6,0.6
	c0.7,0.3,1,1,0.6,1.6c-0.4,0.7-0.1,0.8,1,0.4c1-0.4,1.5-0.3,1.1,0.3c-0.3,0.5-1.3,1-2.1,1c-1.8,0-1.9,1.2-0.2,2.8
	c0.8,0.8,0.8,1.2,0.1,1.2c-0.6,0-1.4,0.7-1.7,1.6c-0.4,1.2-0.2,1.4,0.9,1c0.9-0.3,1.3-0.2,1,0.4c-0.3,0.5-1.4,1-2.3,1
	c-1.5,0-1.5,0.1-0.2,1c1,0.6,1.1,1,0.3,1c-0.7,0-1.3,0.5-1.3,1c0,0.5,0.8,0.7,1.8,0.3c1.2-0.4,0.9,0.1-0.8,1.6
	c-1.8,1.6-2,2.1-0.7,1.7c1.1-0.3,1.5-0.2,1.2,0.4c-0.3,0.5-1.4,1-2.3,1c-1.5,0-1.5,0.1-0.2,1c1,0.6,1.1,1,0.3,1
	c-0.7,0-1.3,0.5-1.3,1.2c0,0.6,0.3,0.9,0.7,0.5s1.3-0.1,2.2,0.6c1.3,1,1.4,1,0.7-0.2c-0.6-1.1-0.4-1.3,0.8-0.8
	c0.9,0.4,1.7,0.2,1.7-0.4c0-0.6,0.4-0.8,1-0.4s1,0.1,1-0.5c0-0.6,1-0.8,2.3-0.5c1.2,0.3,3.8,0.7,5.8,1c1.9,0.2,3.5,0.5,3.5,0.6
	s1.1,0.3,2.5,0.6s3.1,1.2,3.8,2.2c0.7,1,1.5,1.6,1.8,1.5c1.1-0.6,2.5-0.2,2,0.7c-0.3,0.5,0.1,0.8,0.9,0.7c1.9-0.3,2.5-0.9,3.1-3.5
	c0.3-1.2,0.7-3.1,1-4.4c0.3-1.2,0.7-2.7,0.8-3.3c0.1-0.6,0.6-1.6,1.1-2.4c0.6-0.9,0.5-1.2-0.2-0.8c-1.3,0.8-3.4-4.8-2.5-7
	c0.4-1.2,0.3-1.4-0.6-0.8c-1,0.6-1.1,0.2-0.6-1.5c0.5-1.6,0.4-2-0.5-1.5c-0.9,0.5-1,0.2-0.5-1.4c0.4-1.3,0.2-2.1-0.4-2.1
	c-0.6,0-1-0.3-0.9-0.8c0.1-0.4,0-1-0.1-1.3s-0.3-1.3-0.5-2.3c-0.7-3.5-8.9-26.2-9.7-26.5c-0.4-0.2-0.5-1-0.2-1.8
	c0.3-0.8,0.1-1.4-0.5-1.4s-0.8-0.7-0.4-1.7c0.5-1.2,0.3-1.4-0.7-0.8c-1,0.6-1.2,0.3-0.8-1.1c0.4-1.5,0-2-1.6-2.1
	C3057.2,130.1,3056.9,130.3,3057.8,130.9"/>
<path class="st6" d="M223.2,115c-0.1,13.5-0.5,25.6-0.8,27l-0.5,2.5l1-2.4c0.7-1.5,0.9-11.4,0.8-27l-0.3-24.6L223.2,115 M2618,111.2
	c-12.3,7.1-31.1,18.2-42.5,24.8c-4.4,2.6-9.6,5.6-11.5,6.6c-1.9,1-9.7,5.5-17.3,9.9c-7.6,4.4-15,8.7-16.5,9.5
	c-1.5,0.8-3.3,2.1-4,2.7c-0.7,0.7-2.4,1.5-3.8,1.9c-1.3,0.3-2.4,1-2.4,1.4s-1.5,1.4-3.3,2.1c-1.8,0.7-3.7,1.7-4.3,2.2
	c-0.6,0.5-2.7,1.9-4.8,3.1l-3.8,2.3l4.4,4.5c2.4,2.5,7.1,5.8,10.3,7.4c5.1,2.5,7.1,2.9,14,2.9c6.6,0,8.9-0.5,13-2.5
	c2.7-1.4,5.5-3.1,6.3-3.7c0.7-0.7,1.9-1.6,2.6-2c0.7-0.4,2.2-2.2,3.5-4l2.2-3.2l-9.8-5.7c-13.9-8.1-18-10.7-16-10
	c1,0.3,22.5,12.5,47.7,27.1s46.4,26.5,46.9,26.5c2.2,0,2.5-7.5,2.5-55c0-46-0.4-55.1-2.3-55C2628.8,105.1,2623.8,107.8,2618,111.2
	 M2584,152.5c0,3.4-0.1,3.5-4,3.5h-4v4v4h4h4v4v4h4h4v-4c0-3.9,0.1-4,3.5-4s3.5-0.1,3.5-4s-0.1-4-3.5-4c-3.3,0-3.5-0.2-3.5-3.5
	c0-3.4-0.1-3.5-4-3.5S2584,149.1,2584,152.5 M2611,152.5c0,3.3-0.2,3.5-3.5,3.5c-3.4,0-3.5,0.1-3.5,4s0.1,4,3.5,4
	c3.4,0,3.5,0.1,3.5,4.1v4.1l4.3-0.3c4.1-0.3,4.3-0.4,4.6-4.1c0.3-3.5,0.5-3.8,3.8-3.8c3.3,0,3.4-0.1,3.4-4c0-3.9-0.1-4-3.5-4
	c-3.3,0-3.5-0.2-3.5-3.5c0-3.5,0-3.5-4.5-3.5S2611,149,2611,152.5 M3936.4,150.3c-0.3,0.7-0.4,6-0.2,11.8l0.3,10.4l12.8,0l12.8,0
	l-12.6-0.3l-12.6-0.3l0.3-11.5c0.2-6.3,0.2-11.5,0-11.5C3937.1,149,3936.7,149.6,3936.4,150.3 M169.3,157.7c6.5,0.2,17,0.2,23.5,0
	c6.5-0.2,1.2-0.3-11.8-0.3S162.8,157.6,169.3,157.7 M2471,196.3c-1.4,0.6-2.7,1.4-3,1.8c-0.3,0.3-3,1.9-6,3.5
	c-3,1.6-6.1,3.5-6.8,4.2c-0.7,0.7-2.4,1.5-3.8,1.9c-1.3,0.3-2.4,1-2.4,1.4c0,0.5-1.6,1.4-3.5,2.1s-3.5,1.6-3.5,1.9
	c0,0.4-1.1,1.2-2.5,1.8c-3.1,1.4-3.1,2.6-0.3,5.1c1.2,1.1,3.3,2.9,4.7,4c1.3,1.1,3,2.1,3.7,2.1c0.7,0,1.9,0.6,2.6,1.3
	c0.7,0.7,2.8,1.9,4.6,2.6s3.3,1.6,3.3,2c0,0.4,1.6,1.2,3.5,1.9s3.5,1.7,3.5,2.2c0,0.5,0.6,0.9,1.4,0.9c0.8,0,2,0.6,2.8,1.3
	c0.7,0.7,2.8,1.9,4.6,2.6s3.3,1.6,3.3,2c0,0.4,1.6,1.2,3.5,1.9s3.5,1.7,3.5,2.2c0,0.5,0.6,0.9,1.3,0.9s2.4,0.9,3.7,2s2.9,2,3.6,2
	c0.7,0,1.9,0.6,2.6,1.3c0.7,0.7,2.8,1.9,4.6,2.6c1.8,0.7,3.3,1.6,3.3,2c0,0.4,1.6,1.2,3.5,1.9c1.9,0.7,3.5,1.7,3.5,2.2
	c0,0.5,0.6,0.9,1.3,0.9s2.4,0.9,3.7,2s2.9,2,3.6,2c0.7,0,1.9,0.6,2.6,1.3c2.2,2.2,9.5,4,13.5,3.5c2.1-0.3,7.2-2.5,11.3-5
	s10-5.8,13-7.5c3-1.7,14.9-8.5,26.3-15.2c11.4-6.7,20.9-12.1,21.1-12.1c1.1,0,17.6-10.6,19.8-12.7l2.7-2.6l-18.9-10.8
	c-10.4-6-19.3-10.8-19.7-10.8c-0.5,0-1.7,1.5-2.8,3.3c-2.8,4.9-12.6,14.2-19.7,18.7c-3.4,2.2-9.9,5.2-14.3,6.7
	c-7.2,2.4-9.5,2.7-21.6,2.7c-12,0-14.4-0.3-21.4-2.7c-8.2-2.8-14.5-6.1-15.9-8.4c-0.4-0.7-1.3-1.3-2-1.3c-0.7,0-1.8-0.9-2.5-2
	s-1.8-2-2.6-2c-1.6,0-5.7-4.2-5.7-5.8c0-0.6-0.9-1.6-2-2.2s-2-1.7-2-2.5c0-0.8-0.4-1.5-1-1.5s-1-0.7-1-1.5
	C2476,194.7,2474.5,194.7,2471,196.3 M3996.1,207.2c0.6,1.2,6.1,10.5,12.2,20.8c6.1,10.2,11.2,18.9,11.4,19.3s-8.6,0.8-19.6,0.8h-20
	l-6.1-11.5c-3.4-6.3-6.4-11.5-6.6-11.5c-0.6,0,10.3,20.8,11.9,22.8c1.3,1.6,41.8,1.8,41.8,0.3c0-0.5-2.9-5.7-6.4-11.4
	c-3.5-5.7-7.3-11.9-8.3-13.8c-3.4-6.3-10.5-17.9-10.9-17.9C3995.1,205,3995.5,206,3996.1,207.2 M3899.2,236.8L3899,249l18.8-0.2
	l18.8-0.2l-18.2-0.3l-18.2-0.3l-0.3-11.7l-0.3-11.7L3899.2,236.8"/>
<path class="st7" d="M2530,49.1c0,0.6-0.9,0.9-2,0.6c-1.1-0.3-2-0.2-2,0.3c0,0.9-6.1,3.6-7.3,3.3c-0.4-0.1-0.8,0.2-0.8,0.7
	s-1.4,1.7-3,2.5s-3,1.3-3,1c0-0.3-0.9,0.4-2,1.5c-1.1,1.1-2.5,1.8-3,1.4c-0.5-0.3-1,0-1,0.6c0,0.7-0.3,1-0.6,0.6s-1.5,0.3-2.5,1.4
	c-1.1,1.1-2.4,1.7-2.9,1.4c-0.5-0.3-1-0.1-1,0.4c0,1.3-5.5,4.2-6.4,3.4c-0.3-0.3-0.6-0.1-0.6,0.5c0,0.6-1.4,1.8-3,2.7s-3,1.3-3,1
	s-0.9,0.4-2,1.5c-1.1,1.1-2.5,1.8-3,1.4c-0.5-0.3-1,0-1,0.6c0,0.7-0.3,1-0.6,0.6c-0.3-0.3-1.5,0.3-2.5,1.4c-1.1,1.1-2.4,1.7-2.9,1.4
	c-0.5-0.3-1-0.1-1,0.4c0,1.3-5.5,4.2-6.4,3.4c-0.3-0.3-0.6-0.1-0.6,0.5c0,0.6-1.4,1.8-3,2.7s-3,1.3-3,1s-0.9,0.4-2,1.5
	c-1.1,1.1-2.5,1.8-3,1.4c-0.5-0.3-1,0-1,0.6c0,0.7-0.3,1-0.6,0.6c-0.3-0.3-1.5,0.3-2.5,1.4c-1.1,1.1-2.4,1.7-2.9,1.4
	c-0.5-0.3-1-0.1-1,0.4c0,1-5.9,4.6-7.1,4.4c-0.3-0.1-1.7,2-3,4.5c-1.3,2.6-2.7,4.9-2.9,5.2c-0.9,0.9-0.5,103,0.4,103
	c0.5,0,0.6,0.6,0.3,1.4c-0.9,2.2,2,2.7,4.5,0.7c1.3-1,3.3-2.1,4.6-2.5c1.2-0.4,2-1.1,1.7-1.6c-0.3-0.5,0.1-0.9,1-0.9
	c0.9,0,1.6-0.4,1.6-1c0-0.5,0.6-0.7,1.4-0.4c0.8,0.3,2-0.1,2.8-0.8c0.8-0.7,2.5-1.9,3.9-2.6c7.7-3.9,9-4.8,8.4-5.5
	c-0.4-0.4,0-0.7,1-0.7c0.9,0,1.7-0.5,1.7-1.1s0.4-0.8,1-0.4c0.5,0.3,1.8,0.2,2.8-0.4c1-0.6,1.3-1,0.8-1.1s-0.4-0.4,0.3-0.9
	c1-0.6,0.7-2.1-1.3-6.5c-1.4-3.1-2.3-6.1-2-6.6c0.3-0.5,0-1.1-0.6-1.3c-0.6-0.2-1.2-2.1-1.3-4.1c0-2-0.5-3.7-1-3.7
	c-0.5,0-0.6-2.3-0.2-5c0.4-3.2,0.3-5-0.4-5c-0.6,0-1-0.7-1-1.5s0.5-1.5,1.1-1.5c0.7,0,0.9-1.6,0.4-5c-0.5-3.4-0.3-5,0.4-5
	c0.7,0,0.9-1,0.5-2.5c-0.4-1.5-0.2-2.5,0.4-2.5c0.6,0,0.8-0.7,0.5-1.5c-0.3-0.8-0.1-1.5,0.5-1.5c0.6,0,0.8-0.7,0.5-1.5
	c-0.3-0.8-0.1-1.5,0.5-1.5c0.6,0,0.8-0.7,0.5-1.5c-0.3-0.8-0.1-1.5,0.6-1.5c0.6,0,0.9-0.4,0.5-1s-0.1-1,0.5-1s0.8-0.4,0.5-1
	s-0.1-1,0.5-1s0.8-0.4,0.5-1s-0.1-1,0.5-1s0.9-0.4,0.5-1c-0.3-0.5,0.3-1.9,1.4-3c1.1-1.1,1.7-2.1,1.3-2.1c-0.4,0,0.3-0.9,1.6-2
	c1.3-1.1,2-2,1.5-2s2.7-3.4,7-7.6c4.3-4.2,8-7.4,8.3-7.1c0.3,0.3,1.4-0.4,2.4-1.5c1.1-1.1,2.4-1.7,2.9-1.4c0.5,0.3,1,0.1,1-0.5
	s0.4-0.8,1-0.5s1,0.1,1-0.5s0.4-0.8,1-0.5s1,0.1,1-0.5s0.4-0.8,1-0.5s1,0.1,1-0.5c0-0.6,0.6-1,1.2-0.7c0.7,0.2,1.9-0.2,2.6-1
	c0.8-0.8,2.2-1.2,3.3-0.9c1,0.3,1.9,0,1.9-0.5c0-0.6,1.1-0.7,2.5-0.4c1.6,0.4,2.5,0.2,2.5-0.5c0-0.8,1.4-0.9,4.6-0.4
	c3.4,0.5,4.9,0.3,5.6-0.6c0.7-1.1,1-1.1,1.5-0.1c0.4,0.9,1.9,1.1,5.4,0.6c3.4-0.5,4.9-0.3,4.9,0.5c0,0.7,0.9,0.9,2.5,0.5
	c1.6-0.4,2.5-0.2,2.5,0.5c0,0.7,0.8,0.9,2,0.5c1.2-0.4,2-0.2,2,0.5c0,0.6,0.5,0.8,1,0.5c1.3-0.8,14,5.1,14,6.5
	c0,0.6,0.4,0.9,0.9,0.5c0.5-0.3,1.4,0.2,2,1.2c0.6,1,1,1.3,1.1,0.8c0-0.5,1.3,0.4,2.8,2.1c1.5,1.7,2.1,2.2,1.3,1.2
	c-2.8-3.6-0.4-1.7,5.4,4.4c3.3,3.4,5,5.6,3.9,4.8c-1.1-0.8-0.7-0.2,1,1.4c1.7,1.6,2.4,2.5,1.6,2.1c-0.8-0.4-0.4,0.3,1,1.6
	c1.4,1.3,1.9,1.9,1,1.4c-1.3-0.8-1.4-0.8-0.3,0.6c0.7,0.9,0.9,2,0.5,2.5c-0.4,0.5,0.2,0.1,1.3-0.8c1.1-1,2.6-1.7,3.3-1.7
	c0.6,0,1.2-0.4,1.2-0.9c0-0.5,1.6-1.4,3.5-2.1s3.5-1.5,3.5-2s1.6-1.4,3.5-2s3.5-1.6,3.5-2.1c0-0.5,0.6-0.9,1.3-0.9s2.4-0.9,3.7-2
	s2.9-2,3.7-2c0.8,0,1.1-0.4,0.8-1c-0.4-0.6,0.1-0.7,0.9-0.4c0.9,0.3,1.6,0.1,1.6-0.4c0-0.6,1.6-1.5,3.5-2.2c3.4-1.1,4.6-3.2,2.5-4.5
	c-0.6-0.3-0.7-1.1-0.3-1.7c0.4-0.6,0.2-0.8-0.4-0.4c-0.6,0.3-2.3-0.6-3.9-2c-1.6-1.5-2.9-2.5-2.9-2.3s-1,0-2.3-0.4
	c-1.3-0.4-2-1.2-1.6-1.9c0.4-0.6,0.3-0.9-0.1-0.5c-1,0.9-6.5-1.9-6.5-3.4c0-0.6-0.3-0.9-0.6-0.5c-0.8,0.8-6.4-2.1-6.4-3.3
	c0-0.5-0.3-0.9-0.8-0.8c-1.6,0.4-5.3-1.4-4.7-2.3c0.3-0.5,0.2-0.8-0.2-0.7c-1.7,0.5-7.3-2.5-6.7-3.6c0.4-0.6,0.3-0.8-0.1-0.4
	c-1,0.9-6.5-1.9-6.5-3.4c0-0.6-0.3-0.9-0.6-0.5c-0.8,0.8-6.4-2.1-6.4-3.3c0-0.5-0.3-0.9-0.8-0.8c-1.6,0.4-5.3-1.4-4.7-2.3
	c0.3-0.5,0.2-0.8-0.2-0.7c-1.7,0.5-7.3-2.5-6.7-3.6c0.4-0.6,0.3-0.8-0.1-0.4c-1,0.9-6.5-1.9-6.5-3.4c0-0.6-0.3-0.9-0.6-0.5
	c-0.8,0.8-6.4-2.1-6.4-3.3c0-0.5-0.3-0.9-0.8-0.8c-1.6,0.4-5.3-1.4-4.7-2.3c0.3-0.5,0.2-0.9-0.2-0.8c-1.5,0.3-10.3-2.5-10.3-3.3
	c0-0.4-0.9-0.8-2-0.8S2530,48.5,2530,49.1 M1497.5,189.5c0,46.8,0.1,65.7,0.3,42.2c0.1-23.6,0.1-61.8,0-85
	C1497.6,123.5,1497.5,142.8,1497.5,189.5 M4022.3,125.2c3,5.2,6.1,14.4,5.3,15.6c-0.3,0.5,0,1.2,0.7,1.4c0.7,0.3-0.3,0.5-2.2,0.6
	c-2.6,0.1-3.1,0.3-2,1.1c1.2,0.8,1,1-1,1s-2.2,0.2-1,1c1.2,0.8,0.9,1-1.3,1c-2.8,0-3.9-2.4-1.5-3.3c0.9-0.3,0.8-0.5-0.3-0.6
	c-0.8-0.1-2.8-2.8-4.4-6c-1.6-3.3-3.5-6.5-4.4-7.2c-0.8-0.7-0.1,1,1.6,3.8c4.5,7.2,6.5,16.2,5.9,25.4c-0.6,7.9-3.2,17.6-5.4,19.8
	c-0.7,0.7-1.3,2-1.3,2.8c0,0.8-0.7,1.7-1.5,2c-0.8,0.3-1.5,1.2-1.5,1.9c0,1.5-9.4,9.3-12.8,10.6c-2.4,0.9-2.9,2.4-1.2,3.4
	c0.6,0.3,0.8,1,0.5,1.5s0.4,1.1,1.5,1.5c2.1,0.7,5.9-1.5,9.4-5.4c1-1.2,2.3-2.1,2.8-2.1c1.3,0,3.8-2.8,9.1-10c2.6-3.6,5.2-7,5.8-7.7
	c0.6-0.7,0.7-1.3,0.2-1.3c-0.4,0-0.2-0.4,0.5-0.9c0.7-0.5,1.4-1.5,1.6-2.2c0.2-0.8,0.6-2.1,0.9-2.9c4.4-11.1,4.9-22.8,1.6-33.6
	c-1.9-6.3-6.4-15.4-7.6-15.4C4020,121,4020.9,122.9,4022.3,125.2 M2530,128.1c0,0.7-1.2,0.9-3,0.7c-1.6-0.2-3,0-3,0.5
	c0,0.5-0.7,0.7-1.5,0.4c-0.8-0.3-1.5-0.1-1.5,0.5c0,0.6-0.5,0.9-1.2,0.7c-1.4-0.5-2.8,0.7-10.9,8.4c-3.2,3.1-5.6,5.9-5.3,6.3
	c0.3,0.3,0.2,0.6-0.3,0.6c-0.5,0-1,1.2-1.1,2.7c-0.1,1.5-0.6,2.9-1,3s-0.7,1.9-0.5,3.8c0.2,2.1,0,3.5-0.7,3.5
	c-0.6,0-1.1,0.7-1.1,1.5s0.5,1.5,1.1,1.5c0.7,0,1,1.4,0.7,3.5c-0.2,1.9,0,3.5,0.5,3.5c0.5,0,0.7,0.6,0.4,1.4
	c-0.3,0.8-0.1,1.6,0.4,1.8c0.5,0.2,1.1,1.1,1.2,2c0.1,0.9,0.6,2.1,1.1,2.5c0.5,0.4,0.5,0.2,0.1-0.5c-0.5-0.8-0.1-1.3,1.2-1.3
	c1.1,0,3-0.8,4.3-1.9c1.3-1,3.4-2.2,4.6-2.6c1.2-0.4,2-1.1,1.7-1.6c-0.3-0.5,0.1-0.9,1-0.9c0.9,0,1.6-0.5,1.6-1.1s0.4-0.8,0.9-0.5
	c1.3,0.8,4.2-0.5,3.5-1.5c-0.3-0.5,0.3-0.9,1.4-0.9c1.1,0,3.6-1.1,5.6-2.5c2-1.4,4-2.5,4.5-2.5c0.4,0,1.8-0.9,3.1-2s2.9-2,3.7-2
	s1.3-0.4,1.3-0.9c0-0.5,1.6-1.4,3.5-2.1s3.5-1.5,3.5-2c0-0.5,1.4-1.3,3-1.9c3.9-1.4,6.1-3.6,5.8-5.9c-0.4-2.4-8.3-8.9-13.5-11
	c-2.4-1-4.3-2-4.3-2.3c0-0.3-1.6-0.4-3.5-0.1c-2.1,0.3-3.5,0-3.5-0.7c0-0.6-0.9-1.1-2-1.1S2530,127.5,2530,128.1 M1068.2,174.3
	c0.2,31.1,0.5,27.6,1-11c0.1-11.1-0.1-20.3-0.5-20.3C1068.3,143,1068.1,157.1,1068.2,174.3 M1097.5,215c0,32.2,0.1,45.3,0.3,29.3
	c0.2-16.1,0.2-42.4,0-58.5C1097.6,169.7,1097.5,182.8,1097.5,215 M3953.5,207.6c-1.6,0.2-5.7,0.6-9.1,0.9l-6.1,0.6l-0.2,7.1
	c-0.1,3.9-0.4,7.5-0.7,7.9c-0.6,1,1,1,6.6-0.3c2.5-0.6,5.5-1,6.7-1c1.2,0,2.5-0.4,2.8-0.9c0.3-0.5,1.2-0.7,1.9-0.4
	c0.8,0.3,1.7,0.1,2-0.5c0.3-0.6,1.2-0.8,1.9-0.6c0.7,0.2,1.9,0,2.7-0.5c1.3-0.8,1.2-1.1-0.4-2.3c-1-0.8-2-2.6-2.2-4.2
	c-0.2-1.5-0.8-3.3-1.5-3.9c-0.9-0.9-0.9-0.6,0,1.4c1.1,2.4,1.1,2.4-0.4,0.5c-0.9-1.1-1.4-2.5-1.1-3.3c0.3-0.7,0.4-1.2,0.3-1.1
	C3956.6,207.2,3955.1,207.5,3953.5,207.6 M3011.4,336.5c0,12.6,0.1,17.7,0.3,11.2c0.2-6.5,0.2-16.8,0-23
	C3011.6,318.5,3011.4,323.9,3011.4,336.5 M3899.4,341.5c0,14.3,0.1,20,0.3,12.7c0.2-7.3,0.2-19,0-26
	C3899.6,321.2,3899.4,327.2,3899.4,341.5 M2975.4,342.5c0,12.6,0.1,17.7,0.3,11.2c0.2-6.5,0.2-16.8,0-23
	C2975.6,324.5,2975.4,329.9,2975.4,342.5"/>
<path class="st8" d="M2066,48.9c0,0.5-1.6,1.4-3.5,2.1s-3.5,1.5-3.5,2s-1.6,1.4-3.5,2s-3.5,1.5-3.5,2s-1.6,1.4-3.5,2s-3.5,1.5-3.5,2
	s-1.6,1.4-3.5,2s-3.5,1.5-3.5,2s-1.6,1.4-3.5,2s-3.5,1.5-3.5,2s-1.6,1.4-3.5,2s-3.5,1.5-3.5,2s-1.6,1.4-3.5,2s-3.5,1.5-3.5,2
	s-1.6,1.4-3.5,2s-3.5,1.5-3.5,2s-1.6,1.4-3.5,2s-3.5,1.5-3.5,2s-1.6,1.4-3.5,2s-3.5,1.5-3.5,2s-1.6,1.4-3.5,2s-3.5,1.5-3.5,2
	s-1.6,1.4-3.5,2s-3.5,1.5-3.5,2c0,0.5-1.3,1.3-2.9,1.8c-1.6,0.6-4.1,2-5.5,3.3l-2.6,2.3v23.3c0,14.4,0.4,23.5,1,23.9
	c0.6,0.3,1,0.1,1-0.4s0.6-1.1,1.4-1.1c0.8,0,2-0.6,2.8-1.3c0.7-0.7,2.8-1.9,4.6-2.6s3.3-1.6,3.3-2c0-0.4,1.6-1.2,3.5-1.9
	s3.5-1.7,3.5-2.2c0-0.5,0.6-0.9,1.4-0.9c0.8,0,2-0.6,2.8-1.3c0.7-0.7,2.8-1.9,4.6-2.6s3.3-1.6,3.3-2c0-0.4,1.6-1.2,3.5-1.9
	s3.5-1.6,3.5-2c0-0.4,1.6-1.3,3.5-2s3.5-1.7,3.5-2.2c0-0.5,0.6-0.9,1.4-0.9c0.8,0,2.1-0.7,2.9-1.5c0.8-0.8,2.6-1.7,4.1-2.1l2.6-0.7
	l0,64.9c0,35.7,0.3,65.4,0.8,66c0.4,0.6,1.7,1.4,3,1.8c1.2,0.4,2.3,1.1,2.3,1.6s1.6,1.4,3.5,2c1.9,0.6,3.5,1.5,3.5,2s1.6,1.4,3.5,2
	s3.5,1.5,3.5,2s1.1,1.1,2.5,1.4s2.5,1,2.5,1.5c0,0.5,1.6,1.4,3.5,2.1s3.5,1.6,3.5,2.1c0,0.5,0.6,0.9,1.4,0.9c0.8,0,2.1,0.7,3,1.6
	c1.4,1.4,1.6-8.7,1.6-111c0-61.9-0.2-112.6-0.5-112.6S2066,48.4,2066,48.9 M2076.7,49.7c-1,1-0.8,221.1,0.3,221.8
	c0.5,0.3,1.5,0,2.3-0.7c0.8-0.7,3.9-2.6,7.1-4.2c3.1-1.6,5.7-3.2,5.7-3.5c0-0.3,1.6-1.2,3.5-1.9c1.9-0.7,3.5-1.7,3.5-2.2
	c0-0.5,0.6-0.9,1.4-0.9c0.8,0,2-0.6,2.8-1.3c0.7-0.7,2.8-1.9,4.6-2.6s3.3-1.7,3.3-2.2c0-0.5,0.7-0.9,1.5-0.9c1.3,0,1.5-4.2,1.5-32
	c0-20.7,0.4-32,1-32c0.6,0,1,0.4,1,0.9c0,0.5,1.1,1.2,2.5,1.5s2.5,1,2.5,1.5c0,0.5,1.6,1.4,3.5,2.1s3.5,1.5,3.5,2s1.6,1.4,3.5,2
	s3.5,1.6,3.5,2.1c0,0.5,0.6,0.9,1.3,0.9s2.4,0.9,3.7,2s2.5,2,2.7,2c0.2,0,0.3-9.6,0.3-21.4v-21.4l-14.5-8.3l-14.5-8.3v-12.8
	c0-7.9,0.4-12.8,1-12.8c0.6,0,1,0.4,1,0.9c0,0.5,1.6,1.4,3.5,2.1s3.5,1.5,3.5,2s1.6,1.4,3.5,2s3.5,1.5,3.5,2c0,0.4,1.1,1.1,2.5,1.4
	s2.5,1,2.5,1.5c0,0.5,1.6,1.4,3.5,2.1s3.5,1.5,3.5,2s1.6,1.4,3.5,2s3.5,1.5,3.5,2s1.6,1.4,3.5,2s3.5,1.6,3.5,2.1
	c0,0.5,0.6,0.9,1.3,0.9s2.4,0.9,3.7,2s2.8,2,3.5,2s2.2,0.9,3.5,2s2.8,2,3.3,2c0.7,0,0.8-8.3,0.4-24.7c-0.4-13.6-0.8-24.7-0.9-24.8
	c-0.1-0.1-19.8-11.3-43.8-25c-23.9-13.6-44.9-25.6-46.6-26.7C2078.7,49.9,2077,49.3,2076.7,49.7 M3027.6,73.5c0.3,0.8,1,1.2,1.5,0.9
	c0.5-0.3,0.6,0.2,0.3,1c-0.3,0.9-1,1.6-1.4,1.6c-0.4,0-0.6,0.9-0.3,2c0.3,1.1,0,2-0.6,2c-0.6,0-1.1,0.5-1.1,1.1s0.4,0.8,0.8,0.5
	c0.5-0.3,0.8,0.1,0.8,0.9s-0.6,1.5-1.3,1.5c-0.7,0-1.1,0.8-0.9,2c0.2,1.1,0,2-0.6,2c-1.2,0-0.8,2.2,0.6,3.2c0.6,0.4,0.3,0.7-0.7,0.8
	c-1.2,0-1.5,0.6-1.1,2c0.3,1.1,0,2-0.6,2c-0.6,0-1.1,0.5-1.1,1.1s0.4,0.8,0.8,0.5c0.5-0.3,0.8,0.1,0.8,0.9s-0.6,1.5-1.2,1.5
	c-0.7,0-1.1,0.8-1,1.8c0.1,1-0.2,2.1-0.8,2.5c-0.7,0.5-0.6,0.7,0.4,0.8c1.3,0,1.3,0.1,0,1c-1.1,0.7-1.2,1-0.2,1c1,0,0.9,0.4-0.3,1.6
	c-0.9,0.9-1.3,2-1,2.5c0.3,0.5,0,0.9-0.7,0.9c-1,0-1,0.2,0.1,0.9c1.2,0.7,1.2,0.9,0,1.4c-1.1,0.4-1.1,0.6,0,0.6
	c1,0.1,0.9,0.5-0.3,1.7c-0.9,0.9-1.3,2-1,2.5c0.3,0.5,0,0.9-0.7,0.9c-1,0-1,0.2,0.1,0.9c1.2,0.7,1.2,0.9,0,1.4
	c-1.1,0.4-1.1,0.6,0,0.6c1,0.1,0.9,0.5-0.3,1.7c-0.9,0.9-1.3,2-1,2.5c0.3,0.5,0,0.9-0.7,0.9c-1,0-1,0.2,0.1,0.9
	c1.2,0.7,1.2,0.9,0,1.4c-1.1,0.4-1.1,0.6,0,0.6c1,0.1,0.9,0.5-0.3,1.7c-0.9,0.9-1.3,2-1,2.5c0.3,0.5,0,0.9-0.7,0.9
	c-1,0-0.9,0.3,0.2,1c1.3,0.9,1.3,1,0,1.1c-1,0.1-0.8,0.4,0.5,0.9l2,0.9l-2,0.1c-1.7,0.1-1.7,0.2-0.5,1.1c1.3,0.8,1.2,1-0.3,1
	c-1,0-1.5,0.5-1.2,1s0,1-0.7,1c-1,0-0.9,0.3,0.2,1c1.3,0.9,1.3,1,0,1s-1.3,0.1,0,1s1.3,1,0,1s-1.3,0.1,0,1c1.3,0.8,1.3,1-0.2,1
	c-1.2,0-1.6,0.7-1.3,2c0.2,1.1-0.2,2-0.8,2.1c-0.7,0-0.3,0.5,0.8,0.9l2,0.9l-2,0.1c-1.7,0.1-1.7,0.2-0.5,1.1c1.2,0.8,1.2,1-0.5,1
	c-1.5,0-1.6,0.3-0.7,0.9c1.1,0.7,1,1.2-0.3,2.5c-1.2,1.2-1.3,1.6-0.3,1.7c1.1,0,1.1,0.2,0,0.9c-1.2,0.7-1.2,0.9,0,1.4
	c1,0.4,0.9,0.6-0.3,0.6c-1.2,0.1-1.5,0.7-1.1,2.1c0.3,1.3,0,2-0.8,2.1c-0.8,0-0.5,0.5,0.6,0.9l2,0.9l-2,0.1
	c-1.7,0.1-1.7,0.2-0.5,1.1c1.2,0.8,1.2,1-0.5,1c-1.5,0-1.6,0.3-0.7,0.9c1.1,0.7,1,1.2-0.3,2.5c-1.2,1.2-1.3,1.6-0.3,1.7
	c1.1,0,1.1,0.2,0,0.9c-1.2,0.7-1.2,0.9,0,1.4c0.9,0.3,0.6,0.6-0.6,0.6c-1.5,0.1-1.7,0.3-0.7,0.9c1.1,0.7,1,1.2-0.3,2.5
	c-1.3,1.3-1.4,2-0.5,3.1c1,1.2,0.9,1.5-0.3,1.5c-1,0-1.4,0.6-1,2c0.3,1.3,0,2-0.8,2c-1.1,0-1,0.2,0.1,1c1.3,0.9,1.3,1,0,1
	s-1.3,0.1,0,1c1.3,0.8,1.3,1-0.2,1c-1.2,0-1.5,0.5-1.1,1.6c0.3,0.9,0,2-0.8,2.5c-1.2,0.8-1.2,1.1,0.1,2c1.1,0.8,1.2,1.2,0.3,1.6
	c-0.7,0.3-1.3,1.3-1.3,2.3s-0.6,2-1.3,2.3c-1,0.3-0.9,0.8,0.1,2.1c0.9,1.1,1,1.7,0.3,1.7c-0.6,0-1.1,0.9-1.1,2s-0.4,2-1,2
	s-1,0.5-1,1.1s0.5,0.8,1,0.4c1.7-1,0.6,1.9-1.3,3.7c-1.7,1.6-1.7,1.7,0,2.1c1.7,0.4,1.7,0.5,0.1,0.6c-1.9,0.1-2.3,1.6-0.7,2.6
	c0.6,0.4,0.4,1.2-0.5,2.1c-0.8,0.8-1.3,1.9-0.9,2.4c0.3,0.5,0,0.9-0.7,0.9c-1,0-1,0.2,0.1,0.9c1.2,0.7,1.2,0.9,0,1.4
	c-1.1,0.4-1.1,0.6,0,0.6c1,0.1,0.9,0.5-0.3,1.7c-0.9,0.9-1.3,2-1,2.5c0.3,0.5,0,0.9-0.7,0.9c-1,0-0.9,0.3,0.2,1c1.3,0.9,1.3,1,0,1
	c-1.2,0-1.3,0.2-0.1,0.9c1.1,0.7,0.9,1-0.9,1.6c-1.5,0.5-2.6,0.2-3.1-0.6c-0.7-1-0.9-1.1-0.9-0.1c0,2.6,3,2.3,9.2-0.7
	c8.4-4.1,16.4-11.7,33.2-31.5c10-11.8,11.8-13.6,17.8-17.6c4.6-3.1,5.4-3.9,3.4-3.6c-1.5,0.3-2.7,0.1-2.7-0.4c0-0.5,0.6-0.9,1.3-0.9
	c0.8,0,0.8-0.3-0.3-1c-1.3-0.8-1.3-1,0.2-1c0.9,0,2-0.5,2.3-1c0.4-0.6-0.1-0.8-1.2-0.4c-1.3,0.4-1.1,0,0.7-1.7
	c1.7-1.5,1.9-2,0.8-1.6c-1,0.3-1.8,0.2-1.8-0.3c0-0.5,0.6-1,1.3-1c0.8,0,0.8-0.3-0.3-1c-1.3-0.8-1.3-1,0.2-1c0.9,0,2-0.5,2.3-1
	c0.4-0.6-0.1-0.7-1-0.4c-1.1,0.4-1.4,0.2-0.9-1c0.3-0.9,1.1-1.6,1.7-1.6c0.7,0,0.7-0.4-0.1-1.2c-1.6-1.6-1.5-2.8,0.2-2.8
	c0.8,0,1.7-0.4,2.1-1c0.4-0.6-0.1-0.7-1.1-0.3c-1.1,0.4-1.5,0.3-1-0.4c0.4-0.6,0.1-1.3-0.6-1.6c-0.7-0.3,0-0.5,1.6-0.6
	c1.6,0,2.5-0.5,2.2-1.1c-0.3-0.6-1-0.8-1.4-0.5c-0.4,0.3-0.8-0.2-0.8-1c0-0.8,0.6-1.5,1.3-1.5c0.7,0,1.5-0.4,1.9-1
	c0.4-0.6-0.1-0.7-1.1-0.3c-1.1,0.4-1.5,0.3-1-0.4c0.4-0.6,0.1-1.3-0.6-1.6c-0.7-0.3-0.2-0.5,1.2-0.6c1.9-0.1,2.2-0.3,1.3-1.3
	c-1.6-1.6-1.5-2.8,0.2-2.8c0.8,0,1.7-0.4,2.1-1c0.4-0.6-0.1-0.7-1.1-0.3c-1.1,0.4-1.5,0.3-1-0.4c0.4-0.6,0.1-1.3-0.6-1.6
	c-0.7-0.3-0.2-0.5,1-0.6s2.3-0.6,2.3-1.1s-0.4-0.8-1-0.4s-1-0.1-1-0.9c0-0.9,0.4-1.6,1-1.6c1.2,0,0.9-2.2-0.5-3.2
	c-0.6-0.4,0.1-0.7,1.4-0.8c2,0,2.2-0.3,1.2-1.5c-1-1.2-0.9-1.8,0.5-3.1c1.3-1.3,1.4-1.8,0.3-2.5c-1-0.6-0.8-0.8,0.5-0.9
	c1.6,0,1.7-0.3,0.6-1.6c-1.1-1.3-1.1-1.7,0-2.4c1.6-1,1.6-2.1-0.1-3.2c-1-0.7-1.1-0.9-0.1-0.9c0.7,0,1.7,1,2.2,2.2
	c2.1,5.1,0.8-0.7-1.5-7.3c-1.4-3.9-2.7-7.9-2.9-8.8c-0.3-1.6-3.5-10.2-5.4-14.7c-0.5-1.1-2.3-5.5-4.1-9.7c-1.8-4.3-3.9-8.2-4.6-8.9
	c-0.8-0.6-1.4-1.7-1.4-2.4c0-2.1-7.8-8.5-10.5-8.5C3027.8,72,3027.2,72.4,3027.6,73.5"/>
<path class="st9" d="M1576,182.5V194h12h12v-11.5V171h-12h-12V182.5"/>
<path class="st10" d="M1537.7,128.7c-0.4,0.4-0.7,5.8-0.7,12V152h12h12v-12v-12h-11.3C1543.4,128,1538,128.3,1537.7,128.7
	 M270,160.5c0,3.5-4.2,7.2-7.5,6.6c-0.5-0.1-0.7,0.1-0.3,0.5c0.8,0.8-4.1,5.4-5.8,5.4c-0.6,0-1.7,0.9-2.5,2s-2,2-2.7,2
	c-0.7,0-2.7,1.4-4.4,3c-1.7,1.6-3.7,3-4.5,3c-0.7,0-1.4,0.4-1.4,0.8c0,0.4-1.2,1.5-2.8,2.4c-1.5,0.9-4.1,2.8-5.8,4.2s-3.5,2.6-4,2.6
	c-0.6,0-1.7,0.9-2.5,2s-2.1,2-2.9,2c-0.8,0-2.2,0.9-3.2,2.1c-1,1.1-2.7,2.1-3.8,2.2c-1.1,0.1-1.8,0.5-1.5,0.9c0.3,0.4,0,0.8-0.6,0.8
	s-1.1,0.5-1.1,1.1c0,0.8,5.6,1,19.3,0.8c17.2-0.3,19.6-0.6,22.8-2.4c7.7-4.5,14.4-20,15.6-36c0.4-4.7,0.4-8.5,0-8.5
	C270.3,158,270,159.1,270,160.5 M191.5,212c6.1,0.3,10.3,0.7,9.5,0.8c-0.8,0.1-2.2,1.1-3,2.2s-2.1,2-2.9,2c-0.8,0-2.2,0.9-3.2,2.1
	c-1,1.1-2.7,2.1-3.8,2.2c-1.1,0.1-1.8,0.4-1.6,0.6c0.6,0.6-3.2,3.8-6.8,5.9c-1.5,0.9-2.8,2-2.8,2.4c0,0.4-0.7,0.8-1.5,0.8
	s-1.5,0.4-1.5,1s-0.7,1-1.5,1s-1.5,0.4-1.5,0.8s-1.2,1.5-2.8,2.2c-1.5,0.8-3.5,2.2-4.4,3.2c-0.9,1-2.6,1.9-3.7,2
	c-1.1,0.1-1.8,0.4-1.6,0.6c0.4,0.4-3.4,4.1-4.2,4.1c-0.2,0-1.3-0.5-2.5-1.1c-1.4-0.8-1.8-0.8-1.4,0c1.4,2.3,17.1,6.3,26.8,6.9
	c20.5,1.2,40-6.2,45.2-17.1c1.2-2.5,1.6-6.3,1.6-13.5V211l-21.8,0.2C184.2,211.4,182.4,211.5,191.5,212 M202.4,222
	c-5.4,2.3-7,9.5-2.9,13.6c5.1,5.1,14.5,1.6,14.5-5.4C214,224.4,207.4,219.9,202.4,222"/>
<path class="st11" d="M1615,134v84h12h12v-84V50h-12h-12V134 M1537,88v25h12h12V88V63h-12h-12V88 M1498,189.5V274h12h12v-84.5V105
	h-12h-12V189.5 M1576,130v25h12h12v-25v-25h-12h-12V130 M3399.4,175c0,15.7,0.1,22.1,0.3,14.3c0.2-7.8,0.2-20.7,0-28.5
	C3399.6,152.9,3399.4,159.3,3399.4,175 M2984.3,151c-1,1.6-2.6,3-3.6,3c-1,0-1.8,0.6-1.8,1.3c0,0.8-0.3,0.8-1-0.3s-1-1.1-1-0.3
	c0,0.7-0.9,1.3-2,1.3s-2,0.6-2,1.3c0,0.8-0.3,0.8-1-0.3s-1-1.1-1-0.3c0,1.7-2.6,1.6-5.5-0.4c-4.4-2.9-2.6-0.7,2.8,3.3
	c2.9,2.2,5.8,4.2,6.4,4.6c0.7,0.4,2.5-1.2,4.6-4.1c4.3-6,8.1-12.3,7.4-12.3C2986.3,148,2985.3,149.4,2984.3,151 M1537.7,167.7
	c-0.4,0.4-0.7,11.8-0.7,25.5V218h12h12v-25.5V167h-11.3C1543.4,167,1538,167.3,1537.7,167.7 M1576,235v25h12h12v-25v-25h-12h-12V235
	 M2487,313.9c-11.5,2.3-18.2,11.6-18.1,25.4c0,8.5,1.1,12.7,4.7,17.8c5.4,7.8,19.1,10.8,28,6.2c4.7-2.5,9.3-8.5,10.1-13.6
	c0.6-3.5,0.4-3.7-1.9-3.7c-2,0-2.7,0.7-3.6,3.8c-0.6,2.1-2.5,5.1-4.2,6.8c-2.8,2.7-3.7,3-10.3,3c-8.3,0-11.1-1.5-14.9-8
	c-1.9-3.3-2.3-5.5-2.3-12s0.4-8.7,2.3-12c3.5-6.1,6.6-7.9,14.2-8.3c7.6-0.4,12.5,1.9,14.3,6.8c0.9,2.3,1.7,3,3.9,3
	c3.2,0,3.2,0,1.4-4.3c-2.1-4.9-7.7-9.3-13.6-10.6c-2.8-0.6-5.4-1-5.8-1C2490.8,313.2,2488.9,313.5,2487,313.9 M528.7,315.4
	c-5.5,1.5-10.8,6-14,12.1c-1.7,3.2-2.2,5.7-2.2,13c0,8.1,0.3,9.5,2.9,14.2c5.1,9.1,14.9,13.6,25.2,11.3c12.3-2.7,19.2-13.4,18.2-28
	c-0.8-11.7-8-20.8-17.9-22.9C534.9,313.8,534.8,313.8,528.7,315.4 M704.7,315c-13.1,2.5-20.5,18-16.7,34.8
	c1.8,7.9,8.4,14.6,16.1,16.2c13,2.7,23.2-3.5,26-15.7c0.7-3.1,0.6-3.3-2.2-3.3c-2,0-2.9,0.5-2.9,1.6c0,3.2-3.3,8.4-6.5,10.4
	c-3.9,2.4-12.3,2.7-16.5,0.6c-7-3.6-10.9-12.9-9.6-23c1.3-10.2,7.9-16.5,17.4-16.5c6.6,0,11.2,2.4,13.6,7c1.1,2.1,2.3,3,4,3
	c2.8,0,3.1-1,1-4.9c-2.4-4.7-8-8.8-13.5-10c-2.8-0.6-5.4-1-5.8-1C708.8,314.2,706.8,314.6,704.7,315 M1891,317v3h8.5h8.5v22.5V365
	h2.5h2.5v-22.5V320h8.5h8.5v-3v-3h-19.5H1891V317 M2107,339.5V365h3h3v-11.5V342h11.5h11.5v-3v-3h-11.5H2113v-8v-8h13h13v-3v-3h-16
	h-16V339.5 M2147,339.5V365h2.5h2.5v-25.5V314h-2.5h-2.5V339.5 M2863,339.4V365h2.5h2.5v-21c0-12,0.4-21,0.9-21
	c0.9,0,3,5.1,11.7,28.8c4.5,12.3,5,13.3,7.3,13c2.1-0.3,3.2-2.5,10-21c4.2-11.4,8-21,8.4-21.4c0.4-0.4,0.7,9,0.7,20.9V365h2.5h2.5
	v-25.5V314h-3.8h-3.8l-7.8,21.3c-4.3,11.7-8,21.4-8.2,21.7c-0.7,1-1.9-1.8-9.3-21.6l-7.8-20.8l-4.1-0.3l-4.1-0.3V339.4
	 M2938.7,314.7c-0.3,0.4-4,9.8-8.2,20.8c-4.2,11-8.6,22.1-9.6,24.8l-1.9,4.8h2.9c2.6,0,3.1-0.6,5.6-7.5l2.7-7.5l11.5,0.3l11.5,0.3
	l2.6,7.3c2.5,6.9,2.7,7.3,5.7,7.3h3.2l-8.5-21.8c-4.7-12-9.1-23.3-9.7-25.3c-1-2.8-1.8-3.6-4.3-3.8
	C2940.6,314,2939,314.3,2938.7,314.7 M2959,317v3h8.5h8.5v22.5V365h3h3v-22.5V320h8h8v-3v-3h-19.5H2959V317 M3005,339.5V365h16.5
	h16.5v-3v-3h-13.5H3011v-22.5V314h-3h-3V339.5 M3058.7,314.7c-0.3,0.4-4,9.8-8.2,20.8c-4.2,11-8.6,22.1-9.6,24.8l-1.9,4.8h2.9
	c2.6,0,3.1-0.6,5.6-7.5l2.7-7.5l11.5,0.3l11.5,0.3l2.6,7.3c2.5,6.9,2.7,7.3,5.7,7.3h3.2l-8.5-21.8c-4.7-12-9.1-23.3-9.7-25.3
	c-1-2.8-1.8-3.6-4.3-3.8C3060.6,314,3059,314.3,3058.7,314.7 M3091,339.5v25.7l14.3-0.4c10.9-0.3,15-0.8,17.4-2
	c4.7-2.5,6.8-6.4,6.8-12.6c0-4.7-0.3-5.7-3.1-8.1c-1.7-1.5-3.7-2.9-4.3-3.2c-0.8-0.3-0.2-1.5,1.8-3.5c3.9-3.9,4.9-9,2.7-13.7
	c-2.9-6.1-5.2-6.9-21.2-7.4l-14.3-0.5V339.5 M3406,339.5V365h16h16v-3v-3h-13.5H3411v-22.5V314h-2.5h-2.5V339.5 M75,340.4V366h3h3
	v-10.4v-10.4l10.9-0.4c11.7-0.5,14.5-1.5,17.8-6.5c2.4-3.6,2.4-13,0-16.6c-3.5-5.4-5.9-6.1-20.9-6.5L75,314.8V340.4 M178,340.5V366
	h2.5h2.5v-11c0-16.1,2.7-21,11.6-21c3.4,0,4.6,0.5,6.3,2.6c1.9,2.4,2.1,4,2.1,16V366h2.6h2.6l-0.4-14.8c-0.3-12.2-0.7-15.2-2.2-17.5
	c-3.4-5.1-14.1-5.8-19-1.2c-1.3,1.2-2.7,2-3,1.7c-0.3-0.3-0.6-4.8-0.6-9.9c0-9.3,0-9.3-2.5-9.3H178V340.5 M742.1,335.3
	c3.9,11.1,7.8,22.5,8.8,25.3c1.6,4.6,2,5,5.1,5h3.3l8.3-23.5c4.6-12.9,8.6-24.3,8.9-25.3c0.5-1.4,0-1.8-2.3-1.8
	c-2.8,0-2.9,0.2-10.1,22c-4,12.1-7.6,22-8,22c-0.4,0-4-9.9-8-22c-7.3-21.9-7.3-22-10.2-22h-2.9L742.1,335.3 M995,340.5V366h2.5h2.5
	v-20.5c0-11.3,0.3-20.5,0.8-20.5s6.6,9.2,13.8,20.5c12.5,19.6,13.1,20.4,16.3,20.5l3.3,0v-25.5V315h-2.5h-2.5v20.6
	c0,15.8-0.3,20.5-1.2,20.2c-0.7-0.2-7.1-9.5-14.2-20.6c-11.7-18.2-13.3-20.2-15.8-20.2H995V340.5 M1147,340.5V366h2.5h2.5v-10.4
	v-10.4l10.8-0.4c7.4-0.3,11.7-0.9,13.9-2.1c7-3.7,8.6-16.7,2.9-22.8c-3.8-4-7.9-5-21.2-5l-11.3,0V340.5 M1455,340.5V366h2.5h2.5
	v-10.4v-10.4l10.8-0.4c7.4-0.3,11.7-0.9,13.9-2.1c7-3.7,8.6-16.7,2.9-22.8c-3.8-4-7.9-5-21.2-5l-11.3,0V340.5 M1604,325.2v10.2
	l-2.4-2.3c-4.9-4.6-14.1-4.6-19.8-0.1c-8,6.3-7.7,24.8,0.5,30.5c6,4.2,14.5,4,19.4-0.6l2.4-2.2v2.7c0,2.2,0.5,2.7,2.5,2.7h2.5v-25.5
	V315h-2.5h-2.5V325.2 M3900,341.4V367h3h3v-10.5V346h10.1c5.5,0,10.9,0.5,12,1c2.1,1.1,4,6.7,4,12c0,6.3,0.9,8,4.2,8
	c2.4,0,2.9-0.3,2.3-1.8c-0.4-1-1-5-1.5-9c-0.8-7.5-3-12.2-5.6-12.2c-2.3,0-1.7-1.6,1.1-2.8c4.8-2.2,6.8-11,4-17.6
	c-2.4-5.7-6-6.9-22.3-7.3l-14.3-0.4V341.4 M158,323.5c0,5.4,0,5.5-3,5.5c-2.5,0-3,0.4-3,2.5c0,2.1,0.5,2.5,2.9,2.5h2.9l0.3,14
	c0.4,15.8,0.8,16.8,7.7,17.7c3.9,0.5,4.1,0.4,4.1-2c0-2.2-0.5-2.6-3.3-2.9l-3.3-0.3l-0.3-13.3l-0.3-13.3h3.5c3.1,0,3.5-0.3,3.5-2.5
	c0-2.2-0.4-2.5-3.5-2.5H163v-5.5c0-5.2-0.1-5.5-2.5-5.5S158,318.3,158,323.5 M526,322.2c-5.6,3.8-8.4,10-8.4,18.3s2.9,14.5,8.4,18.3
	c3,2,4.4,2.3,10.2,2c7.9-0.4,11.1-2.3,14.8-8.9c5.1-9.1,2.5-23.5-5.3-29.3c-2-1.5-4.7-2.2-9.5-2.4C530.4,319.9,529,320.2,526,322.2
	 M2939.6,324.3c-0.9,2.3-2.7,7.3-4.1,11.1c-1.4,3.8-2.5,7.3-2.5,7.8c0,0.5,4,0.9,9,0.9h9l-4.2-12c-2.3-6.6-4.5-12-4.9-12
	S2940.5,321.9,2939.6,324.3 M3059.6,324.3c-0.9,2.3-2.7,7.3-4.1,11.1c-1.4,3.8-2.5,7.3-2.5,7.8c0,0.5,4,0.9,9,0.9h9l-4.2-12
	c-2.3-6.6-4.5-12-4.9-12S3060.5,321.9,3059.6,324.3 M3097,328v8h9.9c8.5,0,10.2-0.3,12.5-2.1c3.5-2.7,3.7-8.9,0.4-11.9
	c-1.9-1.8-3.5-2-12.5-2H3097V328 M81,330v9h10c9.3,0,10.2-0.2,12.5-2.5c3.4-3.4,3.4-9.7,0-13.1c-2.3-2.3-3.2-2.5-12.5-2.5H81V330
	 M1152,330v9h9.9c9,0,10.2-0.2,12.7-2.4c2.2-1.9,2.8-3.2,2.8-6.6s-0.6-4.7-2.8-6.6c-2.5-2.2-3.7-2.4-12.7-2.4h-9.9V330 M1460,330v9
	h9.9c9,0,10.2-0.2,12.7-2.4c2.2-1.9,2.8-3.2,2.8-6.6s-0.6-4.7-2.8-6.6c-2.5-2.2-3.7-2.4-12.7-2.4h-9.9V330 M3906,331v9h10.4
	c8.8,0,10.7-0.3,12.9-2c4.4-3.5,4.2-12.6-0.3-15.1c-1-0.5-6.6-1-12.4-1H3906V331 M1937.7,329.4c-5,1.8-7.6,4.1-9.8,9.1
	c-4,8.7-1.2,20.1,6.1,24.7c8.1,5.1,21,1.3,23.4-7c0.6-1.9,0.3-2.3-1.9-2.3c-1.6,0-2.6,0.6-2.6,1.4c0,2.8-5,5.6-9.9,5.6
	c-5.5,0-8.8-2-10.7-6.6c-2.7-6.5-2.9-6.4,12.7-6.4h14.1l-0.7-4.3c-1.3-7.8-5.4-13-11.6-14.8C1942.7,327.8,1942.4,327.8,1937.7,329.4
	 M1979,329.1c-1.4,0.5-3.7,2.2-5.3,3.6l-2.8,2.6v-3.2c0-2.7-0.4-3.2-2.5-3.2h-2.5v18v18h2.5h2.5v-12.1c0-6.9,0.5-13,1.1-14.3
	c2-3.8,5.1-5.6,10-5.7c7.4,0,7.9,1.1,7.9,17.8V365h2.5h2.5v-14.9c0-16.9-0.8-19.2-7.8-21.1C1982.8,327.8,1982.3,327.8,1979,329.1
	 M2013.1,329c-5.1,1.2-8.5,5.2-8.4,9.7c0.1,5,3.2,7.5,11.9,9.7c9,2.2,11.4,3.8,11.4,7.6c0,3.8-2.3,5-9.2,5c-5.9,0-9.8-2-9.8-5.1
	c0-1.4-0.7-1.9-2.5-1.9c-2.9,0-3.2,1.7-1,5.9c1.9,3.6,6.7,5.6,13.5,5.5c7.1-0.1,11.7-2.5,13.6-7c2.9-6.9-0.7-11.5-11-13.9
	c-8.9-2.1-11.7-3.8-11.7-7c0-3.1,2.6-4.5,8.2-4.5c4.6,0,8.8,2.6,8.8,5.5c0,0.9,1,1.5,2.6,1.5c2.3,0,2.5-0.3,1.9-2.8
	c-0.7-2.9-3-5.9-5.5-7.2C2023.4,328.7,2016.7,328.1,2013.1,329 M2052.3,328.9c-8,2-12.5,8.5-12.5,18.2c0,13.1,9.5,20.8,21.7,17.7
	c14.5-3.7,16.9-27.5,3.4-34.4C2061.4,328.6,2056.1,328,2052.3,328.9 M2095.4,329.4c-1.7,0.7-4.3,2.9-5.7,4.7l-2.7,3.4l0-4.3
	c0-3.9-0.2-4.3-2.5-4.3h-2.5v18v18h2.4c2.4,0,2.4-0.1,2.8-11.8c0.3-9.1,0.8-12.3,2.1-14.3c1.9-2.8,5.6-4.9,8.8-4.9c1.5,0,2-0.7,2-3
	C2100,327.6,2099.7,327.5,2095.4,329.4 M2173,329.1c-12.3,3.5-16.1,21.6-6.8,31.5c5.2,5.5,15.4,6.4,22.3,1.9
	c6.5-4.2,8.7-18.1,4.2-26C2189,330,2180.7,326.9,2173,329.1 M2201,329.1c0,0.6,2.5,8.9,5.6,18.5c5.4,16.9,5.7,17.4,8.3,17.4
	c2.7,0,2.8-0.3,6.1-13.8c4-16.3,4.6-17.9,5.7-13.7c6.1,24.7,6.9,27,9.7,27.3c1.5,0.2,2.7,0.1,2.7-0.2c0-0.3,2.5-8.3,5.5-17.8
	c3-9.5,5.5-17.6,5.5-18.1c0-0.4-1-0.8-2.3-0.8c-2.1,0-2.6,1.2-6.3,14.6c-2.2,8-4.4,14.7-4.9,14.8c-0.5,0.1-2.6-6.4-4.5-14.3
	c-3.4-13.8-3.7-14.5-6.2-14.8c-3-0.4-2.6-1.3-7.3,18.1c-1.6,6.5-3.2,11.8-3.6,11.8c-0.9,0-1.7-2.7-5.9-18.3
	c-2.9-10.8-3.4-11.8-5.6-11.8C2202.1,328,2201,328.5,2201,329.1 M3444.2,343.3c0.3,12.5,0.7,15.8,2.1,18c3.6,5.5,15.3,5.7,19.6,0.2
	c2.5-3.2,3.2-3.1,3.2,0.5c0,2.3,0.4,3,2,3c1.9,0,2-0.7,2-18.5V328h-2.5h-2.5v13.6v13.6l-2.9,2.9c-2.4,2.4-3.8,2.9-7.5,2.9
	c-3.2,0-5.2-0.6-6.6-2c-1.8-1.8-2-3.3-2-16.5V328h-2.6h-2.6L3444.2,343.3 M3494.5,328.6c-6.6,1.6-9.4,4-10.7,9.1
	c-0.5,1.9-0.2,2.3,1.8,2.3c1.3,0,2.4-0.5,2.4-1c0-0.6,1.1-2.1,2.5-3.5c4.9-4.9,16.5-2.5,16.5,3.4c0,2.9-2,4-10.3,5.6
	c-4.2,0.8-8.5,1.9-9.6,2.5c-4.6,2.5-6.3,8.2-4,13.4c2.8,6.1,14.4,7,21.2,1.7l2.5-2l0.6,2.4c0.7,2.6,3.4,4,6,3
	c2.1-0.8,2.2-4.4,0.1-4.4c-1.2,0-1.5-2-1.6-11.8c-0.1-13.7-0.6-16-3.9-18.4C3505.4,329,3498,327.8,3494.5,328.6 M117,329.5
	c0,0.3,3.2,8.8,7.2,18.8l7.2,18.2l-2.4,4.5c-2,3.8-2.9,4.6-5.7,4.9c-2.4,0.2-3.3,0.8-3.3,2.2c0,3.8,6.6,3.4,10.2-0.7
	c1.5-1.7,18.8-45.3,18.8-47.5c0-0.5-1-0.9-2.3-0.9c-2,0-2.8,1.5-7.3,15.1c-2.7,8.3-5.4,15.2-5.8,15.3c-0.5,0.1-3.2-6.6-6.1-14.8
	c-4.9-13.9-5.4-15-7.9-15.3C118.2,329,117,329.1,117,329.5 M227.5,330.5c-13.2,4.8-15.5,25.3-3.7,33.2c6.8,4.6,16.1,3.7,21.8-2
	c7.9-7.9,5.9-25.3-3.5-30.1C237.7,329.3,231.9,328.8,227.5,330.5 M272.3,329.7c-1.2,0.3-3.6,1.8-5.3,3.5l-3,3v-3.1
	c0-2.6-0.4-3.1-2.5-3.1H259v18v18h2.5h2.5v-12c0-12.7,1.1-16.8,4.9-18.9c2.9-1.5,9.3-1.2,11.8,0.5c2.1,1.5,2.2,2.2,2.2,16V366h2.5
	h2.5v-13.9c0-15-0.6-18.1-4.2-20.4C281.2,329.9,275.6,329,272.3,329.7 M581,330c-1.9,0.5-4.2,1.8-5.2,2.9c-2.2,2.7-2.9,2.6-2.9-0.4
	c0-2-0.5-2.5-2.5-2.5H568v25v25h2.5c2.5,0,2.5,0,2.5-9.5c0-5.2,0.2-9.5,0.5-9.5s1.4,0.9,2.4,1.9c2.9,2.9,9.3,4.3,13.9,3.1
	c13.6-3.7,16.2-25.5,4.1-34.1C590.9,329.7,585.6,328.9,581,330 M619.7,330.4c-7.8,2.9-11.1,8-11.1,17.6c0,7,1.5,10.9,5.7,14.8
	c6.5,6,19.7,4.5,24.1-2.9c3.5-5.9,0.3-6.9-4.8-1.5c-2.8,3-4,3.5-7.7,3.5c-6.1,0-10.5-2.9-11.8-7.7c-0.6-2.1-1.1-4.1-1.1-4.6
	s6.4-0.8,14.1-0.8h14.1l-0.7-4.2C638.7,333.2,629.5,326.8,619.7,330.4 M661.6,330c-1.6,0.5-4.2,2.1-5.8,3.6l-2.9,2.7v-3.2
	c0-2.5-0.4-3.2-2-3.2c-1.9,0-2,0.7-2,18s0.1,18,2,18c1.9,0,2-0.7,2-11c0-16,2.7-21,11.5-21c7.6,0,8.5,2.2,8.5,18.9V366h2.6h2.6
	l-0.4-14.8c-0.4-16.8-1.4-19.5-7.7-21.2C666,328.9,665.5,328.9,661.6,330 M1045,343.3c0,11.6,0.3,14.9,1.8,17.8
	c3.3,6.6,13.8,7.6,19.6,1.8c1.6-1.6,3-2.8,3.3-2.8s0.4,1.4,0.4,3c0,2.3,0.4,3,2,3c1.9,0,2-0.7,2-18.5V329h-2.5h-2.5v13.6v13.6
	l-2.9,2.9c-2.4,2.4-3.8,2.9-7.5,2.9c-3.2,0-5.2-0.6-6.6-2c-1.8-1.8-2-3.3-2-16.5V329h-2.5h-2.5L1045,343.3 M1097.4,330.1
	c-1.7,0.5-3.9,1.8-4.9,2.9c-2.4,2.7-3.5,2.5-3.5-0.5c0-1.8-0.5-2.5-2-2.5c-1.9,0-2,0.7-2,18v18h2.5h2.5v-13.4v-13.4l3.1-2.6
	c3.9-3.3,9.8-3.5,12.5-0.5c1.6,1.8,2,4,2.3,16c0.3,12.7,0.5,13.9,2.2,13.9c1.7,0,1.9-1.2,2.2-13.6c0.3-13.5,0.3-13.6,3.1-16
	c2-1.7,4-2.4,7.1-2.4c7.1,0,7.6,1.3,7.6,17.8V366h2.5h2.5v-14.5c0-17.3-0.8-19.8-7-21.5c-4.9-1.3-10.2-0.1-13.7,3.2l-2.4,2.3
	l-1.7-2.2c-1.7-2.1-6.2-4.4-8.5-4.2C1101,329.1,1099.1,329.6,1097.4,330.1 M1188.3,330.2c10.3,25.7,13.8,35.5,13.2,38
	c-1,4.5-4.2,7.9-7.5,7.9c-2.2,0-2.9,0.5-2.9,1.9c0,4.6,8.3,3.2,11.3-1.9c0.9-1.6,5.5-12.8,10.1-25c8.4-22,8.4-22.2,5.9-21.9
	c-2.4,0.3-3,1.5-7.5,14.8c-2.7,8-5.3,14.9-5.7,15.3c-0.4,0.5-2.5-4-4.6-10c-7-19.9-6.9-19.8-10-20.1
	C1188.5,328.9,1187.9,329.2,1188.3,330.2 M1509.5,329.9c-4.8,1.1-7.4,2.9-9,6.1c-2.1,4-1.9,5,1,5c1.6,0,2.5-0.6,2.5-1.5
	c0-3.3,3.8-5.5,9.4-5.5c6.3,0,8.6,1.6,8.6,6.1c0,3.4-1.1,4-11.7,5.8c-9.3,1.6-12.3,4.2-12.3,10.3c0,2.4,0.7,5.3,1.5,6.5
	c3.3,4.8,14.9,5,19.9,0.3c2.8-2.6,3.6-2.6,3.6-0.1c0,2.4,3.4,4.4,6,3.5c2.6-0.8,2.5-4.1,0-4.8c-1.9-0.5-2-1.4-2-13.5
	c0-12.5-0.1-13-2.5-15.5C1521.2,329.5,1515.7,328.4,1509.5,329.9 M1550.3,330.1c-1.8,0.5-4.1,2.1-5.1,3.4c-2.5,3.2-3.2,3.1-3.2-0.5
	c0-2.3-0.4-3-2-3c-1.9,0-2,0.7-2,18v18h2.5h2.5v-13.1v-13.1l2.9-2.9c2.4-2.4,3.8-2.9,7.5-2.9c7.9,0,8.6,1.5,8.6,18v14h2.5h2.5v-13.5
	c0-14.3-1.1-19.4-4.7-21.3C1559.3,329.6,1553.7,329,1550.3,330.1 M1629.5,329.9c-5.1,1.2-7.6,3.1-9.1,6.6c-1.8,4.4-1.8,4.5,1.1,4.5
	c1.5,0,2.5-0.6,2.5-1.5c0-3,4.2-5.5,9.1-5.5c6.1,0,7.8,0.7,9,3.7c1.2,3.2-0.3,6-3.8,6.7c-1.5,0.3-5.4,1-8.5,1.7
	c-8,1.6-11.7,4.8-11.7,10.3c0,2.3,0.7,5.2,1.5,6.4c3.3,4.8,14.9,5,19.9,0.3c2.8-2.6,3.6-2.6,3.6-0.1c0,2.4,3.4,4.4,6,3.5
	c2.6-0.8,2.5-4.1,0-4.8c-1.9-0.5-2-1.4-2-13.5c0-14.9-0.7-16.7-7.5-18.2C1635,328.9,1633.7,328.9,1629.5,329.9 M1665.2,330
	c-5.3,1.3-8.2,4.7-8.2,9.6c0,5.2,2.6,7.6,10.3,9.4c6.7,1.6,12.7,3.9,12.7,5c0,0.4,0.3,1.5,0.6,2.3c0.3,0.8-0.4,2.4-1.5,3.6
	c-4.3,4.3-18.1,1.9-18.1-3c0-1.3-0.7-1.9-2.5-1.9c-6.9,0,0.8,10.2,8.5,11.4c10.2,1.5,18.4-3.3,18.4-10.8c0-5.2-3.3-8-11.7-10.1
	c-8.9-2.1-11.7-3.8-11.7-7c0-3.1,2.6-4.5,8.4-4.5c4.8,0,8.6,2.4,8.6,5.5c0,1,1,1.5,2.6,1.5c2.3,0,2.5-0.3,1.9-2.8
	c-0.7-2.9-3-5.9-5.5-7.2C1675.4,329.7,1668.7,329.1,1665.2,330 M2536,337v8h-8c-7.9,0-8,0-8,2.5s0.1,2.5,8,2.5h8v7.5
	c0,6,0.3,7.5,1.5,7.5s1.5-1.5,1.5-7.5V350h8c7.9,0,8,0,8-2.5s-0.1-2.5-8-2.5h-8v-8c0-6.4-0.3-8-1.5-8S2536,330.6,2536,337 M2578,337
	v8h-7.5c-7.3,0-7.5,0.1-7.5,2.5s0.2,2.5,7.5,2.5h7.5v7.5c0,6.8,0.2,7.5,2,7.5s2-0.7,2-7.5V350h8c7.9,0,8,0,8-2.5s-0.1-2.5-8-2.5h-8
	v-8c0-7.3-0.2-8-2-8S2578,329.7,2578,337 M1935.1,335.8c-1.6,1.5-3.2,3.8-3.6,5c-0.6,2.2-0.6,2.3,10.4,2.3c10.5,0,11.1-0.1,11.1-2.1
	c0-1.1-1.3-3.4-2.9-5C1946,331.8,1939.3,331.8,1935.1,335.8 M2050.2,334.6c-3.4,2.4-5.2,6.8-5.2,12.4c0,9.1,4.2,14,11.8,14
	c8,0,13.5-8.3,11.7-17.7c-0.4-2.2-2-5-4-7c-2.8-2.8-4.1-3.3-7.7-3.3C2054.4,333,2051.4,333.7,2050.2,334.6 M2171.8,334.7
	c-3,1.9-5.8,7.7-5.8,12.3c0,4.7,2.8,10.4,5.9,12.3c1.6,0.9,4.6,1.7,6.7,1.7c7.1,0,11.3-5.2,11.3-14c0-5.7-1.9-10.1-5.2-12.4
	C2181.9,332.5,2175.2,332.6,2171.8,334.7 M226.1,336.6c-6.2,5.2-6.5,16.3-0.6,22.2c2.7,2.7,4,3.3,7.7,3.3c7.6,0,11.8-4.9,11.8-14
	c0-9-4.2-14-11.6-14C230.3,334,228.3,334.7,226.1,336.6 M578.1,335.6c-1.3,0.9-3,3.1-3.7,5c-2.8,6.8-1,16.4,3.7,19.8
	c3.7,2.6,11.4,2.2,14.4-0.8c6.4-6.4,5-21.2-2.2-24.5C586.8,333.5,580.8,333.8,578.1,335.6 M618.2,335.6c-1.9,1.4-5.2,6.3-5.2,7.9
	c0,0.3,5.2,0.5,11.6,0.5c11.5,0,11.6,0,10.9-2.3c-0.4-1.2-2-3.5-3.6-5C628.5,333.5,621.9,333,618.2,335.6 M1584.8,336.9
	c-2.8,2.5-3.2,3.6-3.6,9c-0.8,10.7,3.2,16.1,11.8,16.1c3.6,0,5.3-0.6,7.3-2.4c6.4-5.9,5.7-19.9-1.3-23.9
	C1594.5,333,1588.6,333.5,1584.8,336.9 M3097,350.5v8.5h11c10.4,0,11.2-0.1,13.5-2.5c3.5-3.5,3.4-9.6-0.2-12.5
	c-2.3-1.8-4-2.1-13.5-2.1H3097V350.5 M3502.5,347.1c-1.6,0.5-4.6,1.1-6.6,1.4c-11.1,1.7-11.9,12.5-1,12.5c5.3,0,9.9-2.3,11.2-5.6
	c1.1-3,1.3-9.4,0.2-9.3C3505.8,346.2,3504.1,346.6,3502.5,347.1 M1520.9,347.4c-0.3,0.3-3.5,1.1-7,1.6c-8.5,1.4-10.9,3-10.9,7.4
	c0,4.2,2,5.5,8.4,5.5c3.6,0,5.2-0.6,7.6-2.8c2.8-2.5,3-3.3,2.8-7.6C1521.6,349,1521.2,347.1,1520.9,347.4 M1639,348.1
	c-1.4,0.4-4.7,1.1-7.3,1.4c-5.4,0.7-8.7,3.3-8.7,6.9c0,3.7,2.5,5.6,7.6,5.6c7.9,0,12.4-4.2,12.4-11.6
	C1643,347.5,1642.2,347.1,1639,348.1"/>
<path class="st12" d="M1089.2,58.4c-8.9,4.4-16.2,8.3-16.2,8.6c0,0.3,7.5,4.3,16.8,8.8c15,7.4,21.3,9.4,21.3,6.9
	c0-0.5,0.4-0.6,1-0.2s1,0.1,1-0.5s0.4-0.8,1-0.5s1,0.1,1-0.5s0.4-0.8,1-0.5s1,0.1,1-0.5s0.4-0.8,1-0.5s1,0.2,1-0.4
	c0-1.3,5.5-4.2,6.4-3.4c0.3,0.3,0.6,0.1,0.6-0.6c0-0.7,0.4-0.9,1-0.6s1,0.1,1-0.5s0.4-0.8,1-0.5s1,0.1,1-0.5s0.4-0.8,1-0.5
	s1,0.1,1-0.5s0.4-0.8,1-0.5s1,0.2,1-0.4c0-1.4,5.5-4.2,6.5-3.3c0.4,0.4,0.5,0.1,0.1-0.6c-0.4-0.7-1.1-1-1.7-0.7
	c-0.5,0.3-0.9,0.1-0.9-0.5s-0.4-0.8-1-0.5s-1,0.1-1-0.5s-0.4-0.8-1-0.5s-1,0.1-1-0.5c0-0.6-0.4-0.8-1-0.5s-1,0.1-1-0.5
	s-0.4-0.8-1-0.5s-1,0.1-1-0.5s-0.4-0.8-1-0.5s-1,0.1-1-0.5s-0.4-0.8-1-0.5s-1,0.1-1-0.5s-0.4-0.8-1-0.5s-1,0.1-1-0.5s-0.4-0.8-1-0.5
	s-1,0.1-1-0.5s-0.4-0.8-1-0.5s-1,0.1-1-0.5s-0.4-0.8-1-0.5s-1,0.1-1-0.5s-0.4-0.8-1-0.5s-1,0.1-1-0.5s-0.4-0.8-1-0.5s-1,0.1-1-0.5
	s-0.4-0.8-1-0.5s-1,0.1-1-0.5s-0.4-0.8-1-0.5s-1,0.1-1-0.5s-0.4-0.8-1-0.5s-1,0.2-1-0.3C1108,49.4,1104.9,50.6,1089.2,58.4
	 M1033.8,86c-10.3,5.2-19.3,10.1-20,10.8c-1.1,1.1-1,1.2,0.6,0.6c1.3-0.5,1.7-0.4,1.2,0.4c-0.5,0.8-0.2,0.9,1,0.5
	c1.2-0.4,1.5-0.3,1,0.5c-0.5,0.8-0.2,0.9,1,0.5c1.2-0.4,1.5-0.3,1,0.5c-0.5,0.8-0.2,0.9,1,0.5c1.2-0.4,1.5-0.3,1,0.5
	c-0.5,0.8-0.2,0.9,1,0.5c1.2-0.4,1.5-0.3,1,0.5c-0.5,0.8-0.2,0.9,1,0.5c1.2-0.4,1.5-0.3,1,0.5c-0.5,0.8-0.2,0.9,1,0.5
	c1.2-0.4,1.5-0.3,1,0.5c-0.5,0.8-0.2,0.9,1,0.5c1.2-0.4,1.5-0.3,1,0.5c-0.5,0.8-0.2,0.9,1,0.5c1.2-0.4,1.5-0.3,1,0.5
	c-0.5,0.8-0.2,0.9,1,0.5c1.2-0.4,1.5-0.3,1,0.5c-0.5,0.7-0.2,1,0.8,0.6c0.8-0.3,2.4,0.3,3.5,1.4c1.1,1.1,2.3,1.7,2.6,1.4
	c0.3-0.3,0.6,0,0.6,0.6c0,0.7,0.4,0.9,1,0.6s1-0.1,1,0.5s0.4,0.8,1,0.5s1-0.1,1,0.5s0.4,0.8,1,0.5s1-0.2,1,0.2c0,0.5,0.9,0.8,2,0.8
	s2-0.4,2-0.8c0-0.5,0.4-0.6,1-0.2s1,0.1,1-0.5s0.4-0.8,1-0.5s1,0.1,1-0.5s0.4-0.8,1-0.5s1,0.1,1-0.5s0.4-0.8,1-0.5s1,0.1,1-0.5
	s0.4-0.8,1-0.5s1,0.1,1-0.5s0.4-0.8,1-0.5s1,0.1,1-0.5s0.4-0.8,1-0.5s1,0.2,1-0.4c0-1.3,5.5-4.2,6.4-3.4c0.3,0.3,0.6,0.1,0.6-0.6
	c0-0.7,0.4-0.9,1-0.6s1,0.1,1-0.5s0.4-0.8,1-0.5s1,0.1,1-0.5s0.4-0.8,1-0.5s1,0.1,1-0.5s0.4-0.8,1-0.5s1,0.1,1-0.5s0.4-0.8,1-0.5
	s1,0.1,1-0.5s0.4-0.8,1-0.5s1,0.1,1-0.5s0.4-0.8,1-0.5s1,0.1,1-0.5s0.4-0.9,0.9-0.5c0.5,0.3,1.3,0,1.7-0.6c0.5-0.7,0.3-0.9-0.4-0.5
	c-0.6,0.4-1.2,0.2-1.2-0.4s-0.4-0.8-1-0.5s-1,0.1-1-0.5s-0.4-0.8-1-0.5s-1,0.1-1-0.5s-0.4-0.8-1-0.5s-1,0.1-1-0.5s-0.4-0.8-1-0.5
	s-1,0.1-1-0.5s-0.4-0.8-1-0.5s-1,0.1-1-0.5s-0.4-0.8-1-0.5s-1,0.1-1-0.5s-0.4-0.8-1-0.5s-1,0.1-1-0.5s-0.4-0.8-1-0.5s-1,0.1-1-0.5
	s-0.4-0.8-1-0.5s-1,0.1-1-0.5s-0.4-0.8-1-0.5s-1,0.1-1-0.5s-0.4-0.8-1-0.5s-1,0.1-1-0.5s-0.4-0.8-1-0.5s-1,0.1-1-0.5s-0.4-0.8-1-0.5
	s-1,0.1-1-0.5s-0.4-0.8-1-0.5s-1,0.1-1-0.5s-0.4-0.8-1-0.5s-1,0.1-1-0.5s-0.4-0.8-1-0.5s-1,0.1-1-0.5s-0.4-0.9-0.9-0.6
	c-0.5,0.3-1.1,0.2-1.3-0.2C1052.7,76.8,1044.1,80.8,1033.8,86 M1158.2,77.6c-0.7,0.8-1.7,1.2-2.3,0.8c-0.5-0.3-0.9-0.1-0.9,0.5
	s-0.4,0.8-1,0.5s-1-0.1-1,0.5s-0.4,0.8-1,0.5s-1-0.1-1,0.4c0,1.3-13.5,8.2-14.4,7.4c-0.3-0.3-0.6-0.1-0.6,0.6c0,0.7-0.4,0.9-1,0.6
	s-1-0.1-1,0.6c0,0.7-0.3,1-0.6,0.6c-0.3-0.3-1.4,0.2-2.3,1.1c-1,0.9-2.6,2.2-3.7,2.9c-1.9,1.2-1.9,1.2,0,0.6
	c1.3-0.4,1.7-0.3,1.2,0.5c-0.5,0.8-0.2,0.9,1,0.5c1.2-0.4,1.5-0.3,1,0.5c-0.5,0.8-0.2,0.9,1,0.5c1.2-0.4,1.5-0.3,1,0.5
	c-0.5,0.7-0.2,1,0.8,0.6c0.8-0.3,2.4,0.3,3.5,1.4c1.1,1.1,2.3,1.7,2.6,1.4c0.3-0.3,0.6,0,0.6,0.6c0,0.7,0.4,0.9,1,0.6s1-0.1,1,0.5
	s0.4,0.8,1,0.5s1-0.1,1,0.5s0.4,0.8,1,0.5s1-0.1,1,0.5s0.4,0.8,1,0.5s1-0.1,1,0.5s0.4,0.8,1,0.5s1-0.1,1,0.5s0.4,0.8,1,0.5
	s1-0.1,1,0.5s0.4,0.8,1,0.5s1-0.1,1,0.5s0.4,0.8,1,0.5s1-0.1,1,0.5s0.4,0.8,1,0.5s1-0.1,1,0.5s0.4,0.8,1,0.5s1-0.1,1,0.5
	s0.4,0.8,1,0.5s1-0.2,1,0.3c0,0.5,0.7,0.9,1.5,0.9s1.5-0.4,1.5-0.9c0-0.5,0.4-0.6,1-0.3s1,0.1,1-0.5s0.4-0.8,1-0.5s1,0.1,1-0.5
	s0.4-0.8,1-0.5s1,0.1,1-0.5s0.4-0.8,1-0.5s1,0.1,1-0.5s0.4-0.8,1-0.5s1,0.1,1-0.5s0.4-0.8,1-0.5s1,0.1,1-0.5s0.4-0.8,1-0.5
	s1,0.1,1-0.5s0.4-0.8,1-0.5s1,0.1,1-0.5s0.4-0.8,1-0.5s1,0.1,1-0.5s0.4-0.8,1-0.5s1,0.1,1-0.5s0.4-0.8,1-0.5s1,0.1,1-0.5
	s0.4-0.8,1-0.5s1,0.1,1-0.5s0.4-0.8,1-0.5s1,0.1,1-0.5s0.4-0.8,1-0.5s1,0.1,1-0.5s0.4-0.8,1-0.5s1,0.1,1-0.5s0.4-0.8,1-0.5
	s1,0.1,1-0.5s0.5-0.8,1.2-0.4c0.7,0.4,0.9,0.3,0.4-0.5c-0.4-0.6-1.1-0.9-1.7-0.6c-0.5,0.3-0.9,0.1-0.9-0.5s-0.4-0.8-1-0.5
	s-1,0.1-1-0.5s-0.4-0.8-1-0.5s-1,0.1-1-0.5s-0.4-0.8-1-0.5s-1,0.1-1-0.5s-0.4-0.8-1-0.5s-1,0.1-1-0.5s-0.4-0.8-1-0.5s-1,0.1-1-0.5
	s-0.4-0.8-1-0.5s-1,0.1-1-0.5s-0.4-0.8-1-0.5s-1,0.1-1-0.5s-0.4-0.8-1-0.5s-1,0.1-1-0.5s-0.4-0.8-1-0.5s-1,0.1-1-0.5s-0.4-0.8-1-0.5
	s-1,0.1-1-0.5s-0.4-0.8-1-0.5s-1,0.1-1-0.5s-0.4-0.8-1-0.5s-1,0.1-1-0.5s-0.4-0.8-1-0.5s-1,0.1-1-0.5s-0.4-0.8-1-0.5s-1,0.1-1-0.5
	s-0.4-0.8-1-0.5s-1,0.1-1-0.5s-0.4-0.8-1-0.5s-1,0.1-1-0.5s-0.4-0.8-1-0.5s-1,0.1-1-0.5s-0.4-0.9-0.9-0.6c-0.5,0.3-1.1,0.2-1.3-0.3
	C1159.7,76.6,1158.9,76.8,1158.2,77.6 M1105,105c0,0.6-0.4,0.8-1,0.5s-1-0.1-1,0.5s-0.4,0.8-1,0.5s-1-0.1-1,0.5s-0.4,0.8-1,0.5
	s-1-0.1-1,0.4c0,1.3-15.5,9.2-16.4,8.4c-0.3-0.3-0.6-0.1-0.6,0.6c0,0.7-0.4,0.9-1,0.6s-1-0.1-1,0.5s-0.4,0.9-0.9,0.6
	c-0.5-0.3-1.2,0.2-1.5,1c-0.4,0.9-1.2,1.4-2.2,1c-0.8-0.3-1.3-0.2-1,0.3c0.3,0.5-0.8,1.4-2.4,2.1c-1.6,0.7-3,1.7-3,2.2
	c0,0.5,0.4,0.7,1,0.3s1-0.1,1,0.5s0.4,0.8,1,0.5s1-0.1,1,0.5s0.4,0.8,1,0.5s1-0.1,1,0.5c0,0.6,0.4,0.8,1,0.5s1-0.1,1,0.5
	s0.4,0.8,1,0.5s1-0.1,1,0.5s0.4,0.8,1,0.5s1-0.1,1,0.5s0.4,0.8,1,0.5s1-0.1,1,0.5s0.4,0.8,1,0.5s1-0.1,1,0.5s0.4,0.8,1,0.5
	s1-0.1,1,0.5s0.4,0.8,1,0.5s1-0.1,1,0.5s0.4,0.8,1,0.5s1-0.1,1,0.5s0.4,0.8,1,0.5s1-0.1,1,0.5s0.4,0.8,1,0.5s1-0.1,1,0.5
	s0.4,0.8,1,0.5s1-0.1,1,0.6s0.3,0.9,0.6,0.6c0.3-0.3,1.5-0.1,2.6,0.4c3.5,1.9,7.8,2.9,7.1,1.6c-0.4-0.7-0.1-0.9,1-0.4
	c1.2,0.4,1.5,0.3,1-0.5c-0.5-0.8-0.2-0.9,1-0.5c1.2,0.4,1.5,0.3,1-0.5c-0.5-0.8-0.2-0.9,1-0.5c1.2,0.4,1.5,0.3,1-0.5
	c-0.5-0.8-0.2-0.9,1-0.5c1.2,0.4,1.5,0.3,1-0.5c-0.5-0.8-0.2-0.9,1-0.5c1.2,0.4,1.5,0.3,1-0.5c-0.5-0.8-0.2-0.9,1-0.5
	c1.2,0.4,1.5,0.3,1-0.5c-0.5-0.8-0.2-0.9,1-0.5c1.2,0.4,1.5,0.3,1-0.5c-0.5-0.8-0.2-0.9,1-0.5c1.2,0.4,1.5,0.3,1-0.5
	c-0.5-0.8-0.2-0.9,1-0.5c1.2,0.4,1.5,0.3,1-0.5c-0.5-0.8-0.2-0.9,1-0.5c0.9,0.4,1.5,0.3,1.2-0.2c-0.3-0.4,3.1-2.6,7.5-4.7
	c4.4-2.2,8.3-4.3,8.6-4.8c0.3-0.5,0-0.6-0.6-0.2c-0.6,0.4-1.2,0.2-1.2-0.4s-0.4-0.8-1-0.5s-1,0.1-1-0.5s-0.4-0.8-1-0.5s-1,0.1-1-0.5
	s-0.4-0.8-1-0.5s-1,0.1-1-0.5s-0.4-0.8-1-0.5s-1,0.1-1-0.5s-0.4-0.8-1-0.5s-1,0.1-1-0.5s-0.4-0.8-1-0.5s-1,0.1-1-0.5s-0.4-0.8-1-0.5
	s-1,0.1-1-0.5s-0.4-0.8-1-0.5s-1,0.1-1-0.5s-0.4-0.8-1-0.5s-1,0.1-1-0.5s-0.4-0.8-1-0.5s-1,0.1-1-0.5s-0.4-0.8-1-0.5s-1,0.1-1-0.5
	s-0.4-0.8-1-0.5s-1,0.1-1-0.5s-0.4-0.8-1-0.5s-1,0.1-1-0.5s-0.4-0.8-1-0.5s-1,0.1-1-0.5s-0.4-0.8-1-0.5s-1,0.1-1-0.6
	c0-0.7-0.3-0.9-0.6-0.6c-0.3,0.3-1.9,0-3.5-0.9C1106.1,104.5,1105,104.3,1105,105 M1208.2,110.8c-0.1,0.7-0.7,1-1.2,0.7
	s-1-0.1-1,0.5s-0.4,0.8-1,0.5s-1-0.1-1,0.5s-0.4,0.8-1,0.5s-1-0.1-1,0.5s-0.4,0.8-1,0.5s-1-0.1-1,0.5s-0.4,0.8-1,0.5s-1-0.1-1,0.5
	s-0.4,0.8-1,0.5s-1-0.1-1,0.5s-0.4,0.8-1,0.5s-1-0.1-1,0.5s-0.4,0.8-1,0.5s-1-0.1-1,0.5s-0.4,0.8-1,0.5s-1-0.1-1,0.5s-0.4,0.8-1,0.5
	s-1-0.1-1,0.5s-0.4,0.8-1,0.5s-1-0.1-1,0.5s-0.4,0.8-1,0.5s-1-0.1-1,0.5s-0.4,0.8-1,0.5s-1-0.1-1,0.5s-0.4,0.8-1,0.5s-1-0.1-1,0.5
	s-0.4,0.8-1,0.5s-1-0.1-1,0.5s-0.4,0.8-1,0.5s-1-0.1-1,0.5s-0.4,0.8-1,0.5c-0.7-0.4-1,7.6-1,23.4c0,14.9,0.4,24.2,1,24.6
	c0.6,0.3,1,0.1,1-0.5s0.4-0.8,1-0.5s1,0.1,1-0.5s0.4-0.8,1-0.5s1,0.1,1-0.5s0.4-0.8,1-0.5s1,0.1,1-0.5s0.4-0.8,1-0.5s1,0.1,1-0.5
	s0.4-0.8,1-0.5s1,0.1,1-0.5s0.4-0.8,1-0.5s1,0.1,1-0.5s0.4-0.8,1-0.5s1,0.1,1-0.5s0.4-0.8,1-0.5s1,0.1,1-0.5s0.4-0.8,1-0.5
	s1,0.1,1-0.5s0.4-0.8,1-0.5s1,0.1,1-0.5s0.4-0.8,1-0.5s1,0.1,1-0.5s0.4-0.8,1-0.5s1,0.1,1-0.6s0.3-1,0.6-0.6
	c0.3,0.3,1.5-0.3,2.6-1.4c1.1-1.1,2.7-1.7,3.5-1.4c0.9,0.4,1.2,0.2,0.8-0.6c-0.5-0.7-0.2-1,0.7-0.6c1.2,0.5,1.4-2,1.2-15.6
	C1208.9,122.8,1208.5,109.1,1208.2,110.8 M1154,138c0,0.6-0.4,0.8-1,0.5s-1-0.1-1,0.5s-0.4,0.8-1,0.5s-1-0.1-1,0.5s-0.4,0.8-1,0.5
	s-1-0.1-1,0.5s-0.4,0.9-0.9,0.6c-0.5-0.3-1.1-0.2-1.3,0.3c-0.2,0.5-7.2,4.3-15.6,8.5L1115,158v22.9c0,19.8,0.2,23,1.6,23.5
	c0.9,0.3,1.3,0.2,1-0.3c-0.7-1.1,2.2-2.3,3.5-1.5c0.5,0.3,0.9,0.1,0.9-0.6s0.4-0.8,1-0.5s1,0.1,1-0.5s0.4-0.8,1-0.5s1,0.1,1-0.5
	s0.4-0.8,1-0.5s1,0.1,1-0.5s0.4-0.8,1-0.5s1,0.1,1-0.5s0.4-0.8,1-0.5s1,0.1,1-0.5s0.4-0.8,1-0.5s1,0.1,1-0.5s0.4-0.8,1-0.5
	s1,0.1,1-0.5s0.4-0.8,1-0.5s1,0.1,1-0.5s0.4-0.8,1-0.5s1,0.1,1-0.5s0.4-0.8,1-0.5s1,0.1,1-0.5s0.4-0.8,1-0.5s1,0.1,1-0.5
	s0.4-0.8,1-0.5s1,0.1,1-0.5s0.4-0.8,1-0.5s1,0.1,1-0.5s0.4-0.8,1-0.5s1,0.1,1-0.5s0.4-0.8,1-0.5s1,0.1,1-0.5s0.4-0.8,1-0.5
	s1,0.1,1-0.5s0.4-0.8,1-0.5c0.7,0.4,1-7.6,1-23.4c0-14.9-0.4-24.2-1-24.6C1154.4,137.2,1154,137.4,1154,138 M1207,177.9
	c0,0.7-0.4,1-1,0.6s-1-0.1-1,0.5s-0.4,0.8-1,0.5s-1-0.1-1,0.5s-0.4,0.8-1,0.5s-1-0.1-1,0.5s-0.4,0.8-1,0.5s-1-0.1-1,0.5
	s-0.4,0.8-1,0.5s-1-0.1-1,0.5s-0.4,0.8-1,0.5s-1-0.1-1,0.5s-0.4,0.8-1,0.5s-1-0.1-1,0.5s-0.4,0.8-1,0.5s-1-0.1-1,0.5
	s-0.4,0.9-0.9,0.6c-0.5-0.3-1.1,0-1.4,0.7c-0.3,0.7-3.9,2.8-8.1,4.7l-7.6,3.5l0,24.5c0,13.5,0.3,23.9,0.6,23.2
	c0.3-0.7,0.9-1,1.4-0.7c0.5,0.3,0.9,0.1,0.9-0.6s0.4-0.8,1-0.5s1,0.1,1-0.5s0.4-0.8,1-0.5s1,0.1,1-0.5s0.4-0.8,1-0.5s1,0.1,1-0.5
	s0.4-0.8,1-0.5s1,0.1,1-0.5s0.4-0.8,1-0.5s1,0.1,1-0.5s0.4-0.8,1-0.5s1,0.1,1-0.5s0.4-0.8,1-0.5s1,0.1,1-0.5s0.4-0.8,1-0.5
	s1,0.1,1-0.5s0.4-0.8,1-0.5s1,0.1,1-0.5s0.4-0.8,1-0.5s1,0.1,1-0.5s0.4-0.8,1-0.5s1,0.1,1-0.5s0.4-0.8,1-0.5s1,0.1,1-0.5
	s0.4-0.8,1-0.5s1,0.1,1-0.5s0.4-0.8,1-0.5s1,0.1,1-0.5s0.4-0.8,1-0.5s1,0.1,1-0.5s0.4-0.8,1-0.5s1,0.1,1-0.5s0.3-0.9,0.8-0.7
	c1.1,0.7,0.3-46.7-0.8-47.8C1207.3,176.9,1207,177.1,1207,177.9 M1155,204.1c0,0.6-0.4,0.8-1,0.4s-1-0.1-1,0.5s-0.4,0.8-1,0.5
	s-1-0.1-1,0.5s-0.4,0.8-1,0.5s-1-0.1-1,0.5s-0.4,0.8-1,0.5s-1-0.1-1,0.5s-0.4,0.8-1,0.5s-1-0.1-1,0.5s-0.4,0.8-1,0.5s-1-0.1-1,0.5
	s-0.4,0.8-1,0.5s-1-0.1-1,0.5s-0.4,0.8-1,0.5s-1-0.1-1,0.5s-0.4,0.8-1,0.5s-1-0.1-1,0.5s-0.4,0.8-1,0.5s-1-0.1-1,0.5s-0.4,0.8-1,0.5
	s-1-0.1-1,0.5s-0.4,0.8-1,0.5s-1-0.1-1,0.5s-0.4,0.8-1,0.5s-1-0.1-1,0.5s-0.4,0.8-1,0.5s-1-0.1-1,0.5s-0.4,0.8-1,0.5s-1-0.1-1,0.5
	s-0.4,0.8-1,0.5s-1-0.1-1,0.5s-0.4,0.8-1,0.5s-1-0.1-1,0.5s-0.4,0.8-1,0.5s-1-0.1-1,0.5s-0.4,0.8-1,0.5s-1-0.1-1,0.5s-0.4,0.8-1,0.5
	c-0.7-0.4-1,8.1-0.9,24.7c0,13.9,0.3,24.7,0.6,24.1c0.3-0.7,0.9-1,1.4-0.7c0.5,0.3,0.9,0.1,0.9-0.6s0.4-0.8,1-0.5s1,0.1,1-0.5
	s0.4-0.8,1-0.5s1,0.1,1-0.5s0.4-0.8,1-0.5s1,0.1,1-0.5s0.4-0.8,1-0.5s1,0.1,1-0.5s0.4-0.8,1-0.5s1,0.1,1-0.5s0.4-0.8,1-0.5
	s1,0.1,1-0.5s0.4-0.8,1-0.5s1,0.1,1-0.5s0.4-0.8,1-0.5s1,0.1,1-0.5s0.4-0.8,1-0.5s1,0.1,1-0.5s0.4-0.8,1-0.5s1,0.1,1-0.5
	s0.4-0.8,1-0.5s1,0.1,1-0.5s0.4-0.8,1-0.5s1,0.1,1-0.5s0.4-0.8,1-0.5s1,0.1,1-0.5s0.4-0.8,1-0.5s1,0.1,1-0.5s0.4-0.8,1-0.5
	s1,0.1,1-0.5c0-0.6,0.4-0.8,1-0.5s1,0.1,1-0.5s0.4-0.8,1-0.5s1,0.1,1-0.5s0.4-0.8,1-0.5s1,0.1,1-0.5s0.4-0.8,1-0.5
	c0.7,0.4,1-8,1-24.4c0-13.8-0.2-25.1-0.5-25.1S1155,203.5,1155,204.1"/>
<path class="st13" d="M1614.5,134.5c0,46.8,0.1,65.7,0.3,42.2c0.1-23.6,0.1-61.8,0-85C1614.6,68.5,1614.5,87.7,1614.5,134.5
	 M1000,163.8c0,48.7,0.2,56.5,1.5,57.8c0.8,0.8,1.5,1.2,1.5,0.9c0-0.8,9.4,4.6,9.8,5.7c0.2,0.4,0.7,0.5,1.3,0.2
	c0.5-0.3,0.9,0,0.9,0.7s0.3,0.9,0.6,0.6c0.3-0.3,2.6,0.5,5,1.9l4.4,2.6v-28.5c0-24.8,0.2-28.6,1.6-29.1c0.9-0.3,1.3-0.2,1,0.3
	c-0.3,0.5-0.2,1.1,0.3,1.2c1.1,0.4,6.6,11,6.3,12.1c-0.1,0.4,0.3,0.8,0.9,0.8c0.6,0,0.8,0.4,0.4,1s-0.1,1,0.5,1s0.8,0.4,0.5,1
	s-0.1,1,0.5,1s0.9,0.4,0.6,0.9c-0.3,0.5-0.2,1.1,0.3,1.3c1.1,0.4,9.7,17.1,9.4,18.1c-0.1,0.4,0.2,0.8,0.8,0.8c0.6,0,0.8,0.4,0.4,1
	s-0.1,1,0.5,1s0.8,0.4,0.5,1s-0.1,1,0.5,1s0.9,0.4,0.6,0.9c-0.3,0.5-0.2,1.1,0.3,1.3c1.1,0.4,9.7,17.1,9.4,18.1
	c-0.1,0.4,0.2,0.8,0.8,0.8c0.6,0,0.8,0.4,0.4,1s-0.1,1,0.5,1s0.8,0.4,0.5,1s-0.1,1,0.6,1c0.7,0,1,0.3,0.6,0.6
	c-0.3,0.3,0.2,1.5,1.1,2.5s1.6,2.3,1.6,2.7c0,0.6,2,2.4,9.5,8.6c0.8,0.7,1.8,1.2,2.2,1.2c0.4,0,1.5,0.7,2.5,1.5
	c1,0.8,2.1,1.5,2.5,1.5c0.4,0,1.6,0.7,2.7,1.6c1.1,0.9,2.2,1.4,2.5,1.1c0.3-0.3,0.8,0.2,1.2,1.1c0.3,0.9,1,1.4,1.4,1.2
	c0.4-0.3,1.7,0.4,2.9,1.5l2.2,2v-57v-57l-13.1-6.6c-7.2-3.6-13.3-6.4-13.5-6.2c-0.2,0.2-0.4,14.2-0.4,31c0,16.9-0.5,30.9-1,31.2
	c-1.1,0.7-3.3-3.2-2.5-4.5c0.3-0.5,0.1-1-0.5-1s-0.9-0.4-0.6-0.9c0.3-0.5,0.2-1.1-0.3-1.3c-1.4-0.5-7.3-12.8-6.6-13.9
	c0.3-0.5,0.1-1-0.5-1s-0.9-0.4-0.6-0.9c0.3-0.5,0.2-1.1-0.3-1.3c-1.4-0.5-7.3-12.8-6.6-13.9c0.3-0.5,0.1-1-0.5-1s-0.9-0.4-0.6-0.9
	c0.3-0.5,0.2-1.1-0.3-1.3c-1.4-0.5-7.3-12.8-6.6-13.9c0.3-0.5,0.1-1-0.5-1s-0.9-0.4-0.6-0.9c0.3-0.5,0.2-1.1-0.3-1.3
	c-1.4-0.5-7.3-12.8-6.6-13.9c0.3-0.5,0.1-1-0.5-1s-0.8-0.4-0.5-1s0.2-1-0.2-1c-1,0-5.7-9.1-5.4-10.3c0.1-0.5-0.3-0.5-0.8-0.2
	c-0.6,0.3-1,0.1-1-0.5s-0.4-0.8-1-0.5c-0.5,0.3-1,0.1-1-0.6c0-0.7-0.3-0.9-0.6-0.6c-0.7,0.7-20.6-9-21.6-10.7
	C1000.4,108,1000,132.8,1000,163.8"/>
<path class="st14" d="M3012.5,91.8c-5.8,9.1-17.4,23.9-21.1,26.7c-2,1.6-6,4.1-8.8,5.6c-5.8,3.2-5.5,3.9,0.3,0.9
	c2.1-1.1,4.9-2.1,6.2-2.3c1.3-0.2,3.1-0.7,3.9-1c0.8-0.3,3-1,4.8-1.6c3.1-1,3.2-0.9,2.2,1c-0.6,1.1-0.9,2.2-0.6,2.5
	c0.2,0.2,1.3-1.3,2.2-3.3c3.7-7.8,14.4-32.7,14.2-32.9C3015.6,87.2,3014.1,89.2,3012.5,91.8 M668.4,171.2c-2.7,2.2-5.5,5-6.3,6.2
	c-0.8,1.2-2.3,3.1-3.3,4.2c-2.6,2.8-7.4,13.1-8.6,18.5c-0.6,2.5-1,7.5-1.1,11.2c-0.1,30.4,23.3,53.8,53.8,53.8
	c33.5,0,59-32.9,50.6-65.5c-2-7.8-7.1-18.2-9.5-19.5c-1.1-0.6-1.9-1.6-1.9-2.3c0-1.5-3.7-5.1-6.3-6c-1-0.3-1.8-1.1-1.8-1.6
	c0-0.6-0.6-1-1.4-1s-1.7-0.6-1.9-1.3c-0.7-1.8-2.6,0.8-10.3,14l-6.6,11.3l3.6,3.3c2,1.8,4.3,4.9,5.1,7c3.1,7.5,1.1,19.2-4.3,24.6
	c-6.4,6.4-17.3,8.2-25.7,4.1c-5.9-2.9-7.5-4.4-10.2-10.1c-4.2-8.7-2.1-20,4.8-26.2c2.6-2.3,2.8-2.9,1.8-5.2c-0.6-1.4-1.5-2.5-2-2.5
	c-0.5,0-0.8-0.5-0.8-1c0-1.6-10.3-18.9-11.6-19.4C673.8,167.4,671.1,169,668.4,171.2"/>
<path class="st15" d="M571.6,160.6c-23.2,5.6-40.6,28.1-40.6,52.6c0,24.2,18.3,46.2,42.5,51.3c9.4,2,14.7,1.9,24-0.5
	c21.8-5.6,37.8-24.1,40.1-46.4l0.7-6.6h-15.6h-15.6l-1.1,5.4c-2.2,10.4-11.2,17.6-22.1,17.6c-7.7,0-15.4-4.5-18.7-11.1
	c-4.4-8.7-2.9-19,3.9-25.8c5.6-5.6,9.8-6.7,23.3-5.8c2.7,0.2,3.4-0.7,10.3-12.2c4.1-6.8,7.4-12.7,7.4-13.2c0-1.1-10.2-4.9-16.4-6
	C586.9,158.7,578.6,158.9,571.6,160.6"/>
<path class="st16" d="M632,59.1c-5.4,1-17,5.8-17,7c0,0.5-0.7,0.9-1.6,0.9c-2.6,0-14.7,13.1-18.2,19.8c-1.8,3.4-3,6.3-2.6,6.3
	c0.4,0,0.1,0.7-0.6,1.5s-0.9,1.5-0.6,1.5c0.4,0,0.2,0.9-0.4,2c-1.4,2.7-2,16.3-1,22c2.3,12.1,9.9,25.6,17.8,31.5
	c2.6,1.9,5.2,3.9,5.9,4.5c0.9,0.8,1.4,0.6,1.9-0.7c0.4-1,1.3-2.4,2-3.1c0.7-0.7,1.3-2,1.3-2.8c0-0.8,0.4-1.4,1-1.4
	c0.5,0,1.3-1.1,1.6-2.5c0.3-1.4,1-2.5,1.4-2.5c0.4,0,2.2-2.8,3.9-6.3l3.2-6.3l-3.6-3.8c-2-2.1-4.2-5-4.9-6.4
	c-1.4-2.7-1.9-13.8-0.8-15.7c0.3-0.6,0.7-1.6,0.8-2.2c0.3-2.1,9.5-11.1,12.2-12c1.5-0.5,5.2-1,8.4-1.1c4.8-0.2,6.6,0.2,10.5,2.5
	c5.3,3.1,6.4,4.2,9.4,9.8c4.4,8.2,2.7,18.8-4,25.1c-1.7,1.6-3.1,3.5-3.1,4.1c0,0.6,1.9,4.4,4.3,8.3s5.5,9.3,6.9,11.8
	c2.5,4.3,5.8,6.7,5.8,4.2c0-0.6,0.6-1.1,1.3-1.1c2,0,13.2-12.2,15.7-17.1c8.1-16,8.4-30.7,0.8-48.4c-3.1-7.2-11.6-18.6-13.9-18.6
	c-0.5,0-1.8-0.9-2.9-2s-2.7-2-3.5-2s-1.5-0.4-1.5-0.9c0-0.5-1-1.1-2.3-1.4s-4.8-1.5-8-2.6C651.3,58.7,639.1,57.8,632,59.1 M2969,175
	c-4.6,5.5-11.2,12.6-14.8,15.7l-6.5,5.7l2.8,0.8c1.5,0.4,3,0.5,3.3,0.2c0.3-0.3-0.4-0.7-1.6-1c-1.8-0.5-0.9-1.7,6.5-9
	c5.2-5.2,8.8-8,9.2-7.3c0.5,0.7,0.9,0.6,1.3-0.5c0.4-1,0.2-1.4-0.4-1c-2.1,1.3-0.8-1,4.1-7.1C2981.1,161.3,2978.2,163.9,2969,175
	 M3076,178.3c0,0.4,0.6,2.2,1.3,4c1.3,3.2,1.3,3.9,0.2,8.5c-0.3,1.2-0.8,3.2-1,4.3c-0.2,1.1-0.7,2.4-1,2.9c-0.8,1.3,0.4,4.1,1.8,4.1
	c0.6,0,3.4,2.3,6.1,5.1c2.7,2.8,5.8,5.5,6.8,6.1c1.5,0.8,1.4,0.3-0.6-3.8c-1.3-2.6-4.6-10.4-7.2-17.3
	C3078.1,180.7,3076,176.3,3076,178.3"/>
<path class="st17" d="M2075.7,48.7c-0.9,0.9-0.8,223.1,0.1,223.7c0.4,0.3,0.8-50.1,0.8-111.9c0-61.8,0-112.4-0.1-112.4
	S2076,48.3,2075.7,48.7 M230,128.4c0,17.6-3.9,26-15.1,32.2l-5.4,3l-28,0.5c-26.2,0.5-28.3,0.6-32,2.6c-5,2.7-6.9,4.7-9.4,10.4
	c-1.9,4.1-2,6.5-2.1,29.2c0,13.6,0.4,25.7,0.9,27c0.5,1.3,2.8,4.3,5.2,6.8c2.4,2.5,3.9,3.8,3.5,3c-0.4-0.8,0.2-0.4,1.4,1
	s1.9,1.9,1.5,1.3c-0.4-0.8-0.1-1,0.9-0.6c0.9,0.3,1.3,1,0.9,1.6c-0.7,1.2,3.6-1,5.3-2.7c0.7-0.7,1-1.4,0.8-1.6
	c-0.2-0.2,0.5-0.5,1.6-0.6c1.1-0.1,2.8-1,3.7-2c0.9-1,2.9-2.4,4.4-3.2c1.5-0.8,2.8-1.8,2.8-2.2s0.7-0.8,1.5-0.8s1.5-0.4,1.5-1
	s0.7-1,1.5-1s1.5-0.4,1.5-0.8c0-0.4,1.2-1.5,2.8-2.4c3.6-2.1,7.3-5.4,6.8-5.9c-0.2-0.2,0.5-0.5,1.6-0.6c1.1-0.1,2.8-1.1,3.8-2.2
	c1-1.1,2.4-2.1,3-2.1s2-0.8,2.9-1.8c0.9-1,2.3-2.1,3.1-2.4c0.8-0.3-3.3-0.6-9.3-0.7L181,212v-3.5V205h15.6c11.9,0,15.9-0.3,17-1.4
	c0.8-0.8,1.2-1.6,1-1.8c-0.2-0.2,0.5-0.5,1.6-0.6c1.1-0.1,2.8-1.1,3.8-2.2c1-1.1,2.4-2.1,3.2-2.1c0.8,0,2.1-0.9,2.9-2s1.9-2,2.5-2
	c0.6,0,2.4-1.2,4-2.6s4.2-3.3,5.8-4.2c1.5-0.9,2.8-2,2.8-2.4c0-0.4,0.6-0.8,1.4-0.8c0.7,0,2.8-1.4,4.5-3c1.7-1.6,3.7-3,4.4-3
	c0.7,0,1.9-0.9,2.7-2s1.9-2,2.5-2c1.8,0,6.5-4.6,5.8-5.6c-0.4-0.5-0.3-0.6,0.2-0.2c1.1,0.9,6.3-2.1,7-3.9c0.3-0.7,0.7-3.7,1-6.6
	c0.4-4,0.3-4.8-0.5-3.3c-0.8,1.6-0.9,1.4-0.6-1.5c0.6-4.9-2.2-16.9-5.3-23.2c-1.7-3.4-4.2-6.3-6.9-8.3c-4.1-2.9-4.9-3-15.7-3.4
	l-11.4-0.4V128.4 M2028.5,185.5c0,36.3,0.1,51,0.3,32.7c0.2-18.3,0.2-48,0-66C2028.6,134.2,2028.5,149.2,2028.5,185.5 M1561,140v12
	l-11.8,0.3l-11.8,0.3l12.3,0.2l12.3,0.2v-12.5c0-6.9-0.2-12.5-0.5-12.5S1561,133.4,1561,140"/>
<path class="st18" d="M167.4,72.3c-0.8,0.5-2.6,0.6-3.9,0.2c-1.4-0.3-2.9,0-3.7,0.8c-0.7,0.7-2.1,1.2-3.1,1.1
	c-1-0.1-1.7,0.3-1.7,0.9c0,0.7-0.9,1.8-2,2.6c-1.5,1-1.7,1.6-0.8,2.2c0.8,0.5,0.3,0.8-1.3,0.9c-1.4,0.1-2,0.3-1.3,0.6
	c1.7,0.7-5.2,7.3-7.6,7.3c-1.1,0-2.2-0.6-2.5-1.3c-0.3-0.7-0.5-0.5-0.6,0.5c-0.1,1.2,0.7,1.8,2.2,1.8c1.2,0,1.7,0.3,1,0.6
	c-0.7,0.3-1,0.9-0.7,1.4c0.3,0.5-0.2,0.9-1.1,0.9s-1.3-0.4-1-1s0.1-1-0.4-1c-1.7,0-1.2,1.8,0.7,2.9c1,0.6,1.2,1,0.6,1.1
	c-0.7,0-1.2,2.7-1.3,7.5L139,110h20.9h20.9l0.4,4l0.4,4l-29.9,0.3c-16.4,0.2-30.1-0.1-30.3-0.5c-0.6-1-1.5-0.9-3.3,0.3
	c-1.3,0.9-1.3,1.1,0,2c1.2,0.8,1,1-1,1c-2,0-2.2,0.2-1,1c1.3,0.8,1.3,1-0.2,1c-0.9,0-1.8-0.4-2-0.8c-0.2-0.5-1.8,0.7-3.6,2.5
	c-1.8,1.8-2.7,3.3-2,3.3s2.1-1.1,3.2-2.5c1-1.4,2.3-2.2,2.7-1.9c1.5,0.9-3.9,5.4-6.4,5.4c-1.4,0-2.4,0.6-2.4,1.5
	c0,0.8,0.3,1.3,0.6,1.1c0.3-0.2,1.3,0,2.1,0.5c1.1,0.7,0.9,0.9-0.9,0.9c-1.3,0-2,0.5-1.7,1c0.3,0.6,0.1,1-0.4,1s-1.1-0.4-1.1-1
	s-0.5-1-1.1-1s-0.8,0.4-0.5,0.9c0.3,0.5,0.2,1.1-0.2,1.3c-0.4,0.2-0.2,0.3,0.5,0.1c0.7-0.2,1.5,0.1,1.8,0.7s-0.4,1-1.7,1
	c-1.3,0-1.8,0.3-1.1,0.6c0.8,0.3,0,1.7-2.2,3.9c-3.7,3.7-6,4.8-3,1.4c1.7-1.9,1.7-2,0.1-2c-0.9,0-1.5,0.4-1.1,0.9
	c0.3,0.5,0.1,1.2-0.4,1.6c-0.6,0.3-0.8,1.7-0.6,3c0.2,1.3-0.1,2.6-0.7,2.8c-1.2,0.4-1.4,20.2-0.3,23.7c0.3,0.8,1.2,4.6,2.1,8.4
	c0.9,3.8,2.5,8.5,3.5,10.6c2.1,4.2,8.3,10,10.6,10c0.8,0,1.3,0.4,1,0.8c-0.3,0.5,0.9,0.6,2.6,0.4c2.1-0.3,2.9-0.1,2.4,0.7
	c-0.5,0.8,1.7,1.1,7.6,1.1l8.3,0l-0.3-12.6c-0.2-9.4,0-12.4,0.9-11.9c0.8,0.5,1,0.1,0.5-1.4c-0.4-1.2-0.2-2.1,0.4-2.1
	c0.6,0,0.8-0.7,0.5-1.5c-0.3-0.8,0.1-1.8,1-2.1c0.9-0.3,1.3-1,1-1.5c-0.3-0.5-0.1-0.9,0.6-0.9s0.9-0.4,0.6-0.8
	c-0.9-1.4,8-9.5,9.5-8.6c0.8,0.5,1,0.4,0.6-0.3c-0.8-1.3,2.1-2.5,3.6-1.6c0.7,0.4,0.8,0.2,0.3-0.7c-0.6-1-0.3-1.2,1.3-0.7
	c1.2,0.3,2.2,0.2,2.2-0.3c0-0.5,7.9-0.9,18.1-0.9c11.8,0,17.8-0.3,17.4-1c-0.3-0.6,0-1.1,0.7-1.1c0.7-0.1-0.3-0.5-2.2-0.9l-3.5-0.7
	l3.8-0.1c2.1-0.1,4.4-0.7,5.2-1.5c1.1-1.1,0.9-1.4-1.7-1.4c-3.5-0.1-5.3-1.2-1.9-1.2c1.2,0,3.6-1.4,5.2-3.1c1.6-1.7,2.9-2.6,2.9-2
	s0.8,1.1,1.8,1c1.1,0,1.3-0.3,0.5-0.6c-0.8-0.3-0.2-1.5,1.9-3.4c1.7-1.6,2.6-2.9,2.1-2.9c-0.6,0-1.3,0.4-1.7,1s-1.1,1-1.6,1
	s-0.7-0.4-0.4-0.9c0.3-0.5-0.2-1.1-1.2-1.4c-1-0.3,0.5-0.6,3.2-0.7c4.8-0.2,4.9-0.3,1.5-1c-2.8-0.6-3-0.8-1-0.9c2-0.1,2.2-0.3,1-1.1
	c-1.2-0.8-1.1-1,0.7-1c1.2,0,2.4-0.6,2.7-1.3c0.4-1,0.5-1,0.6,0c0,0.7,0.9,1.2,1.8,1.2c1.1,0,1.3-0.3,0.5-0.6
	c-0.8-0.3-0.2-1.5,1.8-3.4l3-2.8l-3.3-0.4c-3.2-0.4-3.2-0.4,0.5-0.6c2.1-0.1,4.5-0.8,5.3-1.7c0.8-0.8,1-1.5,0.5-1.5
	c-0.6,0-1.3,0.4-1.6,1s-1.4,1-2.3,1c-1.3,0-1.4-0.2-0.3-0.9c1.2-0.7,1.2-0.9,0-1.4c-0.9-0.4-0.8-0.6,0.5-0.6c1,0,3.1-1.4,4.7-3.1
	c1.9-2,3-2.6,3.3-1.8c0.3,0.8,0.5,0.6,0.6-0.5c0-1-0.5-1.8-1.2-1.8c-0.9,0-1-0.2-0.1-0.8c0.8-0.5,1.3-4.7,1.5-11.9
	c0.2-6.5-0.1-10.9-0.6-10.6c-0.5,0.3-0.7-0.4-0.3-1.6c0.3-1.2,0.2-1.9-0.2-1.7c-1,0.6-2.2-2.4-1.4-3.6c0.3-0.5,0.2-0.8-0.2-0.7
	c-1,0.3-5.9-4.5-5.6-5.5c0.1-0.4-0.1-0.7-0.5-0.6c-2,0.3-3.3-0.2-2.8-1.1c0.4-0.6-0.1-0.7-0.9-0.4c-0.9,0.3-1.6,0.2-1.6-0.3
	s-0.8-1-1.8-1.1s-4.7-0.6-8.3-1.2C190.5,71.8,169.3,71.3,167.4,72.3 M152.2,82.7c0.2,0.5-0.1,0.8-0.5,0.8c-1.2,0-3.8,5.6-3.1,6.8
	c0.4,0.7,0,0.8-1.1,0.4c-1.5-0.6-1.6-0.4-0.6,0.7c0.6,0.8,1.4,2.4,1.6,3.6c0.5,2.8,2.5,5.1,3.6,4.4c0.5-0.3,0.9,0,0.9,0.7
	c0,0.7,0.3,0.9,0.7,0.6s1.3-0.1,2.1,0.5c0.9,0.7,1.7,0.8,2.1,0.2c0.4-0.5,1.3-1.1,2.2-1.2c2.4-0.5,6-5.1,6-7.9
	c0-2.9-3.7-8.6-5.1-7.8c-0.5,0.3-0.9,0.1-0.9-0.5c0-0.6-1.3-1-2.8-0.9c-1.5,0.1-3.3-0.1-4-0.6C152.5,82.2,152.1,82.2,152.2,82.7
	 M2433.5,160c0,26.7,0.1,37.6,0.3,24.3c0.2-13.3,0.2-35.2,0-48.5C2433.6,122.4,2433.5,133.3,2433.5,160 M2995.5,122.5
	c-2.2,0.7-8.5,2.8-14.1,4.5c-6.7,2.1-10.9,4-12.4,5.6c-1.3,1.4-2.9,2.5-3.5,2.5s-1.7,0.7-2.4,1.5c-1.5,1.8,0.2,1.6,12-2
	c21.7-6.6,22.3-6.9,23.7-10.3c0.7-1.8,1.2-3.2,1-3.1C2999.6,121.1,2997.7,121.7,2995.5,122.5"/>
<path class="st19" d="M1146.4,340.5c0,14.3,0.1,20,0.3,12.7c0.2-7.3,0.2-19,0-26C1146.6,320.2,1146.4,326.2,1146.4,340.5"/>
</svg>
