<?xml version="1.0" encoding="utf-8"?>
<!-- Generator: Adobe Illustrator 23.0.1, SVG Export Plug-In . SVG Version: 6.00 Build 0)  -->
<svg version="1.1" id="Layer_1" xmlns="http://www.w3.org/2000/svg" xmlns:xlink="http://www.w3.org/1999/xlink" x="0px" y="0px"
	 viewBox="0 0 595.3 256" style="enable-background:new 0 0 595.3 256;" xml:space="preserve">
<style type="text/css">
	.st0{fill:#0F600F;}
	.st1{fill:#7FBE7F;}
	.st2{fill:#5AA05A;}
	.st3{fill:#75B675;}
	.st4{fill:#79B979;}
	.st5{fill:#97D297;}
	.st6{fill:#A1DAA1;}
	.st7{fill:#559C55;}
	.st8{fill:#86C486;}
	.st9{fill:#76B776;}
	.st10{fill:#388338;}
	.st11{fill:#509750;}
	.st12{fill:#9CD69C;}
	.st13{fill:#4D954D;}
	.st14{fill:#8DCA8D;}
	.st15{fill:#6FB16F;}
	.st16{fill:#539A53;}
	.st17{fill:#337F33;}
	.st18{fill:#92CE92;}
	.st19{fill:#6AAD6A;}
	.st20{fill:#479047;}
	.st21{fill:#5EA35E;}
	.st22{fill:#64A864;}
	.st23{fill:#3D873D;}
	.st24{fill:#418B41;}
	.st25{fill:#2E7B2E;}
	.st26{fill:#126212;}
	.st27{fill:#FEFEFE;}
	.st28{fill:#72B472;}
	.st29{fill:#6EB06E;}
</style>
<path class="st0" d="M178.9,210.3c-0.2-37.6-0.2-74.7-0.3-111.9c0-15,0-30,0-45c0-22.8,21.6-44.4,44.5-44.4c50.3,0,100.7,0,151,0
	c22.9,0,44.6,21.6,44.6,44.3c0,49.7-0.3,99.3,0.1,149c0.2,20.4-15.1,40.1-35.1,45.5c-3.2,0.8-6.5,1.2-9.8,1.2
	c-49.7,0.1-99.3-0.2-149,0.2c-20.7,0.2-40.9-16.3-45.3-36.5C179.4,212,179.2,211.4,178.9,210.3 M324.6,241c5,0,10,0,16,0
	c4.7,0,9.4,0,15,0c5,0,10,0,15.9,0c21.7-0.4,39-18.1,39.1-40.9c0-5,0-10,0-16c0-4.7,0-9.4,0-15c0-4.7,0-9.4,0-15c0-5-0.1-10,0-16
	c0-5.7-0.1-11.4,0-18c0-6.7-0.1-13.4,0-21c0-6.7-0.1-13.4,0-21c0-5.4-0.1-10.7,0-17c-0.5-4.7-1.1-9.5-1.7-14.9c-2-4.1-4-8.2-6.3-13
	c-3.3-3-6.6-6-10.6-9.3c-4.1-1.9-8.3-3.7-13.2-5.8c-4.4-0.3-8.8-0.5-14.1-0.9c-5,0-10.1,0.1-16,0c-6.7,0-13.4,0.1-21,0
	c-7.4,0-14.7,0.1-23,0c-5.7,0-11.4,0.1-18,0c-5,0-10,0.1-16,0c-4.7,0-9.4,0.1-15,0c-4.7,0-9.4,0.1-15,0c-4.8,0-9.6-0.1-14.4,0
	c-18.8,0.3-34.8,12.8-38.5,31.3c-1.5,7.7-0.7,15.8-1.2,24.6c0,4.7,0.1,9.4,0,15c0,5,0.1,10,0,16c0,5,0.1,10.1,0,16
	c0,5.4,0.1,10.7,0,17c0,7.4,0.1,14.7,0,23c0,8.4,0.1,16.7,0,26c0.4,7.7,0.7,15.4,1,23.8c2,4.5,3.9,8.9,6.2,14
	c3.2,3.2,6.5,6.3,10.1,10c3.9,1.8,7.8,3.5,12.3,5.7c5.1,0.4,10.3,0.9,16.3,1.4c4.4,0,8.7-0.1,14,0c5,0,10-0.1,16,0
	c4.7,0,9.4-0.1,15,0c4.7,0,9.4-0.1,15,0c5,0,10-0.1,16,0C313.6,240.9,318.6,240.9,324.6,241z"/>
<path class="st1" d="M328.6,17.2c6.7,0,13.4-0.1,20.5,0.3c-0.5,1.9-1.2,3.6-2.4,4.9c-23.3,23.3-46.6,46.7-69.9,69.9
	c-1.3,1.3-3.3,1.9-5.1,2.3c-0.6-5.8-1.1-11.2-1.4-16.9c18.9-18.9,37.6-37.5,56.2-56.2C327.6,20.4,328,18.6,328.6,17.2z"/>
<path class="st2" d="M245.6,240.8c-4.4,0-8.7,0.1-13.5-0.3c0.6-2,1.5-3.9,2.8-5.2c6.5-6.7,13.2-13.1,19.6-19.8
	c1.3-1.4,2.2-3.2,3.6-4.8c1.9,0.4,3.3,0.8,4.8,1c6.2,1,8.6-1,8.7-7.3c0-2.8,0.1-5.7,0.5-8.5c1-0.5,1.8-0.8,2.4-1.4
	c14.4-14.3,28.7-28.6,43-43c1-1,1.4-2.5,2.4-4c4.7-1,9.2-1.8,13.7-2.2c0,2.8,0,5.2-0.4,7.7c-1.4,0.8-2.5,1.5-3.5,2.4
	c-27.1,27.1-54.2,54.2-81.3,81.3C247.2,238,246.5,239.5,245.6,240.8z"/>
<path class="st3" d="M365.6,17.2c4.4,0.3,8.8,0.5,13.6,1.3c-0.6,2.3-1.2,4.5-2.6,5.9c-8.5,8.7-17.1,17.2-25.6,25.8
	c-1.4,1.5-2.4,3.5-3.9,5.1c-2-0.4-3.6-0.9-5.3-1.2c-5.8-0.8-8,1-8.2,6.8c0,1-0.1,2-0.5,3c-1,0.5-1.8,0.8-2.4,1.4
	c-16.7,16.6-33.3,33.2-49.9,50c-1,1.1-1.4,2.8-2.4,4.4c-2.5,0.5-4.7,0.8-6.9,0.7c0.1-3.5,0.1-6.5,0.5-9.5c1.5-1,2.8-1.8,3.8-2.8
	c29-29,58-57.9,86.9-87C364,20.1,364.7,18.5,365.6,17.2z"/>
<path class="st4" d="M365.2,17.1c-0.4,1.4-1.1,3-2.3,4.1c-28.9,29-57.9,58-86.9,87c-1,1-2.3,1.8-3.9,2.3c-0.3-5.4-0.3-10.5-0.3-15.5
	c1.7-0.9,3.7-1.5,5-2.8c23.4-23.2,46.7-46.5,69.9-69.9c1.2-1.2,1.9-3,2.9-4.8C354.7,17.1,359.7,17.1,365.2,17.1z"/>
<path class="st5" d="M186.8,103c0-5-0.1-10,0.3-15.6c1.3-1.2,2.4-1.7,3.2-2.5c21.4-21.3,42.7-42.7,64-64c1-1,1.6-2.4,2.4-3.7
	c4.7,0,9.4-0.1,14.5,0.3c-0.6,2-1.4,3.9-2.8,5.2c-8.7,8.9-17.6,17.6-26.3,26.5c-1.3,1.4-2.3,3.1-3.8,4.8c-1.8,2.1-3.3,4.1-5.2,6.1
	c-1.7,1.2-3.2,2.2-4.5,3.5c-11.4,11.4-22.7,22.8-34.2,34.1C192.2,99.8,189.4,101.2,186.8,103z"/>
<path class="st6" d="M186.8,72c0.3-7.9-0.5-16,1-23.7c3.6-18.4,19.7-31,38.5-31.3c4.8-0.1,9.6,0,14.9,0.4c-0.5,1.9-1.2,3.6-2.4,4.9
	c-15.6,15.7-31.2,31.3-46.9,46.9C190.5,70.5,188.5,71.1,186.8,72z"/>
<path class="st7" d="M246.1,240.9c0.4-1.4,1.2-3,2.3-4.1c27.1-27.1,54.2-54.2,81.3-81.3c0.9-0.9,2.1-1.6,3.5-2
	c0.4,5.4,0.3,10.5-0.1,15.5c-1.3,0.7-2.3,1.3-3.1,2.1c-22,22-44,44-66,66c-1,1-1.6,2.4-2.4,3.7C256.6,240.9,251.6,240.9,246.1,240.9
	z"/>
<path class="st8" d="M328.2,17.1c-0.2,1.5-0.5,3.3-1.6,4.3c-18.6,18.7-37.3,37.2-56.4,55.8c-3.1-3.1-5.9-6.2-8.9-9.4
	c-0.7-1-1.2-1.9-1.3-3c14.8-14.6,29.3-28.9,43.7-43.4c1.1-1.1,1.4-2.8,2.1-4.3C313,17.1,320.3,17.1,328.2,17.1z"/>
<path class="st1" d="M186.8,185c0-8.4-0.1-16.7,0.3-25.6c1.8-1.7,3.3-2.7,4.6-4c12.2-12.1,24.2-24.3,36.4-36.3
	c1.4-1.4,3.6-2.1,5.4-2.7c0,8.8,0,17.2-0.4,25.6c-2.3,1.5-4.6,2.6-6.3,4.3c-11.8,11.7-23.5,23.5-35.3,35.2
	C190.2,182.9,188.4,183.9,186.8,185z"/>
<path class="st9" d="M186.7,185.4c1.6-1.6,3.4-2.5,4.8-3.9c11.8-11.7,23.5-23.5,35.3-35.2c1.7-1.7,4-2.9,6.4-3.9
	c0.4,8.4,0.3,16.5-0.1,24.5c-2,1.1-3.8,1.9-5.1,3.2c-11.9,11.8-23.7,23.6-35.5,35.4c-1.4,1.3-3.1,2.3-4.7,3.4
	C187.4,201.3,187,193.6,186.7,185.4z"/>
<path class="st8" d="M233.5,116c-1.8,1-3.9,1.7-5.4,3.1c-12.2,12-24.3,24.2-36.4,36.3c-1.3,1.3-2.8,2.3-4.5,3.5
	c-0.4-7.3-0.4-14.7-0.1-22.5c1.8-1.7,3.3-2.7,4.6-3.9c11.8-11.7,23.5-23.5,35.3-35.2c1.8-1.8,4.3-2.9,6.6-3.8
	C233.5,101.3,233.5,108.7,233.5,116z"/>
<path class="st10" d="M354.6,240.9c-4.7,0-9.4,0-14.5-0.3c0.7-1.8,1.7-3.3,3-4.5c6.1-6.2,12.4-12.3,18.5-18.6c1.4-1.4,2-3.5,3.4-5.4
	c5.2,0,6.8-2.8,7.1-7.1c2-1.1,3.8-1.9,5.2-3.2c9.6-9.4,19-19,28.6-28.4c1.4-1.3,3.1-2.3,4.7-3.4c0,4.7,0,9.4-0.3,14.6
	c-1.3,1.2-2.4,1.7-3.2,2.5c-16.7,16.7-33.4,33.4-50.1,50.1C356,238.2,355.4,239.7,354.6,240.9z"/>
<path class="st11" d="M262.1,240.9c0.3-1.3,0.9-2.7,1.9-3.7c22-22,44-44.1,66-66c0.8-0.8,1.8-1.4,3.2-1.6c0.4,4.8,0.4,9.1,0.1,13.5
	c-1.2,0.6-2.1,1-2.8,1.6c-17.3,17.3-34.6,34.5-51.8,51.9c-1.1,1.1-1.4,2.8-2.1,4.3C271.9,240.9,267.2,240.9,262.1,240.9z"/>
<path class="st12" d="M186.7,72.5c1.8-1.4,3.8-1.9,5.1-3.2c15.7-15.6,31.3-31.2,46.9-46.9c1.2-1.2,1.9-3,2.9-4.8
	c4.7-0.4,9.4-0.4,14.5-0.4c-0.3,1.3-0.9,2.7-1.9,3.7c-21.3,21.4-42.7,42.7-64,64c-0.8,0.8-1.8,1.3-3.1,2.1
	C186.8,82.3,186.7,77.6,186.7,72.5z"/>
<path class="st13" d="M277.1,240.9c0.2-1.5,0.5-3.3,1.6-4.4c17.2-17.3,34.5-34.6,51.8-51.9c0.7-0.7,1.6-1.1,3-1.3
	c2,3.7,3.5,7.2,4.6,10.7c-1,0.5-1.8,0.8-2.4,1.4c-14,14-28.1,28-42,42.1c-0.9,0.9-1.4,2.2-2,3.3
	C286.9,240.9,282.2,240.9,277.1,240.9z"/>
<path class="st14" d="M305.2,17.1c-0.2,1.5-0.5,3.3-1.6,4.3c-14.4,14.5-28.9,28.8-43.9,43.2c-3.6-2.8-6.7-5.5-9.4-8.4
	c11.6-11.6,22.8-22.9,34-34.3c1.3-1.4,2.3-3.1,3.4-4.7C293.3,17.1,299,17.1,305.2,17.1z"/>
<path class="st13" d="M410.5,100c0,6.7,0.1,13.4-0.3,20.6c-1.8,1.7-3.3,2.7-4.5,3.9c-9.7,9.7-19.4,19.4-29.2,29.1
	c-1.4,1.3-3.1,2.3-4.8,2.9c0-7.5,0-14.5,0.4-21.5c2-1.1,3.8-1.9,5.2-3.2c9.5-9.4,19-18.9,28.5-28.4
	C407.2,102.1,408.9,101.1,410.5,100z"/>
<path class="st15" d="M187.7,209.4c1.6-1.5,3.4-2.4,4.7-3.8c11.9-11.8,23.6-23.6,35.5-35.4c1.3-1.3,3.2-2.1,5.2-2.8
	c0.6,6.1,0.8,11.7,0.6,17.4c-2.1,1.4-3.9,2.5-5.4,3.9c-11.6,11.4-23.2,22.9-34.8,34.3C191.6,218.7,189.6,214.2,187.7,209.4z"/>
<path class="st16" d="M410.5,99.5c-1.6,1.6-3.4,2.5-4.7,3.9c-9.5,9.4-19,19-28.5,28.4c-1.3,1.3-3.2,2.1-5.2,2.7
	c-0.4-6.8-0.3-13.2,0-19.6c1.7-1.2,3.2-2.2,4.5-3.5c9.7-9.7,19.4-19.4,29.2-29.1c1.4-1.3,3.1-2.3,4.7-3.4
	C410.5,85.7,410.5,92.4,410.5,99.5z"/>
<path class="st14" d="M233.5,93c-2.2,1.4-4.7,2.5-6.5,4.3c-11.8,11.6-23.5,23.5-35.3,35.2c-1.3,1.3-2.8,2.3-4.5,3.5
	c-0.4-5.3-0.4-10.7-0.1-16.5c1.8-1.7,3.3-2.7,4.6-4c12.2-12.1,24.2-24.3,36.5-36.3c1.4-1.4,3.6-2.1,5.4-2.7
	C233.5,82.3,233.5,87.7,233.5,93z"/>
<path class="st17" d="M355.1,240.9c0.3-1.3,0.9-2.7,1.9-3.7c16.7-16.8,33.4-33.5,50.1-50.1c0.8-0.8,1.9-1.3,3.1-2
	c0.3,5,0.4,10,0,15.5c-1.8,1.3-3.4,1.9-4.5,2.9c-11,10.9-21.9,21.8-32.7,32.8c-1.2,1.2-1.6,3.1-2.4,4.7
	C365.6,240.9,360.6,241,355.1,240.9z"/>
<path class="st18" d="M233.5,76c-1.8,1-3.9,1.7-5.4,3.1c-12.2,12-24.3,24.2-36.5,36.3c-1.3,1.3-2.8,2.3-4.5,3.5
	c-0.4-5-0.4-10-0.4-15.5c2.6-2.2,5.5-3.7,7.7-5.8c11.5-11.3,22.8-22.7,34.2-34.1c1.3-1.3,2.8-2.3,4.6-3C233.5,66,233.5,71,233.5,76z
	"/>
<path class="st19" d="M392.6,24.1c3.3,3,6.6,6,9.9,9.6c-10.7,11.3-21.2,22.1-31.9,32.6c-1.5,1.5-4.1,1.8-6.4,2.6
	c-1-0.4-1.8-0.7-2.8-1.1c-1.4-2-2.6-3.8-3.6-5.9c2.4-3,4.4-5.8,6.9-8.3c8.2-8.3,16.5-16.5,24.6-24.8
	C390.6,27.5,391.5,25.7,392.6,24.1z"/>
<path class="st20" d="M371.8,157c1.6-1.1,3.4-2,4.7-3.4c9.8-9.7,19.4-19.4,29.2-29.1c1.3-1.3,2.8-2.3,4.5-3.5
	c0.4,5.6,0.4,11.3,0,17.5c-1.8,1.6-3.3,2.7-4.5,3.9c-9.2,9.1-18.2,18.3-27.4,27.3c-1.8,1.8-4.3,2.8-6.5,3.7
	C371.7,167.7,371.7,162.3,371.8,157z"/>
<path class="st20" d="M292.1,240.9c0.2-1.2,0.7-2.5,1.6-3.4c14-14.1,28-28.1,42-42.1c0.6-0.6,1.4-0.9,2.6-1.2
	c2.9,2.2,5.2,4.2,7.3,6.6c-11.5,11.9-22.9,23.4-34.3,34.9c-1.5,1.5-2.5,3.4-3.7,5.1C302.6,240.9,297.6,240.9,292.1,240.9z"/>
<path class="st19" d="M193.7,223.5c11.5-11.8,23-23.2,34.7-34.6c1.5-1.5,3.4-2.6,5.6-3.6c2.3,4.1,4.1,7.9,5.6,11.8
	c-1.2,0.6-2.2,0.9-2.9,1.6c-10.5,10.4-20.9,20.8-31.3,31.3c-0.9,0.9-1.2,2.3-1.8,3.4C200.3,230.1,197.1,226.9,193.7,223.5z"/>
<path class="st2" d="M410.5,78.5c-1.6,1.6-3.4,2.5-4.7,3.9c-9.8,9.6-19.4,19.4-29.2,29.1c-1.3,1.3-2.8,2.3-4.6,3
	c-0.3-6.1-0.3-11.8,0.1-17.5c2-1.1,3.8-1.9,5.1-3.2c9.5-9.4,19-18.9,28.5-28.4c1.4-1.3,3.1-2.3,4.7-3.4
	C410.5,67.3,410.5,72.7,410.5,78.5z"/>
<path class="st21" d="M410.5,61.5c-1.6,1.6-3.4,2.5-4.7,3.9c-9.5,9.4-18.9,19-28.5,28.4c-1.3,1.3-3.2,2.1-5.2,2.7
	c-0.6-5.4-0.7-10.4-0.5-15.4c1.9-1.2,3.7-2.2,5-3.6c9.1-9,18.1-18.1,27.2-27c1.5-1.4,3.5-2.4,5.2-3.5
	C409.5,51.6,410,56.4,410.5,61.5z"/>
<path class="st22" d="M203.8,233.5c0.4-1.4,0.7-2.8,1.6-3.7c10.4-10.5,20.8-20.9,31.3-31.3c0.7-0.7,1.7-1,3.2-1.4
	c2.7,1.7,4.8,3.3,6.9,5.1c0.4,0.7,0.7,1.1,0.9,1.9c-1.5,2.1-2.8,4.1-4.4,5.8c-7.8,7.9-15.7,15.7-23.5,23.6c-1.6,1.6-2.7,3.7-4.1,5.6
	C211.7,237.3,207.8,235.6,203.8,233.5z"/>
<path class="st22" d="M408.9,46.5c-1.7,1.5-3.7,2.5-5.1,3.9c-9.1,9-18.1,18.1-27.2,27c-1.4,1.4-3.1,2.4-5.2,3.3
	c-2.7-4.1-4.8-7.9-7-11.7c2.1-0.9,4.7-1.2,6.2-2.7c10.7-10.5,21.3-21.3,32-32.3C404.8,37.9,406.8,42,408.9,46.5z"/>
<path class="st15" d="M392.3,24c-0.8,1.8-1.8,3.5-3.1,4.9c-8.2,8.3-16.5,16.4-24.6,24.8c-2.4,2.5-4.5,5.3-7.2,8.1
	c-3.6-2-6.8-4.2-9.9-6.3c1.2-1.8,2.1-3.7,3.5-5.2c8.5-8.7,17.2-17.1,25.6-25.8c1.4-1.4,2-3.6,3-5.8C383.8,20.1,387.9,21.9,392.3,24z
	"/>
<path class="st23" d="M410.6,169.5c-1.6,1.6-3.4,2.5-4.8,3.9c-9.6,9.4-19,19-28.6,28.4c-1.3,1.3-3.2,2.1-5.2,2.7
	c-0.4-5.1-0.3-9.8,0-14.6c1.7-1.2,3.3-2.2,4.5-3.4c9.5-9.5,19-19,28.6-28.4c1.4-1.4,3.6-2.1,5.4-3.1
	C410.6,159.7,410.6,164.4,410.6,169.5z"/>
<path class="st24" d="M410.6,154.5c-1.8,1.5-4,2.2-5.4,3.6c-9.6,9.4-19,19-28.6,28.4c-1.3,1.3-2.8,2.3-4.6,3
	c-0.3-5.4-0.3-10.5-0.3-15.5c2.2-1.4,4.7-2.4,6.5-4.2c9.2-9,18.3-18.2,27.4-27.3c1.3-1.3,2.8-2.3,4.5-3.4
	C410.5,144,410.6,149,410.6,154.5z"/>
<path class="st24" d="M308.1,240.9c0.8-1.7,1.8-3.6,3.3-5.1c11.3-11.6,22.7-23.1,34.6-34.8c1,0.1,1.5,0.5,1.8,1
	c1.5,2.2,3.2,4.1,4.9,6.5c-1.1,2-1.9,3.8-3.2,5.2c-7.4,7.6-15,15-22.4,22.5c-1.3,1.4-2.3,3.1-3.4,4.7
	C318.6,240.9,313.6,240.9,308.1,240.9z"/>
<path class="st18" d="M287.2,17.1c-0.7,1.6-1.6,3.4-3,4.8c-11.2,11.4-22.4,22.8-34.3,34.2c-4.2-0.7-7.7-1.5-11.2-2.3
	c1.1-1.6,2.1-3.3,3.4-4.7c8.7-8.9,17.6-17.6,26.3-26.5c1.3-1.3,2.2-3.2,3.2-5.2C276.7,17.1,281.7,17.1,287.2,17.1z"/>
<path class="st25" d="M371.1,241c0.3-1.6,0.8-3.5,1.9-4.7c10.8-11,21.8-21.9,32.7-32.8c1.1-1.1,2.7-1.7,4.5-2.5
	C410.5,222.8,393.2,240.5,371.1,241z"/>
<path class="st21" d="M215.9,239.3c1-2.1,2.2-4.2,3.8-5.8c7.8-7.9,15.7-15.7,23.5-23.6c1.6-1.6,2.8-3.6,4.7-5.6
	c3.6,2,6.7,4.2,9.9,6.4c-1.1,1.6-1.9,3.5-3.2,4.8c-6.5,6.7-13.2,13.1-19.6,19.8c-1.3,1.4-2.2,3.2-3.2,5.2
	C226.5,240.4,221.4,240,215.9,239.3z"/>
<path class="st23" d="M324.1,240.9c0.7-1.6,1.6-3.4,2.9-4.8c7.4-7.6,15-15,22.4-22.5c1.3-1.3,2.1-3.2,3.5-5.1
	c4.1,1,7.9,2.3,11.7,3.5c-1,1.8-1.6,3.9-3,5.3c-6.1,6.3-12.3,12.4-18.5,18.6c-1.3,1.3-2.3,2.8-3.4,4.5
	C334.6,240.9,329.6,240.9,324.1,240.9z"/>
<path class="st26" d="M261.5,68c2.8,3.1,5.5,6.2,8.4,9.6c0.7,5.7,1.2,11.1,1.8,16.9c0,5.5,0,10.5,0,16c0,3.5-0.1,6.5-0.5,10.1
	c-2.7,1-4.9,1.3-7.6,1.8c0-9.4,0.3-18.3-0.1-27.3C263.2,86.1,262.2,77,261.5,68z"/>
<path class="st27" d="M261.3,67.8c1,9.2,1.9,18.2,2.3,27.3c0.4,8.9,0.1,17.9,0.1,27.3c2.6-0.4,4.9-0.8,7.6-1.3
	c2.6-0.5,4.8-0.8,7.7-1.3c4.5-0.8,8.2-1.5,12.3-2.2c6-1.1,11.5-2.1,17.4-3.1c8.5-1.4,16.6-2.8,24.8-4.2c0-8,0-15.6,0.1-23.7
	c0-4.5,0-8.5,0-13c0-3.5,0-6.5-0.1-9.6c0.1-1,0.1-2,0.2-3c0.2-5.8,2.3-7.7,8.2-6.8c1.6,0.2,3.2,0.7,5.3,1.2
	c3.6,2.3,6.7,4.4,10.2,6.7c1.5,1.9,2.6,3.7,4.1,6.1c0.9,4.8,2.2,9.1,2.2,13.3c0.2,23.8,0.1,47.6,0.1,71.4c0,14.6,0,29.3,0,43.9
	c0,5.9-2.2,7.9-8,7c-2.6-0.4-5.1-1.3-7.7-2c-0.5-0.3-1-0.7-1.8-1.1c-2.6-2.1-4.9-4.1-7.4-6.4c-1.7-3.7-3.2-7.1-4.9-10.9
	c-0.2-4.7-0.2-9-0.3-13.9c0-5.5,0-10.5,0-16c0-2.9,0-5.2,0.1-8.5c0-3.6,0-6.3,0-9.4c-23.8,4.2-46.8,8.3-70,12.4
	c0,16.5,0,32.6,0,48.7c0,6.2-2.2,8.1-8.3,7.2c-2.9-0.5-5.8-1.2-8.7-1.8c-2-1.6-4.1-3.2-6.4-4.9c-2.1-4-3.9-7.8-5.9-11.9
	c-0.3-5.9-0.5-11.6-0.8-17.6c0-8.5,0-16.5,0-25c0-8.8,0-17.2,0-26c0-7.8,0-15.2,0-23c0-5.8,0-11.2,0-17c0-5.5,0-10.5,0-16
	c1.4-2.5,2.9-4.4,4.8-6.5c3.9,0.7,7.4,1.5,11.3,2.4c3.4,2.8,6.5,5.6,9.8,8.5C260.1,65.9,260.5,66.8,261.3,67.8z"/>
<path class="st26" d="M246.7,202.2c2.8,0.4,5.7,1.1,8.6,1.6c6.1,1,8.3-1,8.3-7.2c0-16.1,0-32.2,0-48.7c23.2-4.1,46.2-8.2,70-12.4
	c0,3,0,5.8-0.1,8.9c-4.5,1.3-8.9,2.1-14.1,3.1c-7.1,1.3-13.5,2.4-20.2,3.6c-8,1.3-15.6,2.7-23.3,3.9c-3.1,0.5-4.6,1.7-4.4,5.1
	c0.3,6.6,0.2,13.2,0.2,20.3c0,5.5,0,10.5,0.1,15.5c-0.1,2.8-0.1,5.7-0.2,8.5c-0.1,6.3-2.5,8.4-8.7,7.3c-1.5-0.2-2.9-0.6-4.8-1
	c-3.6-2.3-6.7-4.4-10.1-6.8C247.4,203.3,247.1,202.9,246.7,202.2z"/>
<path class="st21" d="M272.1,195.9c-0.4-5-0.4-10-0.1-15.5c9.1-9,17.9-17.5,26.5-26.1c0.7-0.7,0.7-2.1,1-3.2
	c6.4-1.1,12.7-2.2,19.5-3.3c-0.3,1.2-0.7,2.8-1.7,3.7c-14.3,14.4-28.6,28.7-43,43C274,195.1,273.2,195.4,272.1,195.9z"/>
<path class="st28" d="M333.1,64.1c0.4,3,0.4,6,0.1,9.6c-1,0.8-1.6,1-2.1,1.5c-12.9,12.8-25.8,25.7-38.6,38.6
	c-0.9,0.9-1.2,2.6-1.8,3.9c-3.7,0.7-7.4,1.4-11.5,2.1c0.2-1.4,0.5-3.2,1.6-4.2c16.6-16.7,33.2-33.3,49.9-50
	C331.3,64.9,332.1,64.6,333.1,64.1z"/>
<path class="st0" d="M347.7,202c2.7,0.5,5.3,1.4,7.9,1.8c5.8,0.9,8-1,8-7c0-14.6,0-29.3,0-43.9c0-23.8,0.1-47.6-0.1-71.4
	c0-4.2-1.3-8.5-2-13.1c0.8-0.1,1.6,0.1,2.6,0.5c2.4,4,4.6,7.8,6.9,11.9c0.3,5.3,0.5,10.2,0.7,15.7c0,6.2,0,11.8,0,18
	c0,6.8,0,13.2,0,20c0,7.5,0,14.5,0,22c0,5.8,0,11.2,0,17c0,5.5,0,10.5,0,16c0,5.2,0,9.8,0,15c0.1,4.7-1.5,7.5-6.7,7.5
	c-4.2-1.2-7.9-2.5-12.1-3.8C350.9,206.1,349.2,204.2,347.7,202z"/>
<path class="st29" d="M291.2,117.5c0.1-1.3,0.4-2.9,1.3-3.8c12.8-12.9,25.7-25.8,38.6-38.6c0.4-0.4,1.1-0.7,2-1
	c0.4,4,0.4,8,0.1,12.5c-8.7,8.5-17,16.5-25.1,24.7c-0.5,0.5,0.1,2.1,0.2,3.2C302.7,115.4,297.2,116.5,291.2,117.5z"/>
<path class="st19" d="M308.6,114.4c-0.5-1.1-1.1-2.6-0.6-3.1c8.2-8.1,16.5-16.1,25.1-24.2c0.3,7.5,0.3,15.1,0.3,23.1
	C325.2,111.6,317.1,113,308.6,114.4z"/>
<path class="st22" d="M299.2,151.2c0.1,1,0.1,2.5-0.6,3.2c-8.7,8.6-17.4,17-26.5,25.6c-0.4-6.6-0.3-13.2-0.6-19.8
	c-0.2-3.4,1.3-4.6,4.4-5.1C283.6,153.9,291.2,152.5,299.2,151.2z"/>
</svg>
