<?xml version="1.0" encoding="utf-8"?>
<!-- Generator: Adobe Illustrator 23.0.1, SVG Export Plug-In . SVG Version: 6.00 Build 0)  -->
<svg version="1.1" id="Layer_1" xmlns="http://www.w3.org/2000/svg" xmlns:xlink="http://www.w3.org/1999/xlink" x="0px" y="0px"
	 viewBox="0 0 245.1 256" style="enable-background:new 0 0 245.1 256;" xml:space="preserve">
<style type="text/css">
	.st0{fill:#22A366;}
	.st1{fill:#FAFAFA;}
	.st2{fill:#117C41;}
	.st3{fill:#33C481;}
	.st4{fill:#797774;}
	.st5{fill:#21A366;}
	.st6{fill:#24A467;}
	.st7{fill:#F6FAF8;}
</style>
<path class="st0" d="M148.1,147.2c27.9-4.9,56-1.2,84.1-1.9c3.3-0.1,6.7,3.9,10.3,5.9c0.3,6.2,0.3,12.6-0.1,19.4
	c-6.1,0.5-11.6,0.5-17.5,0.5c0,2.5,0,4.3,0,6.1c0,21.8-0.1,43.6,0,65.4c0,5.4-1.5,9.7-6.2,12.6c-0.5,0.3-0.6,1.2-0.9,1.9
	c-28,0-56,0-84.5,0c-1.8-1.8-4-3.5-4.4-5.5c-1.3-6.5-1.9-13.2-2.9-20.3c6.9,0,12.5,0,18.9,0c0-2.2,0-3.9,0-5.7
	c0-20.7-0.2-41.3,0.1-62c0.1-4.8,1.6-9.6,2.3-15C147.5,147.7,147.8,147.5,148.1,147.2 M202.4,148c-13,0-26,0-39,0
	c-11.1,0-15.5,4.3-15.5,15.3c0,21,0,42,0,63c0,1.4,0.1,2.9,0.3,4.8c16.7,0,33.1,0,49.7,0c0,2.8,0,5.1,0,7.4c0,9.5,4.5,15.2,12,15.2
	c7.5,0.1,11.9-5.5,12-15.2c0-0.2,0-0.3,0-0.5c0-28.3,0-56.7,0-85c0-1.6-0.1-3.2-0.2-5.1C215.3,148,209.3,148,202.4,148z"/>
<path class="st1" d="M148.4,146.9c-0.6,0.5-1,0.8-1.3,1.2c-4.8,4.6-5.1,10.6-5.1,16.4c-0.3,18.1-0.1,36.3-0.6,55
	c-36,0.5-71.6,0.5-107.4,0.5c0-12,0-23.4,0.5-34.9c23.8-0.1,47.1-0.1,70.4-0.1c8,0,11-3.1,11-11.2c0-29.8,0-59.6,0-89.4
	c0-8.3-3-11.3-11.5-11.3c-23.5,0-47-0.1-70.5-0.6c0-9.4,0-18.4,0.5-27.4c48.4,0,96.4,0,144.4,0.5c0,32.4,0,64.4-0.1,96.3
	c-7.1,0.4-14.3,0.4-21.4,1.3C154.4,143.5,151.6,145.4,148.4,146.9z"/>
<path class="st2" d="M33.9,72.9c23.5,0,47,0.1,70.4,0.1c8.4,0,11.5,3,11.5,11.3c0,29.8,0,59.6,0,89.4c0,8.1-3.1,11.2-11,11.2
	c-23.3,0-46.6,0-70.8,0c-1.6,0-2.4,0-3.2,0.1c-6,0-12,0-18-0.1c-6.1-0.1-9.6-3.6-9.5-9.6c0.2-30.6,0.4-61.2,0.5-91.7
	C3.9,75.4,6.2,73,14.4,73c5.2,0,10.3,0,16.3,0C32.4,72.9,33.2,72.9,33.9,72.9 M75.9,159.6c3.5,0,7.1,0,11.4,0
	c-4.6-7.4-8-14.4-12.7-20.3c-5.8-7.3-6.1-13.4-0.1-20.9c4.7-5.8,8-12.8,12.3-19.9c-3,0-5,0.3-6.9-0.1c-5.3-0.9-8.1,1.5-10.2,6.2
	c-2.6,5.6-5.9,10.9-9.1,16.7c-3.5-7-6.7-13.4-10.1-19.7c-0.7-1.3-2.1-2.9-3.3-3c-4-0.4-8.1-0.1-13.1-0.1c5.4,9,9.9,17.3,15.1,25.2
	c2.6,3.9,2.4,6.8-0.3,10.5c-5,7-9.5,14.5-14.2,21.7c-0.6,1-1.1,2.2-1.8,3.6c3.1,0,5.7-0.3,8.1,0.1c4.7,0.7,7.1-1.4,9.1-5.5
	c2.9-6,6.4-11.8,9.9-18.1c3.9,7.2,7.2,13.7,10.8,20.1C71.8,157.5,73.7,158.4,75.9,159.6z"/>
<path class="st3" d="M31,42c-0.1-6.9-0.4-13.7-0.3-20.6c0-1.1,1.5-2.3,2.4-3.3c0.3-0.3,1.3-0.1,1.9-0.1c48.6,0,97.2,0,146.2,0.5
	c0.5,3.2,0.5,5.9,0.5,9c-0.1,5.1-0.1,9.8-0.6,14.5C130.9,42,80.9,42,31,42z"/>
<path class="st1" d="M181.7,42c0.1-4.7,0.1-9.4,0.6-14.5c4.8,0.8,9.3,2.1,13.7,3.9c-0.1,37.1-0.1,73.8-0.2,110.5
	c-4.3,0-8.6,0.1-13.4-0.4c-0.6-32.5-0.6-64.5-0.6-96.9C181.8,43.5,181.7,42.8,181.7,42z"/>
<path class="st1" d="M141.7,223.1c0,1.5,0,3,0,4.8c-5.8,0-11.6,0-17.9,0c0,2.9,0,5.5-0.5,8.6C98.9,237,75,237,51.1,237
	c0-5,0-9.3,0-13.9C81.5,223.1,111.6,223.1,141.7,223.1z"/>
<path class="st4" d="M141.8,222.7c-30.2,0.4-60.3,0.4-90.7,0.4c0,4.6,0,8.9,0,13.9c23.9,0,47.8,0,72.2,0c-0.3,1-1.1,2.9-2,2.9
	C97.1,240,72.8,240,47.9,240c0-5.7,0-11.1,0-16.9c-5.8,0-11.1,0-17.1,0c0-12.6,0-24.9,0-37.6c0.8-0.5,1.5-0.5,2.7-0.5
	c0.4,11.5,0.4,22.9,0.4,34.9c35.8,0,71.4,0,107.3,0C141.8,220.7,141.8,221.5,141.8,222.7z"/>
<path class="st5" d="M181.2,42c0.5,0.7,0.6,1.5,0.2,2.6c-1.2,0.4-1.9,0.5-2.6,0.5c-48,0-96-0.1-144.8-0.1c-1.5,0-2.3,0-3,0
	c0-0.8-0.1-1.5-0.1-2.7C80.9,42,130.9,42,181.2,42z"/>
<path class="st4" d="M196.2,141.9c-0.4-36.7-0.3-73.4,0.1-110.5c1.1-0.4,1.7-0.4,2.4-0.4c0.1,35.9,0.1,71.7,0.1,107.6
	C198.8,139.7,197.4,140.8,196.2,141.9z"/>
<path class="st4" d="M178.8,45.6c0.7-0.5,1.4-0.5,2.5-0.6c0.4,32,0.5,64,0.6,96.4c-0.8,0.5-1.6,0.5-2.8,0.5
	C178.8,109.9,178.8,78,178.8,45.6z"/>
<path class="st6" d="M198.7,30.6c-0.7,0.4-1.4,0.4-2.4,0.3c-4.8-1.3-9.2-2.6-14.1-3.9c-0.4-2.7-0.4-5.3-0.4-8.5
	c4.9,0.8,9.8,1.8,14.6,3.3C200.8,23.4,198.2,27.3,198.7,30.6z"/>
<path class="st4" d="M31,45.5c0.8-0.5,1.5-0.4,2.6-0.4c0.3,9,0.3,17.9,0.4,27.3c-0.7,0.5-1.5,0.5-2.7,0.5
	C30.9,63.9,30.9,54.9,31,45.5z"/>
<path class="st1" d="M202.9,148c6.5,0,12.4,0,18.8,0c0.1,1.9,0.2,3.5,0.2,5.1c0,28.3,0,56.7,0,85c0,0.2,0,0.3,0,0.5
	c0,9.7-4.4,15.3-12,15.2c-7.5-0.1-12-5.7-12-15.2c0-2.3,0-4.6,0-7.4c-16.6,0-33,0-49.7,0c-0.1-1.9-0.3-3.4-0.3-4.8c0-21,0-42,0-63
	c0-11,4.3-15.3,15.5-15.3C176.4,148,189.4,148,202.9,148 M187.9,190.5c0-11.1,0-22.2,0-33.3c-2.3,0-3.9,0-5.7,0c0,16.6,0,33,0,49.5
	c2,0,3.7,0,5.7,0C187.9,201.4,187.9,196.5,187.9,190.5 M187.7,221.1c0-2.6,0-5.2,0-7.8c-2.2,0-3.9,0-5.5,0c0,3.1,0,5.8,0,8.5
	C184.1,221.8,185.6,221.8,187.7,221.1z"/>
<path class="st7" d="M75.5,159.6c-1.8-1.2-3.7-2.1-4.6-3.5c-3.6-6.3-7-12.8-10.8-20.1c-3.5,6.3-7,12.1-9.9,18.1
	c-2,4.1-4.4,6.3-9.1,5.5c-2.4-0.4-5-0.1-8.1-0.1c0.7-1.5,1.1-2.6,1.8-3.6c4.7-7.3,9.2-14.7,14.2-21.7c2.7-3.7,2.9-6.6,0.3-10.5
	c-5.2-7.9-9.7-16.2-15.1-25.2c5,0,9.1-0.2,13.1,0.1c1.2,0.1,2.6,1.7,3.3,3c3.4,6.3,6.5,12.7,10.1,19.7c3.2-5.8,6.5-11.1,9.1-16.7
	c2.1-4.7,4.9-7.1,10.2-6.2c1.9,0.3,3.9,0.1,6.9,0.1c-4.3,7.1-7.6,14.1-12.3,19.9c-6,7.4-5.7,13.5,0.1,20.9
	c4.7,5.9,8.2,12.9,12.7,20.3C83,159.6,79.5,159.6,75.5,159.6z"/>
<path class="st4" d="M187.9,191c0,5.5,0,10.4,0,15.7c-2.1,0-3.8,0-5.7,0c0-16.5,0-32.9,0-49.5c1.9,0,3.5,0,5.7,0
	C187.9,168.3,187.9,179.4,187.9,191z"/>
<path class="st4" d="M187.4,221.5c-1.8,0.3-3.3,0.3-5.2,0.3c0-2.7,0-5.4,0-8.5c1.6,0,3.3,0,5.5,0C187.7,216,187.7,218.5,187.4,221.5
	z"/>
</svg>
