<svg version="1.1" id="Layer_1" xmlns="http://www.w3.org/2000/svg" xmlns:xlink="http://www.w3.org/1999/xlink" x="0px" y="0px"
	 width="100%" viewBox="0 0 1130 1122" enable-background="new 0 0 1130 1122" xml:space="preserve">
<path fill="#700000" opacity="1.000000" stroke="none" 
	d="
M1.000000,129.000000 
	C1.000000,127.611000 1.000000,126.222008 1.394420,124.386711 
	C3.696365,124.496002 5.608778,125.035400 7.510704,125.609535 
	C63.036400,142.371048 118.564667,159.124039 174.084808,175.903915 
	C225.470596,191.434265 276.845123,207.001892 328.228973,222.538666 
	C389.634308,241.105576 451.038513,259.676147 512.455750,278.203644 
	C530.589966,283.674164 548.766541,289.004242 566.937439,294.842102 
	C566.641479,390.360443 566.322388,485.435333 566.031494,580.510315 
	C565.983032,596.334534 566.057556,612.159058 566.052246,628.453369 
	C566.021179,653.281433 566.013062,677.639465 565.589600,701.989380 
	C554.411316,700.320068 543.650024,698.646851 532.884705,697.000427 
	C517.878174,694.705444 502.883972,692.323120 487.855347,690.182861 
	C476.908417,688.623901 465.914398,687.395691 454.672791,685.805664 
	C449.776093,677.137634 445.536865,668.441895 440.450562,660.273621 
	C421.380707,629.648621 396.706085,603.877747 368.417694,581.906250 
	C336.216339,556.895630 302.839661,533.402283 270.141724,509.024261 
	C260.950226,502.171509 251.946945,494.956207 243.588089,487.127014 
	C234.922150,479.010193 228.924438,468.830719 227.483185,456.833679 
	C224.981873,436.012512 238.228851,422.361908 257.820770,426.937134 
	C277.999023,431.649261 295.249847,441.489960 309.324371,456.677521 
	C326.080933,474.759125 333.120087,497.141357 336.768463,520.831543 
	C337.329620,524.475342 338.822327,525.855591 341.973602,526.938293 
	C366.176910,535.254456 390.335571,543.700684 414.500610,552.127930 
	C429.854523,557.482483 445.195618,562.873901 460.781708,568.332520 
	C460.781708,566.395264 460.989929,564.886414 460.749237,563.452881 
	C458.546326,550.332520 456.833801,537.096863 453.907410,524.136658 
	C442.172729,472.166840 416.679535,428.373688 375.585571,393.973755 
	C343.011414,366.705780 305.850342,347.710388 266.272247,333.094513 
	C242.797287,324.425446 218.930923,317.328918 193.587875,316.817993 
	C153.876526,316.017426 124.246628,336.866180 112.083748,374.536530 
	C103.065437,402.467682 104.255363,430.728943 110.536423,458.899200 
	C119.426331,498.769867 139.939209,532.474548 167.106003,562.391541 
	C194.354706,592.398621 225.791153,617.575378 258.722290,640.991394 
	C266.982025,646.864502 275.125671,652.900879 282.854126,658.901611 
	C281.058258,658.959717 279.706055,659.152893 278.407532,658.968323 
	C270.587860,657.856567 262.781067,656.654053 254.968826,655.489685 
	C238.205383,652.991211 221.458099,650.373230 204.664673,648.095520 
	C200.811615,647.572937 196.798889,648.227600 192.480347,648.257874 
	C158.217087,636.555298 124.333153,624.935364 89.613449,613.028870 
	C90.744202,623.233643 91.784012,632.617859 92.462677,642.050049 
	C91.470627,642.297852 90.803062,642.747009 90.214249,642.660400 
	C78.829651,640.987122 67.478409,639.063049 56.068012,637.597900 
	C49.146732,636.709229 42.136906,636.510071 35.089523,635.570557 
	C33.919930,618.537476 32.839817,601.934082 31.732496,585.332520 
	C30.171150,561.923950 28.563498,538.518433 27.025509,515.108337 
	C25.901976,498.006714 24.886322,480.898010 23.773191,463.795715 
	C22.206236,439.720764 20.586998,415.649261 19.002691,391.575439 
	C17.910002,374.971832 16.858946,358.365417 15.752780,341.762695 
	C14.193161,318.353973 12.571350,294.949371 11.030303,271.539490 
	C9.904529,254.437927 8.891716,237.328949 7.782510,220.226273 
	C6.210316,195.984879 4.647128,171.742661 2.963779,147.508881 
	C2.534133,141.323624 1.666435,135.168808 1.000000,129.000000 
z"/>
<path fill="#9A0101" opacity="1.000000" stroke="none" 
	d="
M566.075256,627.983459 
	C566.057556,612.159058 565.983032,596.334534 566.031494,580.510315 
	C566.322388,485.435333 566.641479,390.360443 567.316406,294.701782 
	C575.599121,291.732452 583.533691,289.401947 591.430359,286.949097 
	C604.992554,282.736420 618.531067,278.447388 632.474304,274.145813 
	C641.912415,271.380585 650.955811,268.659943 660.383911,265.918762 
	C672.193787,262.322937 683.618896,258.747650 695.444580,255.141083 
	C707.902344,251.431152 719.959534,247.752518 732.409546,244.055328 
	C745.613403,240.081039 758.424438,236.125275 771.618164,232.137909 
	C784.016479,228.445480 796.032166,224.784637 808.442017,221.092896 
	C820.891907,217.375900 832.947693,213.689789 845.393860,209.997406 
	C858.584351,206.033844 871.384399,202.076569 884.566650,198.094330 
	C896.681396,194.488052 908.414062,190.906754 920.534241,187.255569 
	C932.964539,183.500031 945.007324,179.814377 957.442871,176.098770 
	C968.578491,172.762650 979.321411,169.456497 990.457642,166.121094 
	C998.321289,163.769455 1005.791443,161.447021 1013.637573,159.109177 
	C1019.343201,157.357040 1024.672852,155.620346 1030.383057,153.939911 
	C1039.266968,151.367538 1047.770020,148.738876 1056.658203,146.101562 
	C1058.006714,145.849335 1058.981323,145.642395 1059.932373,145.356827 
	C1083.623169,138.242950 1107.311279,131.120712 1131.000000,123.999992 
	C1131.000000,130.354401 1131.000000,136.708786 1130.641846,143.766266 
	C1130.063721,148.456619 1129.883301,152.446533 1129.617188,156.430725 
	C1128.086548,179.346481 1126.506714,202.258987 1125.000488,225.176315 
	C1123.843262,242.782288 1122.814819,260.396759 1121.648193,278.002075 
	C1120.140625,300.752502 1118.510498,323.494873 1117.012207,346.245911 
	C1115.841919,364.017548 1114.830200,381.799591 1113.679077,399.572540 
	C1112.140869,423.321411 1110.566162,447.068024 1108.947266,470.811554 
	C1108.122559,482.909271 1107.167114,494.998047 1105.864868,507.099457 
	C1099.527100,508.615295 1093.602661,510.153198 1087.661743,511.623657 
	C1073.703735,515.078369 1059.737915,518.500854 1045.733398,521.500122 
	C1049.120728,498.353790 1052.525391,475.639832 1055.984619,452.934204 
	C1063.178345,405.715668 1070.406616,358.502380 1077.606201,311.284729 
	C1078.764038,303.691010 1079.846558,296.085846 1081.036621,287.992340 
	C1051.305786,299.402496 1022.337158,310.627258 993.255249,321.550232 
	C989.477234,322.969238 988.381714,324.959351 987.923218,328.671814 
	C983.924011,361.055023 979.712891,393.412018 975.576233,425.778290 
	C971.376282,458.639740 967.187744,491.502594 962.997314,524.365234 
	C960.595215,543.203369 958.199158,562.042297 955.800415,580.880859 
	C955.520020,580.899841 955.239624,580.918884 954.959229,580.937927 
	C938.669189,505.657898 922.379089,430.377899 906.060303,354.965057 
	C875.912659,366.502594 846.445435,377.823547 816.925354,389.004913 
	C814.166504,390.049896 813.300720,391.597748 812.831116,394.387085 
	C808.549622,419.818115 804.041626,445.210876 799.666199,470.626221 
	C790.407166,524.408264 781.190796,578.197632 771.950439,631.982910 
	C769.939026,643.690247 767.900146,655.392822 765.873901,667.097595 
	C765.646057,667.070923 765.418274,667.044250 765.190430,667.017578 
	C753.879517,585.453613 742.568665,503.889648 731.192810,421.857361 
	C700.029724,433.770386 669.386597,445.484619 638.435120,457.316772 
	C641.834595,478.522278 645.194214,499.361145 648.512451,520.206604 
	C652.958191,548.135620 657.371887,576.069702 661.426697,604.057617 
	C638.999390,609.745728 616.953735,615.413391 594.885986,620.993652 
	C585.305786,623.416199 575.680237,625.658997 566.075256,627.983459 
z"/>
<path fill="#FFFFFF" opacity="1.000000" stroke="none" 
	d="
M1.000000,129.468658 
	C1.666435,135.168808 2.534133,141.323624 2.963779,147.508881 
	C4.647128,171.742661 6.210316,195.984879 7.782510,220.226273 
	C8.891716,237.328949 9.904529,254.437927 11.030303,271.539490 
	C12.571350,294.949371 14.193161,318.353973 15.752780,341.762695 
	C16.858946,358.365417 17.910002,374.971832 19.002691,391.575439 
	C20.586998,415.649261 22.206236,439.720764 23.773191,463.795715 
	C24.886322,480.898010 25.901976,498.006714 27.025509,515.108337 
	C28.563498,538.518433 30.171150,561.923950 31.732496,585.332520 
	C32.839817,601.934082 33.919930,618.537476 35.019867,636.017456 
	C36.011013,651.078064 37.037518,665.258423 37.968033,679.445007 
	C39.423092,701.628845 40.813198,723.817078 42.161667,746.429199 
	C42.735767,756.315979 43.384319,765.776611 44.021114,775.238037 
	C45.160225,792.162964 46.292259,809.088318 47.360504,826.397766 
	C47.830482,829.335266 48.742306,831.875488 48.831802,834.444275 
	C49.075581,841.441711 48.833565,848.457214 49.136532,855.450317 
	C49.189484,856.672485 50.714447,858.288696 51.966175,858.933472 
	C77.275871,871.971252 102.644997,884.893555 128.331451,897.994446 
	C163.873657,916.340149 199.039352,934.622620 234.308640,952.703003 
	C331.428833,1002.490540 428.585327,1052.207397 525.746948,1101.914062 
	C539.097290,1108.743896 552.558594,1115.356812 566.019897,1122.301270 
	C566.071228,1122.532227 566.000000,1123.000000 566.000000,1123.000000 
	C377.719513,1123.000000 189.439011,1123.000000 1.000000,1123.000000 
	C1.000000,791.979126 1.000000,460.958221 1.000000,129.468658 
z"/>
<path fill="#FFFFFF" opacity="1.000000" stroke="none" 
	d="
M1106.270752,507.090881 
	C1107.167114,494.998047 1108.122559,482.909271 1108.947266,470.811554 
	C1110.566162,447.068024 1112.140869,423.321411 1113.679077,399.572540 
	C1114.830200,381.799591 1115.841919,364.017548 1117.012207,346.245911 
	C1118.510498,323.494873 1120.140625,300.752502 1121.648193,278.002075 
	C1122.814819,260.396759 1123.843262,242.782288 1125.000488,225.176315 
	C1126.506714,202.258987 1128.086548,179.346481 1129.617188,156.430725 
	C1129.883301,152.446533 1130.063721,148.456619 1130.641846,144.234680 
	C1131.000000,470.240845 1131.000000,796.481689 1131.000000,1123.000000 
	C943.312500,1123.000000 755.624939,1123.000000 567.577637,1122.660400 
	C601.050781,1104.884033 634.892212,1087.463989 668.711792,1070.001709 
	C681.434204,1063.432739 694.075073,1056.705688 706.807251,1050.155884 
	C733.466919,1036.441528 760.165466,1022.802673 786.842529,1009.121948 
	C812.167542,996.134644 837.481323,983.125244 862.808044,970.140991 
	C889.495789,956.458984 916.199524,942.807861 942.883789,929.119019 
	C957.930115,921.400452 972.951172,913.632812 988.351685,905.884644 
	C1020.227905,889.680176 1051.735962,873.478271 1084.115356,856.828308 
	C1084.115356,850.120361 1084.115356,843.079041 1084.487793,835.811157 
	C1085.508667,825.723389 1086.157227,815.862244 1086.890137,805.556396 
	C1087.285767,798.407898 1087.596802,791.703979 1088.050293,784.606689 
	C1088.811768,773.808838 1089.430908,763.404297 1090.192871,752.561951 
	C1090.226440,749.968079 1089.888428,747.795227 1090.045166,745.658752 
	C1090.990845,732.767822 1092.049927,719.885193 1093.217529,706.566284 
	C1093.880493,698.492859 1094.470947,690.856934 1094.893433,683.211731 
	C1095.355103,674.862000 1095.558716,666.497437 1096.063110,658.150757 
	C1096.610596,649.092834 1097.375244,640.047974 1098.227295,630.625000 
	C1099.940674,606.276367 1101.526245,582.303406 1102.974731,558.322083 
	C1103.489502,549.800537 1103.506714,541.248230 1104.050293,532.729126 
	C1104.596436,524.170654 1105.515259,515.635986 1106.270752,507.090881 
z"/>
<path fill="#FFFFFF" opacity="1.000000" stroke="none" 
	d="
M0.999999,123.000000 
	C1.000000,82.359268 1.000000,41.718533 1.000000,1.000000 
	C187.022003,1.000000 373.044037,1.000000 559.585083,1.250469 
	C560.075684,1.669090 560.047119,1.837242 559.599609,1.995483 
	C557.255371,2.310470 555.308105,2.539273 553.408630,2.976302 
	C543.264893,5.310230 533.133118,7.696193 522.584839,10.030593 
	C520.406433,10.323551 518.626953,10.590725 516.876465,10.986175 
	C504.911530,13.689207 492.952637,16.419163 480.589691,19.080917 
	C478.584473,19.346867 476.973572,19.638500 475.379456,20.003227 
	C463.574249,22.704161 451.772400,25.419643 439.567444,28.076740 
	C435.948181,28.687952 432.717499,29.294006 429.516266,30.028620 
	C418.015656,32.667747 406.524963,35.350319 394.613159,38.005371 
	C392.263000,38.335587 390.312195,38.597328 388.400482,39.031204 
	C376.592529,41.711082 364.793427,44.429722 352.588104,47.085327 
	C350.577850,47.363010 348.963593,47.659027 347.365021,48.023701 
	C334.257782,51.013744 321.153473,54.016567 307.630371,57.003220 
	C305.279633,57.337933 303.329956,57.610603 301.416748,58.044075 
	C289.604340,60.720379 277.800110,63.432903 265.590271,66.088089 
	C263.578949,66.371643 261.963531,66.669945 260.363159,67.034187 
	C247.251617,70.018303 234.142868,73.014694 220.616455,75.993568 
	C208.131851,78.682159 196.064087,81.384544 183.738205,84.059364 
	C183.314056,84.080528 183.148010,84.129250 182.654831,84.113708 
	C181.531494,84.355629 180.735291,84.661819 179.527740,84.957596 
	C170.080551,86.989174 161.044739,89.031166 151.746582,91.043884 
	C151.316391,91.067360 151.148514,91.120125 150.650452,91.111778 
	C149.513184,91.350792 148.706070,91.650917 147.489929,91.941711 
	C107.627014,100.497475 68.181297,109.100334 28.713253,117.599548 
	C19.514429,119.580467 10.239767,121.209213 0.999999,123.000000 
z"/>
<path fill="#FFFFFF" opacity="1.000000" stroke="none" 
	d="
M573.000000,0.999997 
	C758.881165,1.000000 944.762390,1.000000 1131.000000,1.000000 
	C1131.000000,41.354645 1131.000000,81.710335 1130.593262,122.495232 
	C1121.042480,120.927040 1111.899292,118.925461 1102.754395,116.933029 
	C1069.692505,109.729820 1036.632446,102.518425 1003.567078,95.331734 
	C973.710266,88.842392 943.841064,82.409760 913.988953,75.899025 
	C888.630127,70.368286 863.287903,64.761826 837.626709,59.093159 
	C836.882935,59.016987 836.450684,59.036526 835.664673,59.001755 
	C834.596069,58.945923 833.881287,58.944397 833.015869,58.656036 
	C832.252869,58.273029 831.640503,58.176853 830.754517,57.992226 
	C829.959351,57.679504 829.437683,57.455238 828.567078,57.118675 
	C827.488770,57.030586 826.759399,57.054794 825.766602,56.960598 
	C824.988647,56.608547 824.474182,56.374897 823.556946,56.057667 
	C821.384216,55.626324 819.606934,55.311745 817.845337,54.925808 
	C792.683777,49.413273 767.538269,43.826084 742.355042,38.414581 
	C735.615601,36.966381 728.762451,36.047386 721.619873,34.916847 
	C717.022339,33.709072 712.825195,32.188171 708.498840,31.288143 
	C698.875183,29.286066 689.159180,27.728264 679.532776,25.738079 
	C670.442078,23.858641 661.403076,21.719772 652.371277,19.569088 
	C648.500427,18.647339 644.705505,17.406885 640.487000,16.175272 
	C639.599976,16.004000 639.090271,16.025234 638.605652,15.925221 
	C620.171814,12.120957 601.725830,8.372730 583.320984,4.432884 
	C579.797180,3.678553 576.436157,2.163884 573.000000,0.999997 
z"/>
<path fill="#FF0000" opacity="1.000000" stroke="none" 
	d="
M0.999999,123.250000 
	C10.239767,121.209213 19.514429,119.580467 28.713253,117.599548 
	C68.181297,109.100334 107.627014,100.497475 147.825043,91.965912 
	C149.373032,91.723930 150.176834,91.448410 150.980637,91.172890 
	C151.148514,91.120125 151.316391,91.067360 151.911102,91.343140 
	C155.110977,93.127808 157.774765,94.866837 160.677261,95.987854 
	C169.961868,99.573776 179.350693,102.888596 188.671082,106.383286 
	C225.641663,120.245453 262.586731,134.175812 299.569885,148.004318 
	C331.270172,159.857529 363.034149,171.540482 394.725250,183.418121 
	C433.251007,197.857346 471.706970,212.482758 510.235321,226.915009 
	C549.695862,241.696472 589.213440,256.325623 628.670532,271.116302 
	C630.003601,271.615997 630.951904,273.142517 632.079529,274.190430 
	C618.531067,278.447388 604.992554,282.736420 591.430359,286.949097 
	C583.533691,289.401947 575.599121,291.732452 567.302612,294.258362 
	C548.766541,289.004242 530.589966,283.674164 512.455750,278.203644 
	C451.038513,259.676147 389.634308,241.105576 328.228973,222.538666 
	C276.845123,207.001892 225.470596,191.434265 174.084808,175.903915 
	C118.564667,159.124039 63.036400,142.371048 7.510704,125.609535 
	C5.608778,125.035400 3.696365,124.496002 1.394420,123.970207 
	C1.000000,124.000000 1.000000,123.500000 0.999999,123.250000 
z"/>
<path fill="#7B0000" opacity="1.000000" stroke="none" 
	d="
M987.983582,905.887329 
	C972.951172,913.632812 957.930115,921.400452 942.883789,929.119019 
	C916.199524,942.807861 889.495789,956.458984 862.808044,970.140991 
	C837.481323,983.125244 812.167542,996.134644 786.842529,1009.121948 
	C760.165466,1022.802673 733.466919,1036.441528 706.807251,1050.155884 
	C694.075073,1056.705688 681.434204,1063.432739 668.711792,1070.001709 
	C634.892212,1087.463989 601.050781,1104.884033 567.109009,1122.660400 
	C567.000000,1123.000000 566.500000,1123.000000 566.250000,1123.000000 
	C566.000000,1123.000000 566.071228,1122.532227 566.030334,1121.828369 
	C566.004089,1083.748413 566.018738,1046.372437 566.423035,1009.004944 
	C569.864624,1008.846497 573.041016,1009.172913 575.949829,1008.438904 
	C622.668091,996.649902 669.347961,984.709351 716.045471,972.837891 
	C750.706848,964.026306 785.384338,955.277832 820.048767,946.478027 
	C873.491028,932.911133 926.922058,919.299377 980.388611,905.828735 
	C982.764526,905.230103 985.444946,905.840210 987.983582,905.887329 
z"/>
<path fill="#FE8383" opacity="1.000000" stroke="none" 
	d="
M828.916016,57.230972 
	C829.437683,57.455238 829.959351,57.679504 830.940918,58.236069 
	C831.989380,58.693203 832.577881,58.818035 833.166443,58.942863 
	C833.881287,58.944397 834.596069,58.945923 835.794312,59.218430 
	C836.831299,59.389233 837.384766,59.289055 837.938293,59.188873 
	C863.287903,64.761826 888.630127,70.368286 913.988953,75.899025 
	C943.841064,82.409760 973.710266,88.842392 1003.567078,95.331734 
	C1036.632446,102.518425 1069.692505,109.729820 1102.754395,116.933029 
	C1111.899292,118.925461 1121.042480,120.927040 1130.593262,122.962219 
	C1131.000000,123.000000 1131.000000,123.500000 1131.000000,123.749992 
	C1107.311279,131.120712 1083.623169,138.242950 1059.932373,145.356827 
	C1058.981323,145.642395 1058.006714,145.849335 1056.267334,146.036011 
	C1053.632202,145.269394 1051.777710,144.546478 1049.912842,143.851929 
	C1020.982300,133.077255 992.040344,122.333023 963.121338,111.527481 
	C927.983948,98.398415 892.848511,85.263550 857.749207,72.033226 
	C847.035950,67.995003 836.454834,63.607010 825.786499,59.447826 
	C824.112793,58.795334 822.449341,58.423920 823.959717,56.141258 
	C824.474182,56.374897 824.988647,56.608547 825.937256,57.194382 
	C827.219666,57.441368 828.067810,57.336170 828.916016,57.230972 
z"/>
<path fill="#FF7070" opacity="1.000000" stroke="none" 
	d="
M572.550049,0.999997 
	C576.436157,2.163884 579.797180,3.678553 583.320984,4.432884 
	C601.725830,8.372730 620.171814,12.120957 638.605652,15.925221 
	C639.090271,16.025234 639.599976,16.004000 640.288208,16.393024 
	C637.812500,20.555153 642.245972,20.045431 643.247559,20.427959 
	C668.199097,29.957064 693.231384,39.274967 718.258972,48.604603 
	C741.576538,57.296806 764.919861,65.920296 788.225403,74.644630 
	C819.143799,86.218819 850.032654,97.871605 880.941467,109.471413 
	C902.220947,117.457390 923.517639,125.397369 944.797363,133.382492 
	C967.624451,141.948212 990.440674,150.542679 1013.261658,159.124603 
	C1005.791443,161.447021 998.321289,163.769455 990.295410,165.790894 
	C988.921753,164.975311 988.163330,164.302170 987.276978,163.968933 
	C947.370850,148.963760 907.467834,133.949905 867.532776,119.021736 
	C835.832886,107.171944 804.067078,95.498329 772.376221,83.624535 
	C736.491333,70.179306 700.676270,56.547695 664.795837,43.090561 
	C631.556763,30.624092 598.260681,18.309437 565.039307,5.796268 
	C563.436584,5.192595 562.312317,3.318986 560.978516,2.022780 
	C560.991882,2.008804 561.019531,1.980670 561.356323,1.986024 
	C562.462097,1.660915 563.231018,1.330453 564.000000,0.999995 
	C566.700012,1.000000 569.400024,1.000000 572.550049,0.999997 
z"/>
<path fill="#FF6868" opacity="1.000000" stroke="none" 
	d="
M563.625000,0.999995 
	C563.231018,1.330453 562.462097,1.660915 561.351929,1.741064 
	C561.010681,1.490751 561.000000,1.000000 561.000000,1.000000 
	C561.750000,1.000000 562.500000,1.000000 563.625000,0.999995 
z"/>
<path fill="#FF7070" opacity="1.000000" stroke="none" 
	d="
M560.750000,1.000000 
	C561.000000,1.000000 561.010681,1.490751 561.015137,1.735711 
	C561.019531,1.980670 560.991882,2.008804 560.742065,2.015721 
	C560.492249,2.022638 560.018616,2.005393 560.018616,2.005393 
	C560.047119,1.837242 560.075684,1.669090 560.052124,1.250469 
	C560.000000,1.000000 560.500000,1.000000 560.750000,1.000000 
z"/>
<path fill="#E5E4E4" opacity="1.000000" stroke="none" 
	d="
M92.823830,642.002014 
	C91.784012,632.617859 90.744202,623.233643 89.613449,613.028870 
	C124.333153,624.935364 158.217087,636.555298 192.725861,648.527405 
	C199.234772,650.912720 205.043015,653.223328 211.035095,654.861450 
	C214.005066,655.673401 214.835846,656.938110 215.187347,659.865295 
	C218.021637,683.468689 223.151016,706.411743 235.513123,727.156677 
	C251.978195,754.786865 275.257050,773.438782 306.952301,780.492126 
	C328.997192,785.397949 345.188477,773.276550 347.339630,750.781616 
	C348.620148,737.390869 344.814789,725.069641 338.542786,713.452820 
	C325.697937,689.662048 304.472137,674.286682 283.322632,658.862244 
	C275.125671,652.900879 266.982025,646.864502 258.722290,640.991394 
	C225.791153,617.575378 194.354706,592.398621 167.106003,562.391541 
	C139.939209,532.474548 119.426331,498.769867 110.536423,458.899200 
	C104.255363,430.728943 103.065437,402.467682 112.083748,374.536530 
	C124.246628,336.866180 153.876526,316.017426 193.587875,316.817993 
	C218.930923,317.328918 242.797287,324.425446 266.272247,333.094513 
	C305.850342,347.710388 343.011414,366.705780 375.585571,393.973755 
	C416.679535,428.373688 442.172729,472.166840 453.907410,524.136658 
	C456.833801,537.096863 458.546326,550.332520 460.749237,563.452881 
	C460.989929,564.886414 460.781708,566.395264 460.781708,568.332520 
	C445.195618,562.873901 429.854523,557.482483 414.500610,552.127930 
	C390.335571,543.700684 366.176910,535.254456 341.973602,526.938293 
	C338.822327,525.855591 337.329620,524.475342 336.768463,520.831543 
	C333.120087,497.141357 326.080933,474.759125 309.324371,456.677521 
	C295.249847,441.489960 277.999023,431.649261 257.820770,426.937134 
	C238.228851,422.361908 224.981873,436.012512 227.483185,456.833679 
	C228.924438,468.830719 234.922150,479.010193 243.588089,487.127014 
	C251.946945,494.956207 260.950226,502.171509 270.141724,509.024261 
	C302.839661,533.402283 336.216339,556.895630 368.417694,581.906250 
	C396.706085,603.877747 421.380707,629.648621 440.450562,660.273621 
	C445.536865,668.441895 449.776093,677.137634 454.693573,686.174927 
	C466.322510,712.693359 473.392517,739.688293 475.087219,768.464600 
	C474.018921,783.952454 473.021088,798.976257 471.786865,814.306946 
	C468.256042,829.248901 463.152740,843.172852 455.044525,856.265869 
	C444.583038,872.819580 430.477448,884.503296 412.375366,891.893799 
	C394.156769,897.948669 375.932190,898.933533 357.363342,896.360474 
	C331.981049,892.843201 307.929565,884.813782 284.622314,874.572510 
	C268.544342,867.507812 252.891525,859.475464 236.864807,851.591370 
	C213.293839,838.132324 191.341156,822.993774 171.803864,804.463196 
	C157.121735,790.537476 144.850204,774.722473 134.113190,757.266663 
	C129.987762,749.334167 125.735481,741.831665 121.894196,734.124390 
	C107.357536,704.957520 98.225189,674.063110 92.823830,642.002014 
z"/>
<path fill="#920000" opacity="1.000000" stroke="none" 
	d="
M566.052246,628.453369 
	C575.680237,625.658997 585.305786,623.416199 594.885986,620.993652 
	C616.953735,615.413391 638.999390,609.745728 661.546265,604.488403 
	C662.694946,608.842102 663.363281,612.819031 664.005798,616.800110 
	C666.859924,634.484436 669.741089,652.164490 672.545898,669.856567 
	C675.141663,686.230652 677.652832,702.618103 679.765625,718.999878 
	C677.858337,719.178345 676.346985,719.199402 674.920654,719.558350 
	C648.616760,726.177979 622.345520,732.928894 596.015625,739.443054 
	C586.098999,741.896423 576.051575,743.821167 566.049927,745.519287 
	C566.025696,730.700317 566.015259,716.348938 566.004883,701.997559 
	C566.013062,677.639465 566.021179,653.281433 566.052246,628.453369 
z"/>
<path fill="#670101" opacity="1.000000" stroke="none" 
	d="
M282.854126,658.901611 
	C304.472137,674.286682 325.697937,689.662048 338.542786,713.452820 
	C344.814789,725.069641 348.620148,737.390869 347.339630,750.781616 
	C345.188477,773.276550 328.997192,785.397949 306.952301,780.492126 
	C275.257050,773.438782 251.978195,754.786865 235.513123,727.156677 
	C223.151016,706.411743 218.021637,683.468689 215.187347,659.865295 
	C214.835846,656.938110 214.005066,655.673401 211.035095,654.861450 
	C205.043015,653.223328 199.234772,650.912720 193.105179,648.609985 
	C196.798889,648.227600 200.811615,647.572937 204.664673,648.095520 
	C221.458099,650.373230 238.205383,652.991211 254.968826,655.489685 
	C262.781067,656.654053 270.587860,657.856567 278.407532,658.968323 
	C279.706055,659.152893 281.058258,658.959717 282.854126,658.901611 
z"/>
<path fill="#650101" opacity="1.000000" stroke="none" 
	d="
M92.462677,642.050049 
	C98.225189,674.063110 107.357536,704.957520 121.894196,734.124390 
	C125.735481,741.831665 129.987762,749.334167 133.899170,757.601440 
	C129.556854,757.850586 125.344727,757.580994 121.180450,756.979919 
	C106.317123,754.834595 91.483437,752.481506 76.612503,750.392273 
	C65.172226,748.784973 53.692829,747.456116 42.230820,746.003418 
	C40.813198,723.817078 39.423092,701.628845 37.968033,679.445007 
	C37.037518,665.258423 36.011013,651.078064 35.097198,636.448059 
	C42.136906,636.510071 49.146732,636.709229 56.068012,637.597900 
	C67.478409,639.063049 78.829651,640.987122 90.214249,642.660400 
	C90.803062,642.747009 91.470627,642.297852 92.462677,642.050049 
z"/>
<path fill="#670000" opacity="1.000000" stroke="none" 
	d="
M565.589600,701.989380 
	C566.015259,716.348938 566.025696,730.700317 566.029541,745.989136 
	C566.014099,758.284424 566.005127,769.642212 565.592346,780.949829 
	C563.905090,780.601807 562.635132,780.213501 561.336121,780.019775 
	C546.503235,777.808472 531.678650,775.536072 516.826233,773.463684 
	C502.952698,771.527893 489.048401,769.812866 475.157654,768.000610 
	C473.392517,739.688293 466.322510,712.693359 454.962158,686.389343 
	C465.914398,687.395691 476.908417,688.623901 487.855347,690.182861 
	C502.883972,692.323120 517.878174,694.705444 532.884705,697.000427 
	C543.650024,698.646851 554.411316,700.320068 565.589600,701.989380 
z"/>
<path fill="#FFFEFE" opacity="1.000000" stroke="none" 
	d="
M680.201172,718.999695 
	C677.652832,702.618103 675.141663,686.230652 672.545898,669.856567 
	C669.741089,652.164490 666.859924,634.484436 664.005798,616.800110 
	C663.363281,612.819031 662.694946,608.842102 661.918945,604.432495 
	C657.371887,576.069702 652.958191,548.135620 648.512451,520.206604 
	C645.194214,499.361145 641.834595,478.522278 638.435120,457.316772 
	C669.386597,445.484619 700.029724,433.770386 731.192810,421.857361 
	C742.568665,503.889648 753.879517,585.453613 765.190430,667.017578 
	C765.418274,667.044250 765.646057,667.070923 765.873901,667.097595 
	C767.900146,655.392822 769.939026,643.690247 771.950439,631.982910 
	C781.190796,578.197632 790.407166,524.408264 799.666199,470.626221 
	C804.041626,445.210876 808.549622,419.818115 812.831116,394.387085 
	C813.300720,391.597748 814.166504,390.049896 816.925354,389.004913 
	C846.445435,377.823547 875.912659,366.502594 906.060303,354.965057 
	C922.379089,430.377899 938.669189,505.657898 954.959229,580.937927 
	C955.239624,580.918884 955.520020,580.899841 955.800415,580.880859 
	C958.199158,562.042297 960.595215,543.203369 962.997314,524.365234 
	C967.187744,491.502594 971.376282,458.639740 975.576233,425.778290 
	C979.712891,393.412018 983.924011,361.055023 987.923218,328.671814 
	C988.381714,324.959351 989.477234,322.969238 993.255249,321.550232 
	C1022.337158,310.627258 1051.305786,299.402496 1081.036621,287.992340 
	C1079.846558,296.085846 1078.764038,303.691010 1077.606201,311.284729 
	C1070.406616,358.502380 1063.178345,405.715668 1055.984619,452.934204 
	C1052.525391,475.639832 1049.120728,498.353790 1045.514648,521.823914 
	C1041.347656,549.406921 1037.316895,576.224060 1033.383179,603.055420 
	C1031.188599,618.024902 1029.155640,633.018127 1026.890259,648.381104 
	C1022.973083,674.188843 1019.215515,699.616089 1015.307007,725.389160 
	C1014.094238,732.950195 1013.099304,740.176697 1011.898132,747.368835 
	C1011.717346,748.451416 1010.797302,749.787170 1009.840027,750.305054 
	C1000.648193,755.277771 991.414856,760.177979 982.116089,764.948364 
	C964.710815,773.877563 947.254028,782.706482 929.469849,791.676270 
	C926.647583,793.007690 924.233398,794.385559 921.681030,795.423645 
	C919.817749,796.181519 917.772522,796.492004 915.834473,796.609619 
	C913.250061,784.383789 910.668396,772.543823 908.022278,760.718201 
	C904.387268,744.472900 900.703369,728.238525 897.073853,711.587036 
	C888.230103,670.100098 879.352356,629.025757 870.476379,587.950989 
	C867.225647,572.907898 863.979187,557.863892 860.730774,542.820312 
	C859.724915,544.657043 859.320496,546.429016 859.008423,548.217041 
	C851.180176,593.073669 843.327698,637.926025 835.560425,682.793213 
	C832.897461,698.175720 830.452209,713.595886 827.687866,729.326904 
	C825.464966,741.275635 823.420471,752.889343 821.467896,764.518555 
	C818.196167,784.004639 814.982849,803.500610 811.523315,823.317627 
	C809.473083,834.071167 807.644470,844.499390 805.468262,854.985718 
	C800.225403,857.667969 795.365417,860.360291 790.428467,862.903381 
	C775.969055,870.351379 761.479004,877.739990 746.642578,885.170532 
	C734.490967,891.091431 722.697754,896.993591 710.798706,902.948730 
	C710.079041,900.688354 709.491943,898.844238 709.061768,896.584717 
	C707.452881,885.446350 705.686951,874.723389 703.970947,863.585571 
	C700.869507,844.069275 697.718262,824.967712 694.572998,805.430298 
	C692.708374,793.510742 690.881470,782.019714 688.957031,770.545105 
	C686.074341,753.357300 683.123230,736.180908 680.201172,718.999695 
z"/>
<path fill="#FF2626" opacity="1.000000" stroke="none" 
	d="
M265.993164,66.133392 
	C277.800110,63.432903 289.604340,60.720379 301.416748,58.044075 
	C303.329956,57.610603 305.279633,57.337933 307.980621,57.051224 
	C310.937775,58.281509 313.027039,59.717537 315.330872,60.581078 
	C344.069489,71.353088 372.842987,82.032097 401.599884,92.755386 
	C426.469360,102.029083 451.332428,111.319893 476.192261,120.619408 
	C508.044769,132.534729 539.884521,144.484207 571.742249,156.385376 
	C597.850830,166.138779 623.993225,175.801514 650.092407,185.579834 
	C681.317932,197.278809 712.538635,208.991653 743.706482,220.843094 
	C752.977905,224.368515 762.064331,228.380478 771.235535,232.169510 
	C758.424438,236.125275 745.613403,240.081039 732.351929,243.693741 
	C730.879089,242.593216 729.964050,241.549408 728.818542,241.119705 
	C690.439087,226.722031 652.046265,212.359955 613.636963,198.042038 
	C579.270386,185.231140 544.860291,172.536743 510.508972,159.684967 
	C468.230255,143.867310 426.001221,127.916779 383.734589,112.066719 
	C346.131409,97.965454 308.497406,83.946236 270.917236,69.784073 
	C269.078400,69.091118 267.625671,67.373741 265.993164,66.133392 
z"/>
<path fill="#FF1B1B" opacity="1.000000" stroke="none" 
	d="
M265.590271,66.088089 
	C267.625671,67.373741 269.078400,69.091118 270.917236,69.784073 
	C308.497406,83.946236 346.131409,97.965454 383.734589,112.066719 
	C426.001221,127.916779 468.230255,143.867310 510.508972,159.684967 
	C544.860291,172.536743 579.270386,185.231140 613.636963,198.042038 
	C652.046265,212.359955 690.439087,226.722031 728.818542,241.119705 
	C729.964050,241.549408 730.879089,242.593216 731.959229,243.712280 
	C719.959534,247.752518 707.902344,251.431152 695.383484,254.770691 
	C687.190796,251.222412 679.541565,247.796295 671.713684,244.843674 
	C645.472473,234.945648 619.158752,225.240036 592.889038,215.417160 
	C558.226746,202.456055 523.582642,189.446518 488.925537,176.471558 
	C463.904388,167.104111 438.872284,157.765884 413.849701,148.402267 
	C381.988464,136.479584 350.130707,124.547623 318.273712,112.613678 
	C294.186188,103.590256 270.097839,94.568947 246.018951,85.522514 
	C237.676331,82.388199 229.361053,79.181168 221.033279,76.007355 
	C234.142868,73.014694 247.251617,70.018303 260.363159,67.034187 
	C261.963531,66.669945 263.578949,66.371643 265.590271,66.088089 
z"/>
<path fill="#FF3D3D" opacity="1.000000" stroke="none" 
	d="
M352.991364,47.135475 
	C364.793427,44.429722 376.592529,41.711082 388.400482,39.031204 
	C390.312195,38.597328 392.263000,38.335587 394.885986,38.206924 
	C397.210052,39.510105 398.709351,40.953152 400.498718,41.635883 
	C416.009644,47.553951 431.566284,53.352608 447.121613,59.153744 
	C476.058411,69.945297 505.017822,80.676262 533.941284,91.503510 
	C565.351624,103.261734 596.722168,115.125984 628.128174,126.895805 
	C648.495300,134.528641 668.901917,142.055893 689.277954,149.664917 
	C718.364197,160.526581 747.440430,171.415207 776.517700,182.301102 
	C798.443054,190.509521 820.373352,198.705200 842.256897,207.023651 
	C843.386780,207.453140 844.097595,208.985016 845.003479,210.003662 
	C832.947693,213.689789 820.891907,217.375900 808.282959,220.764832 
	C806.000549,219.556702 804.345032,218.449417 802.529724,217.767380 
	C792.429138,213.972488 782.267761,210.339722 772.167847,206.543243 
	C733.636169,192.059509 695.140564,177.479843 656.591797,163.041779 
	C624.881775,151.165085 593.097107,139.488037 561.379333,127.631874 
	C524.375427,113.799751 487.422668,99.831123 450.421082,85.992897 
	C419.016266,74.247780 387.562988,62.631985 356.184052,50.818432 
	C354.847137,50.315105 354.043457,48.395374 352.991364,47.135475 
z"/>
<path fill="#FF3131" opacity="1.000000" stroke="none" 
	d="
M352.588104,47.085327 
	C354.043457,48.395374 354.847137,50.315105 356.184052,50.818432 
	C387.562988,62.631985 419.016266,74.247780 450.421082,85.992897 
	C487.422668,99.831123 524.375427,113.799751 561.379333,127.631874 
	C593.097107,139.488037 624.881775,151.165085 656.591797,163.041779 
	C695.140564,177.479843 733.636169,192.059509 772.167847,206.543243 
	C782.267761,210.339722 792.429138,213.972488 802.529724,217.767380 
	C804.345032,218.449417 806.000549,219.556702 807.888916,220.795715 
	C796.032166,224.784637 784.016479,228.445480 771.618164,232.137909 
	C762.064331,228.380478 752.977905,224.368515 743.706482,220.843094 
	C712.538635,208.991653 681.317932,197.278809 650.092407,185.579834 
	C623.993225,175.801514 597.850830,166.138779 571.742249,156.385376 
	C539.884521,144.484207 508.044769,132.534729 476.192261,120.619408 
	C451.332428,111.319893 426.469360,102.029083 401.599884,92.755386 
	C372.842987,82.032097 344.069489,71.353088 315.330872,60.581078 
	C313.027039,59.717537 310.937775,58.281509 308.398560,57.063511 
	C321.153473,54.016567 334.257782,51.013744 347.365021,48.023701 
	C348.963593,47.659027 350.577850,47.363010 352.588104,47.085327 
z"/>
<path fill="#FF4848" opacity="1.000000" stroke="none" 
	d="
M845.393860,209.997375 
	C844.097595,208.985016 843.386780,207.453140 842.256897,207.023651 
	C820.373352,198.705200 798.443054,190.509521 776.517700,182.301102 
	C747.440430,171.415207 718.364197,160.526581 689.277954,149.664917 
	C668.901917,142.055893 648.495300,134.528641 628.128174,126.895805 
	C596.722168,115.125984 565.351624,103.261734 533.941284,91.503510 
	C505.017822,80.676262 476.058411,69.945297 447.121613,59.153744 
	C431.566284,53.352608 416.009644,47.553951 400.498718,41.635883 
	C398.709351,40.953152 397.210052,39.510105 395.303406,38.218021 
	C406.524963,35.350319 418.015656,32.667747 429.516266,30.028620 
	C432.717499,29.294006 435.948181,28.687952 439.436829,28.372257 
	C440.386383,29.746580 440.838440,31.311455 441.780609,31.705997 
	C446.671387,33.754055 451.686554,35.505272 456.659576,37.356785 
	C482.777039,47.080677 508.913116,56.754967 535.008179,66.538704 
	C570.887207,79.990746 606.716187,93.576637 642.602234,107.009918 
	C676.935791,119.862007 711.327087,132.559616 745.670715,145.384811 
	C783.588501,159.544769 821.497437,173.728683 859.371521,188.005112 
	C867.726257,191.154388 875.917786,194.736481 884.184509,198.119293 
	C871.384399,202.076569 858.584351,206.033844 845.393860,209.997375 
z"/>
<path fill="#FF1111" opacity="1.000000" stroke="none" 
	d="
M220.616455,75.993568 
	C229.361053,79.181168 237.676331,82.388199 246.018951,85.522514 
	C270.097839,94.568947 294.186188,103.590256 318.273712,112.613678 
	C350.130707,124.547623 381.988464,136.479584 413.849701,148.402267 
	C438.872284,157.765884 463.904388,167.104111 488.925537,176.471558 
	C523.582642,189.446518 558.226746,202.456055 592.889038,215.417160 
	C619.158752,225.240036 645.472473,234.945648 671.713684,244.843674 
	C679.541565,247.796295 687.190796,251.222412 694.982971,254.801971 
	C683.618896,258.747650 672.193787,262.322937 660.340576,265.566437 
	C658.365601,264.136963 656.957520,262.691406 655.245361,262.007507 
	C650.316101,260.038635 645.235657,258.452759 640.264771,256.583038 
	C607.025635,244.080643 573.822266,231.483124 540.563171,219.034271 
	C506.215576,206.178024 471.794830,193.517258 437.447906,180.659271 
	C389.890503,162.855850 342.379852,144.927551 294.834564,127.091652 
	C259.253601,113.743980 223.643326,100.474403 188.077347,87.087059 
	C186.556107,86.514450 185.349487,85.105995 183.996307,84.086914 
	C196.064087,81.384544 208.131851,78.682159 220.616455,75.993568 
z"/>
<path fill="#FF5252" opacity="1.000000" stroke="none" 
	d="
M884.566650,198.094330 
	C875.917786,194.736481 867.726257,191.154388 859.371521,188.005112 
	C821.497437,173.728683 783.588501,159.544769 745.670715,145.384811 
	C711.327087,132.559616 676.935791,119.862007 642.602234,107.009918 
	C606.716187,93.576637 570.887207,79.990746 535.008179,66.538704 
	C508.913116,56.754967 482.777039,47.080677 456.659576,37.356785 
	C451.686554,35.505272 446.671387,33.754055 441.780609,31.705997 
	C440.838440,31.311455 440.386383,29.746580 439.838867,28.426073 
	C451.772400,25.419643 463.574249,22.704161 475.379456,20.003227 
	C476.973572,19.638500 478.584473,19.346867 480.639893,19.426140 
	C483.405914,21.266218 485.564545,23.103092 488.060394,24.066599 
	C498.273651,28.009401 508.613922,31.621399 518.863586,35.471882 
	C552.094116,47.955494 585.284912,60.544998 618.529785,72.990219 
	C650.221985,84.854187 681.980469,96.541138 713.677612,108.391953 
	C750.657227,122.217728 787.587524,136.175140 824.566284,150.003220 
	C853.621521,160.868317 882.734924,171.578171 911.769897,182.496735 
	C914.746521,183.616089 917.363098,185.692917 920.146667,187.325455 
	C908.414062,190.906754 896.681396,194.488052 884.566650,198.094330 
z"/>
<path fill="#FF5D5D" opacity="1.000000" stroke="none" 
	d="
M920.534241,187.255569 
	C917.363098,185.692917 914.746521,183.616089 911.769897,182.496735 
	C882.734924,171.578171 853.621521,160.868317 824.566284,150.003220 
	C787.587524,136.175140 750.657227,122.217728 713.677612,108.391953 
	C681.980469,96.541138 650.221985,84.854187 618.529785,72.990219 
	C585.284912,60.544998 552.094116,47.955494 518.863586,35.471882 
	C508.613922,31.621399 498.273651,28.009401 488.060394,24.066599 
	C485.564545,23.103092 483.405914,21.266218 481.041992,19.485670 
	C492.952637,16.419163 504.911530,13.689207 516.876465,10.986175 
	C518.626953,10.590725 520.406433,10.323551 522.644653,10.374807 
	C524.913818,11.835999 526.594543,13.227283 528.525391,13.956105 
	C552.889709,23.152666 577.296631,32.236168 601.679749,41.383110 
	C641.283752,56.239960 680.862793,71.163887 720.481750,85.980820 
	C752.177185,97.834457 783.931030,109.532036 815.632690,121.369194 
	C858.989136,137.558197 902.336487,153.772064 945.636719,170.110489 
	C949.629639,171.617157 953.254333,174.099442 957.050049,176.128723 
	C945.007324,179.814377 932.964539,183.500031 920.534241,187.255569 
z"/>
<path fill="#FF6868" opacity="1.000000" stroke="none" 
	d="
M957.442871,176.098755 
	C953.254333,174.099442 949.629639,171.617157 945.636719,170.110489 
	C902.336487,153.772064 858.989136,137.558197 815.632690,121.369194 
	C783.931030,109.532036 752.177185,97.834457 720.481750,85.980820 
	C680.862793,71.163887 641.283752,56.239960 601.679749,41.383110 
	C577.296631,32.236168 552.889709,23.152666 528.525391,13.956105 
	C526.594543,13.227283 524.913818,11.835999 523.057007,10.408375 
	C533.133118,7.696193 543.264893,5.310230 553.408630,2.976302 
	C555.308105,2.539273 557.255371,2.310470 559.599609,1.995483 
	C560.018616,2.005393 560.492249,2.022638 560.728760,2.029697 
	C562.312317,3.318986 563.436584,5.192595 565.039307,5.796268 
	C598.260681,18.309437 631.556763,30.624092 664.795837,43.090561 
	C700.676270,56.547695 736.491333,70.179306 772.376221,83.624535 
	C804.067078,95.498329 835.832886,107.171944 867.532776,119.021736 
	C907.467834,133.949905 947.370850,148.963760 987.276978,163.968933 
	C988.163330,164.302170 988.921753,164.975311 989.902039,165.820129 
	C979.321411,169.456497 968.578491,172.762650 957.442871,176.098755 
z"/>
<path fill="#FF0707" opacity="1.000000" stroke="none" 
	d="
M183.738205,84.059357 
	C185.349487,85.105995 186.556107,86.514450 188.077347,87.087059 
	C223.643326,100.474403 259.253601,113.743980 294.834564,127.091652 
	C342.379852,144.927551 389.890503,162.855850 437.447906,180.659271 
	C471.794830,193.517258 506.215576,206.178024 540.563171,219.034271 
	C573.822266,231.483124 607.025635,244.080643 640.264771,256.583038 
	C645.235657,258.452759 650.316101,260.038635 655.245361,262.007507 
	C656.957520,262.691406 658.365601,264.136963 659.955811,265.586975 
	C650.955811,268.659943 641.912415,271.380585 632.474304,274.145813 
	C630.951904,273.142517 630.003601,271.615997 628.670532,271.116302 
	C589.213440,256.325623 549.695862,241.696472 510.235321,226.915009 
	C471.706970,212.482758 433.251007,197.857346 394.725250,183.418121 
	C363.034149,171.540482 331.270172,159.857529 299.569885,148.004318 
	C262.586731,134.175812 225.641663,120.245453 188.671082,106.383286 
	C179.350693,102.888596 169.961868,99.573776 160.677261,95.987854 
	C157.774765,94.866837 155.110977,93.127808 152.173416,91.372421 
	C161.044739,89.031166 170.080551,86.989174 179.859177,84.980133 
	C181.395309,84.734703 182.188644,84.456337 182.981979,84.177971 
	C183.148010,84.129250 183.314056,84.080528 183.738205,84.059357 
z"/>
<path fill="#910101" opacity="1.000000" stroke="none" 
	d="
M1027.049805,648.000610 
	C1029.155640,633.018127 1031.188599,618.024902 1033.383179,603.055420 
	C1037.316895,576.224060 1041.347656,549.406921 1045.556641,522.260132 
	C1059.737915,518.500854 1073.703735,515.078369 1087.661743,511.623657 
	C1093.602661,510.153198 1099.527100,508.615295 1105.864868,507.099457 
	C1105.515259,515.635986 1104.596436,524.170654 1104.050293,532.729126 
	C1103.506714,541.248230 1103.489502,549.800537 1102.974731,558.322083 
	C1101.526245,582.303406 1099.940674,606.276367 1097.802490,630.626221 
	C1093.166504,631.819336 1089.102051,632.495605 1085.114380,633.482605 
	C1065.748169,638.276306 1046.402710,643.153198 1027.049805,648.000610 
z"/>
<path fill="#FF7B7B" opacity="1.000000" stroke="none" 
	d="
M823.556946,56.057678 
	C822.449341,58.423920 824.112793,58.795334 825.786499,59.447826 
	C836.454834,63.607010 847.035950,67.995003 857.749207,72.033226 
	C892.848511,85.263550 927.983948,98.398415 963.121338,111.527481 
	C992.040344,122.333023 1020.982300,133.077255 1049.912842,143.851929 
	C1051.777710,144.546478 1053.632202,145.269394 1055.882324,146.044678 
	C1047.770020,148.738876 1039.266968,151.367538 1030.314453,153.596954 
	C1029.220093,152.750839 1028.633789,152.148575 1027.921509,151.879456 
	C1002.005859,142.088425 976.091309,132.294037 950.148865,122.574234 
	C926.691162,113.785400 903.188110,105.117790 879.728699,96.333473 
	C848.812805,84.757095 817.916382,73.128868 787.018738,61.503780 
	C766.523682,53.792637 746.027405,46.084126 725.583252,38.240158 
	C724.156921,37.692928 723.158752,36.029713 721.961548,34.885445 
	C728.762451,36.047386 735.615601,36.966381 742.355042,38.414581 
	C767.538269,43.826084 792.683777,49.413273 817.845337,54.925808 
	C819.606934,55.311745 821.384216,55.626324 823.556946,56.057678 
z"/>
<path fill="#FF7575" opacity="1.000000" stroke="none" 
	d="
M721.619873,34.916855 
	C723.158752,36.029713 724.156921,37.692928 725.583252,38.240158 
	C746.027405,46.084126 766.523682,53.792637 787.018738,61.503780 
	C817.916382,73.128868 848.812805,84.757095 879.728699,96.333473 
	C903.188110,105.117790 926.691162,113.785400 950.148865,122.574234 
	C976.091309,132.294037 1002.005859,142.088425 1027.921509,151.879456 
	C1028.633789,152.148575 1029.220093,152.750839 1029.933838,153.540680 
	C1024.672852,155.620346 1019.343201,157.357040 1013.637573,159.109177 
	C990.440674,150.542679 967.624451,141.948212 944.797363,133.382492 
	C923.517639,125.397369 902.220947,117.457390 880.941467,109.471413 
	C850.032654,97.871605 819.143799,86.218819 788.225403,74.644630 
	C764.919861,65.920296 741.576538,57.296806 718.258972,48.604603 
	C693.231384,39.274967 668.199097,29.957064 643.247559,20.427959 
	C642.245972,20.045431 637.812500,20.555153 640.677246,16.528990 
	C644.705505,17.406885 648.500427,18.647339 652.371277,19.569088 
	C661.403076,21.719772 670.442078,23.858641 679.532776,25.738079 
	C689.159180,27.728264 698.875183,29.286066 708.498840,31.288143 
	C712.825195,32.188171 717.022339,33.709072 721.619873,34.916855 
z"/>
<path fill="#530000" opacity="1.000000" stroke="none" 
	d="
M566.033386,1008.996521 
	C566.018738,1046.372437 566.004089,1083.748413 565.979004,1121.597290 
	C552.558594,1115.356812 539.097290,1108.743896 525.746948,1101.914062 
	C428.585327,1052.207397 331.428833,1002.490540 234.308640,952.703003 
	C199.039352,934.622620 163.873657,916.340149 128.404251,897.642395 
	C129.724274,896.469666 131.404800,895.051941 132.861313,895.253479 
	C150.852219,897.742432 168.819855,900.405884 186.774445,903.148987 
	C205.545197,906.016785 224.279510,909.125000 243.058456,911.936340 
	C264.292053,915.115112 285.571381,917.988281 306.805084,921.166382 
	C325.583984,923.976990 344.310760,927.136108 363.091248,929.935364 
	C382.367126,932.808411 401.695618,935.328186 420.972931,938.192017 
	C442.204681,941.346252 463.401337,944.736450 484.619202,947.985168 
	C499.797211,950.309143 514.980469,952.600037 530.169922,954.847900 
	C542.095825,956.612732 554.034790,958.289001 565.978882,960.472656 
	C566.004333,976.959351 566.018860,992.977966 566.033386,1008.996521 
z"/>
<path fill="#570000" opacity="1.000000" stroke="none" 
	d="
M565.967957,960.004578 
	C554.034790,958.289001 542.095825,956.612732 530.169922,954.847900 
	C514.980469,952.600037 499.797211,950.309143 484.619202,947.985168 
	C463.401337,944.736450 442.204681,941.346252 420.972931,938.192017 
	C401.695618,935.328186 382.367126,932.808411 363.091248,929.935364 
	C344.310760,927.136108 325.583984,923.976990 306.805084,921.166382 
	C285.571381,917.988281 264.292053,915.115112 243.058456,911.936340 
	C224.279510,909.125000 205.545197,906.016785 186.774445,903.148987 
	C168.819855,900.405884 150.852219,897.742432 132.861313,895.253479 
	C131.404800,895.051941 129.724274,896.469666 128.075012,897.486938 
	C102.644997,884.893555 77.275871,871.971252 51.966175,858.933472 
	C50.714447,858.288696 49.189484,856.672485 49.136532,855.450317 
	C48.833565,848.457214 49.075581,841.441711 48.831802,834.444275 
	C48.742306,831.875488 47.830482,829.335266 47.786537,826.394409 
	C50.440449,826.047974 52.639236,825.843872 54.756832,826.168884 
	C73.512138,829.046692 92.235909,832.133362 111.002968,834.930542 
	C130.264786,837.801392 149.581619,840.303162 168.843475,843.173828 
	C189.894806,846.311279 210.904724,849.726318 231.953934,852.878601 
	C233.565979,853.119995 235.346497,852.236389 237.048706,851.875610 
	C252.891525,859.475464 268.544342,867.507812 284.622314,874.572510 
	C307.929565,884.813782 331.981049,892.843201 357.363342,896.360474 
	C375.932190,898.933533 394.156769,897.948669 412.737701,892.051025 
	C414.850555,892.779480 416.173279,893.673279 417.599365,893.891418 
	C439.949158,897.310059 462.313049,900.636230 484.672028,903.995117 
	C499.846863,906.274780 515.014099,908.605774 530.194031,910.851135 
	C542.111694,912.613953 554.043579,914.280762 565.978638,916.459473 
	C566.003296,926.952637 566.018311,936.976685 566.022827,947.463745 
	C565.997559,951.952698 565.982788,955.978638 565.967957,960.004578 
z"/>
<path fill="#5D0101" opacity="1.000000" stroke="none" 
	d="
M236.864807,851.591431 
	C235.346497,852.236389 233.565979,853.119995 231.953934,852.878601 
	C210.904724,849.726318 189.894806,846.311279 168.843475,843.173828 
	C149.581619,840.303162 130.264786,837.801392 111.002968,834.930542 
	C92.235909,832.133362 73.512138,829.046692 54.756832,826.168884 
	C52.639236,825.843872 50.440449,826.047974 47.853279,826.010132 
	C46.292259,809.088318 45.160225,792.162964 44.021114,775.238037 
	C43.384319,765.776611 42.735767,756.315979 42.161667,746.429199 
	C53.692829,747.456116 65.172226,748.784973 76.612503,750.392273 
	C91.483437,752.481506 106.317123,754.834595 121.180450,756.979919 
	C125.344727,757.580994 129.556854,757.850586 133.961044,757.937439 
	C144.850204,774.722473 157.121735,790.537476 171.803864,804.463196 
	C191.341156,822.993774 213.293839,838.132324 236.864807,851.591431 
z"/>
<path fill="#7F0000" opacity="1.000000" stroke="none" 
	d="
M565.978882,960.472656 
	C565.982788,955.978638 565.997559,951.952698 566.414185,947.556580 
	C567.210754,950.359131 567.822754,953.523010 567.953552,956.706543 
	C568.203674,962.793579 569.411926,963.890442 575.199097,962.410828 
	C601.695312,955.636292 628.175720,948.800476 654.675476,942.039917 
	C695.145386,931.715332 735.619812,921.408508 776.104370,911.141724 
	C836.992554,895.700745 897.900024,880.335754 958.782043,864.870728 
	C997.496216,855.036621 1036.181274,845.087891 1074.872437,835.164062 
	C1078.093628,834.337891 1081.244629,833.503418 1084.115356,836.037720 
	C1084.115356,843.079041 1084.115356,850.120361 1084.115356,856.828308 
	C1051.735962,873.478271 1020.227905,889.680176 988.351685,905.884644 
	C985.444946,905.840210 982.764526,905.230103 980.388611,905.828735 
	C926.922058,919.299377 873.491028,932.911133 820.048767,946.478027 
	C785.384338,955.277832 750.706848,964.026306 716.045471,972.837891 
	C669.347961,984.709351 622.668091,996.649902 575.949829,1008.438904 
	C573.041016,1009.172913 569.864624,1008.846497 566.423035,1009.004944 
	C566.018860,992.977966 566.004333,976.959351 565.978882,960.472656 
z"/>
<path fill="#810000" opacity="1.000000" stroke="none" 
	d="
M1084.487793,835.811157 
	C1081.244629,833.503418 1078.093628,834.337891 1074.872437,835.164062 
	C1036.181274,845.087891 997.496216,855.036621 958.782043,864.870728 
	C897.900024,880.335754 836.992554,895.700745 776.104370,911.141724 
	C735.619812,921.408508 695.145386,931.715332 654.675476,942.039917 
	C628.175720,948.800476 601.695312,955.636292 575.199097,962.410828 
	C569.411926,963.890442 568.203674,962.793579 567.953552,956.706543 
	C567.822754,953.523010 567.210754,950.359131 566.424683,947.093506 
	C566.018311,936.976685 566.003296,926.952637 565.996033,916.465332 
	C566.003845,916.002075 566.037903,916.013428 566.406494,916.081177 
	C567.516785,919.400879 568.774658,922.637878 568.868774,925.908386 
	C568.985291,929.957397 569.427551,931.487305 574.219238,930.238892 
	C609.081238,921.156006 644.007141,912.315125 678.955688,903.568542 
	C688.865906,901.088318 698.917847,899.173950 708.904785,897.000122 
	C709.491943,898.844238 710.079041,900.688354 710.798706,902.948730 
	C722.697754,896.993591 734.490967,891.091431 746.729614,885.531738 
	C748.827393,886.065918 750.606140,886.756775 752.113342,886.375244 
	C779.718628,879.386353 807.274658,872.203125 834.874390,865.191956 
	C895.689636,849.742859 956.527283,834.381653 1017.347595,818.952454 
	C1036.605469,814.066956 1055.866577,809.188110 1075.059692,804.057373 
	C1079.489624,802.873169 1083.297974,802.860413 1086.805786,806.001038 
	C1086.157227,815.862244 1085.508667,825.723389 1084.487793,835.811157 
z"/>
<path fill="#840000" opacity="1.000000" stroke="none" 
	d="
M805.815918,854.927673 
	C807.644470,844.499390 809.473083,834.071167 811.953125,823.319275 
	C820.770569,820.992920 828.949280,819.039856 837.100464,816.978210 
	C863.341919,810.340942 889.573181,803.663696 915.808411,797.001892 
	C917.772522,796.492004 919.817749,796.181519 921.681030,795.423645 
	C924.233398,794.385559 926.647583,793.007690 929.683594,792.014160 
	C931.650696,792.276550 933.127258,792.596680 934.447998,792.275818 
	C942.817139,790.242859 951.147583,788.051208 959.498657,785.942871 
	C1003.014465,774.956787 1046.532593,763.979858 1090.049927,752.999817 
	C1089.430908,763.404297 1088.811768,773.808838 1087.634521,784.606689 
	C1085.609253,785.208435 1084.107666,785.280396 1082.680664,785.644836 
	C1038.097168,797.030823 993.530212,808.481201 948.941223,819.845337 
	C908.041504,830.269287 867.132141,840.656494 826.193848,850.927917 
	C819.488831,852.610229 812.612854,853.611633 805.815918,854.927673 
z"/>
<path fill="#8A0000" opacity="1.000000" stroke="none" 
	d="
M1026.890259,648.381104 
	C1046.402710,643.153198 1065.748169,638.276306 1085.114380,633.482605 
	C1089.102051,632.495605 1093.166504,631.819336 1097.620361,630.998657 
	C1097.375244,640.047974 1096.610596,649.092834 1096.063110,658.150757 
	C1095.558716,666.497437 1095.355103,674.862000 1094.893433,683.211731 
	C1094.470947,690.856934 1093.880493,698.492859 1092.781860,706.566406 
	C1090.241943,707.254639 1088.236816,707.319458 1086.334106,707.794617 
	C1073.487793,711.002747 1060.685913,714.390015 1047.824829,717.536255 
	C1037.067505,720.167847 1026.249146,722.550476 1015.457886,725.043396 
	C1019.215515,699.616089 1022.973083,674.188843 1026.890259,648.381104 
z"/>
<path fill="#830000" opacity="1.000000" stroke="none" 
	d="
M805.468262,854.985718 
	C812.612854,853.611633 819.488831,852.610229 826.193848,850.927917 
	C867.132141,840.656494 908.041504,830.269287 948.941223,819.845337 
	C993.530212,808.481201 1038.097168,797.030823 1082.680664,785.644836 
	C1084.107666,785.280396 1085.609253,785.208435 1087.491943,785.000122 
	C1087.596802,791.703979 1087.285767,798.407898 1086.890137,805.556396 
	C1083.297974,802.860413 1079.489624,802.873169 1075.059692,804.057373 
	C1055.866577,809.188110 1036.605469,814.066956 1017.347595,818.952454 
	C956.527283,834.381653 895.689636,849.742859 834.874390,865.191956 
	C807.274658,872.203125 779.718628,879.386353 752.113342,886.375244 
	C750.606140,886.756775 748.827393,886.065918 747.088013,885.513062 
	C761.479004,877.739990 775.969055,870.351379 790.428467,862.903381 
	C795.365417,860.360291 800.225403,857.667969 805.468262,854.985718 
z"/>
<path fill="#870101" opacity="1.000000" stroke="none" 
	d="
M1015.307007,725.389160 
	C1026.249146,722.550476 1037.067505,720.167847 1047.824829,717.536255 
	C1060.685913,714.390015 1073.487793,711.002747 1086.334106,707.794617 
	C1088.236816,707.319458 1090.241943,707.254639 1092.635498,706.999878 
	C1092.049927,719.885193 1090.990845,732.767822 1090.045166,745.658752 
	C1089.888428,747.795227 1090.226440,749.968079 1090.192871,752.561951 
	C1046.532593,763.979858 1003.014465,774.956787 959.498657,785.942871 
	C951.147583,788.051208 942.817139,790.242859 934.447998,792.275818 
	C933.127258,792.596680 931.650696,792.276550 930.032471,791.915039 
	C947.254028,782.706482 964.710815,773.877563 982.116089,764.948364 
	C991.414856,760.177979 1000.648193,755.277771 1009.840027,750.305054 
	C1010.797302,749.787170 1011.717346,748.451416 1011.898132,747.368835 
	C1013.099304,740.176697 1014.094238,732.950195 1015.307007,725.389160 
z"/>
<path fill="#FF1111" opacity="1.000000" stroke="none" 
	d="
M182.654831,84.113708 
	C182.188644,84.456337 181.395309,84.734703 180.270538,84.990540 
	C180.735291,84.661819 181.531494,84.355629 182.654831,84.113708 
z"/>
<path fill="#FF0707" opacity="1.000000" stroke="none" 
	d="
M150.650452,91.111778 
	C150.176834,91.448410 149.373032,91.723930 148.234100,91.975250 
	C148.706070,91.650917 149.513184,91.350792 150.650452,91.111778 
z"/>
<path fill="#FF7B7B" opacity="1.000000" stroke="none" 
	d="
M828.567078,57.118675 
	C828.067810,57.336170 827.219666,57.441368 826.200745,57.312782 
	C826.759399,57.054794 827.488770,57.030586 828.567078,57.118675 
z"/>
<path fill="#FF7B7B" opacity="1.000000" stroke="none" 
	d="
M833.015869,58.656036 
	C832.577881,58.818035 831.989380,58.693203 831.214478,58.324524 
	C831.640503,58.176853 832.252869,58.273029 833.015869,58.656036 
z"/>
<path fill="#FF7B7B" opacity="1.000000" stroke="none" 
	d="
M837.626709,59.093163 
	C837.384766,59.289055 836.831299,59.389233 836.148132,59.272736 
	C836.450684,59.036526 836.882935,59.016987 837.626709,59.093163 
z"/>
<path fill="#5A0000" opacity="1.000000" stroke="none" 
	d="
M565.986450,915.996155 
	C554.043579,914.280762 542.111694,912.613953 530.194031,910.851135 
	C515.014099,908.605774 499.846863,906.274780 484.672028,903.995117 
	C462.313049,900.636230 439.949158,897.310059 417.599365,893.891418 
	C416.173279,893.673279 414.850555,892.779480 413.117432,892.042725 
	C430.477448,884.503296 444.583038,872.819580 455.420410,856.327026 
	C465.612366,857.751587 475.180145,859.469971 484.781586,860.973022 
	C499.761017,863.318054 514.758911,865.546631 529.757263,867.768494 
	C541.825562,869.556213 553.906189,871.260925 565.989746,873.465332 
	C566.011597,877.951294 566.025146,881.974426 566.024719,886.466309 
	C566.019836,896.627869 566.028870,906.320679 566.037903,916.013428 
	C566.037903,916.013428 566.003845,916.002075 565.986450,915.996155 
z"/>
<path fill="#5E0000" opacity="1.000000" stroke="none" 
	d="
M565.981384,873.002441 
	C553.906189,871.260925 541.825562,869.556213 529.757263,867.768494 
	C514.758911,865.546631 499.761017,863.318054 484.781586,860.973022 
	C475.180145,859.469971 465.612366,857.751587 455.653625,856.068481 
	C463.152740,843.172852 468.256042,829.248901 472.185669,814.356995 
	C476.211884,814.733643 479.588806,815.459167 482.996521,815.984558 
	C497.944427,818.289246 512.890564,820.609436 527.858093,822.781250 
	C540.552795,824.623230 553.276001,826.269592 565.993164,828.470825 
	C565.993591,843.626892 565.987488,858.314697 565.981384,873.002441 
z"/>
<path fill="#620000" opacity="1.000000" stroke="none" 
	d="
M565.986572,828.002441 
	C553.276001,826.269592 540.552795,824.623230 527.858093,822.781250 
	C512.890564,820.609436 497.944427,818.289246 482.996521,815.984558 
	C479.588806,815.459167 476.211884,814.733643 472.421997,814.050171 
	C473.021088,798.976257 474.018921,783.952454 475.087219,768.464600 
	C489.048401,769.812866 502.952698,771.527893 516.826233,773.463684 
	C531.678650,775.536072 546.503235,777.808472 561.336121,780.019775 
	C562.635132,780.213501 563.905090,780.601807 565.597046,781.418457 
	C566.021484,796.955566 566.037354,811.973877 566.033691,827.244507 
	C566.005066,827.665466 565.995789,827.833923 565.986572,828.002441 
z"/>
<path fill="#8B0000" opacity="1.000000" stroke="none" 
	d="
M566.053223,826.992126 
	C566.037354,811.973877 566.021484,796.955566 566.000854,781.468628 
	C566.005127,769.642212 566.014099,758.284424 566.043457,746.456787 
	C576.051575,743.821167 586.098999,741.896423 596.015625,739.443054 
	C622.345520,732.928894 648.616760,726.177979 674.920654,719.558350 
	C676.346985,719.199402 677.858337,719.178345 679.765625,718.999878 
	C683.123230,736.180908 686.074341,753.357300 688.957031,770.545105 
	C690.881470,782.019714 692.708374,793.510742 694.123657,805.463867 
	C692.523682,806.094482 691.352417,806.150696 690.238159,806.432312 
	C666.524475,812.425720 642.815552,818.437988 619.109253,824.460388 
	C602.965027,828.561768 586.826111,832.684143 569.947510,836.985046 
	C569.589111,834.505432 569.579407,832.359314 568.899902,830.451721 
	C568.428528,829.128418 567.034851,828.133667 566.053223,826.992126 
z"/>
<path fill="#860000" opacity="1.000000" stroke="none" 
	d="
M566.033752,827.244507 
	C567.034851,828.133667 568.428528,829.128418 568.899902,830.451721 
	C569.579407,832.359314 569.589111,834.505432 569.947510,836.985046 
	C586.826111,832.684143 602.965027,828.561768 619.109253,824.460388 
	C642.815552,818.437988 666.524475,812.425720 690.238159,806.432312 
	C691.352417,806.150696 692.523682,806.094482 694.117737,805.899780 
	C697.718262,824.967712 700.869507,844.069275 703.564087,863.586548 
	C702.445129,864.047546 701.756958,863.991333 701.124023,864.152283 
	C660.081543,874.589661 619.044922,885.049988 578.001770,895.484436 
	C575.564331,896.104065 573.077393,896.528870 569.994934,897.173706 
	C569.994934,894.075073 569.944336,891.939636 570.007446,889.807617 
	C570.089783,887.027893 568.724426,885.847839 566.038635,885.997559 
	C566.025146,881.974426 566.011597,877.951294 565.989746,873.465332 
	C565.987488,858.314697 565.993591,843.626892 565.993164,828.470825 
	C565.995789,827.833923 566.005066,827.665466 566.033752,827.244507 
z"/>
<path fill="#870101" opacity="1.000000" stroke="none" 
	d="
M915.834473,796.609619 
	C889.573181,803.663696 863.341919,810.340942 837.100464,816.978210 
	C828.949280,819.039856 820.770569,820.992920 812.174744,822.994019 
	C814.982849,803.500610 818.196167,784.004639 821.467896,764.518555 
	C823.420471,752.889343 825.464966,741.275635 828.074707,729.288574 
	C842.946106,725.262390 857.194275,721.535583 871.482178,717.968140 
	C879.969238,715.849060 888.518921,713.980652 897.040405,711.999512 
	C900.703369,728.238525 904.387268,744.472900 908.022278,760.718201 
	C910.668396,772.543823 913.250061,784.383789 915.834473,796.609619 
z"/>
<path fill="#900202" opacity="1.000000" stroke="none" 
	d="
M897.073792,711.587097 
	C888.518921,713.980652 879.969238,715.849060 871.482178,717.968140 
	C857.194275,721.535583 842.946106,725.262390 828.294434,728.960571 
	C830.452209,713.595886 832.897461,698.175720 835.560425,682.793213 
	C843.327698,637.926025 851.180176,593.073669 859.008423,548.217041 
	C859.320496,546.429016 859.724915,544.657043 860.730774,542.820312 
	C863.979187,557.863892 867.225647,572.907898 870.476379,587.950989 
	C879.352356,629.025757 888.230103,670.100098 897.073792,711.587097 
z"/>
<path fill="#840000" opacity="1.000000" stroke="none" 
	d="
M566.024719,886.466309 
	C568.724426,885.847839 570.089783,887.027893 570.007446,889.807617 
	C569.944336,891.939636 569.994934,894.075073 569.994934,897.173706 
	C573.077393,896.528870 575.564331,896.104065 578.001770,895.484436 
	C619.044922,885.049988 660.081543,874.589661 701.124023,864.152283 
	C701.756958,863.991333 702.445129,864.047546 703.514282,864.001343 
	C705.686951,874.723389 707.452881,885.446350 709.061768,896.584717 
	C698.917847,899.173950 688.865906,901.088318 678.955688,903.568542 
	C644.007141,912.315125 609.081238,921.156006 574.219238,930.238892 
	C569.427551,931.487305 568.985291,929.957397 568.868774,925.908386 
	C568.774658,922.637878 567.516785,919.400879 566.406494,916.081177 
	C566.028870,906.320679 566.019836,896.627869 566.024719,886.466309 
z"/>
</svg>