<?xml version="1.0" encoding="utf-8"?>
<!-- Generator: Adobe Illustrator 23.0.1, SVG Export Plug-In . SVG Version: 6.00 Build 0)  -->
<svg version="1.1" id="Layer_1" xmlns="http://www.w3.org/2000/svg" xmlns:xlink="http://www.w3.org/1999/xlink" x="0px" y="0px"
	 viewBox="0 0 595.3 591.1" style="enable-background:new 0 0 595.3 591.1;" xml:space="preserve">
<style type="text/css">
	.st0{fill:#700000;}
	.st1{fill:#9A0101;}
	.st2{fill:#FF0000;}
	.st3{fill:#7B0000;}
	.st4{fill:#FE8383;}
	.st5{fill:#FF7070;}
	.st6{fill:#FF6868;}
	.st7{fill:#E5E4E4;}
	.st8{fill:#920000;}
	.st9{fill:#670101;}
	.st10{fill:#650101;}
	.st11{fill:#670000;}
	.st12{fill:#FFFEFE;}
	.st13{fill:#FF2626;}
	.st14{fill:#FF1B1B;}
	.st15{fill:#FF3D3D;}
	.st16{fill:#FF3131;}
	.st17{fill:#FF4848;}
	.st18{fill:#FF1111;}
	.st19{fill:#FF5252;}
	.st20{fill:#FF5D5D;}
	.st21{fill:#FF0707;}
	.st22{fill:#910101;}
	.st23{fill:#FF7B7B;}
	.st24{fill:#FF7575;}
	.st25{fill:#530000;}
	.st26{fill:#570000;}
	.st27{fill:#5D0101;}
	.st28{fill:#7F0000;}
	.st29{fill:#810000;}
	.st30{fill:#840000;}
	.st31{fill:#8A0000;}
	.st32{fill:#830000;}
	.st33{fill:#870101;}
	.st34{fill:#5A0000;}
	.st35{fill:#5E0000;}
	.st36{fill:#620000;}
	.st37{fill:#8B0000;}
	.st38{fill:#860000;}
	.st39{fill:#900202;}
</style>
<path class="st0" d="M0.5,67.4c0-0.7,0-1.5,0.2-2.4C1.9,65.1,3,65.3,4,65.6c29.3,8.8,58.5,17.7,87.7,26.5
	c27.1,8.2,54.1,16.4,81.2,24.6c32.3,9.8,64.7,19.6,97,29.3c9.6,2.9,19.1,5.7,28.7,8.8c-0.2,50.3-0.3,100.4-0.5,150.5
	c0,8.3,0,16.7,0,25.3c0,13.1,0,25.9-0.2,38.7c-5.9-0.9-11.6-1.8-17.2-2.6c-7.9-1.2-15.8-2.5-23.7-3.6c-5.8-0.8-11.6-1.5-17.5-2.3
	c-2.6-4.6-4.8-9.1-7.5-13.5c-10-16.1-23-29.7-37.9-41.3c-17-13.2-34.5-25.6-51.8-38.4c-4.8-3.6-9.6-7.4-14-11.5
	c-4.6-4.3-7.7-9.6-8.5-16c-1.3-11,5.7-18.2,16-15.7c10.6,2.5,19.7,7.7,27.1,15.7c8.8,9.5,12.5,21.3,14.5,33.8
	c0.3,1.9,1.1,2.6,2.7,3.2c12.8,4.4,25.5,8.8,38.2,13.3c8.1,2.8,16.2,5.7,24.4,8.5c0-1,0.1-1.8,0-2.6c-1.2-6.9-2.1-13.9-3.6-20.7
	c-6.2-27.4-19.6-50.4-41.3-68.6c-17.2-14.4-36.7-24.4-57.6-32.1c-12.4-4.6-24.9-8.3-38.3-8.6c-20.9-0.4-36.5,10.6-42.9,30.4
	c-4.8,14.7-4.1,29.6-0.8,44.4c4.7,21,15.5,38.8,29.8,54.5c14.4,15.8,30.9,29.1,48.3,41.4c4.4,3.1,8.6,6.3,12.7,9.4
	c-0.9,0-1.7,0.1-2.3,0c-4.1-0.6-8.2-1.2-12.3-1.8c-8.8-1.3-17.7-2.7-26.5-3.9c-2-0.3-4.1,0.1-6.4,0.1c-18-6.2-35.9-12.3-54.2-18.6
	c0.6,5.4,1.1,10.3,1.5,15.3c-0.5,0.1-0.9,0.4-1.2,0.3c-6-0.9-12-1.9-18-2.7c-3.6-0.5-7.3-0.6-11.1-1.1c-0.6-9-1.2-17.7-1.8-26.5
	c-0.8-12.3-1.7-24.7-2.5-37c-0.6-9-1.1-18-1.7-27c-0.8-12.7-1.7-25.4-2.5-38c-0.6-8.7-1.1-17.5-1.7-26.2c-0.8-12.3-1.7-24.7-2.5-37
	c-0.6-9-1.1-18-1.7-27c-0.8-12.8-1.7-25.5-2.5-38.3C1.3,73.9,0.9,70.7,0.5,67.4z"/>
<path class="st1" d="M298.2,330.3c0-8.3,0-16.7,0-25c0.2-50.1,0.3-100.2,0.7-150.6c4.4-1.6,8.5-2.8,12.7-4.1
	c7.1-2.2,14.3-4.5,21.6-6.7c5-1.5,9.7-2.9,14.7-4.3c6.2-1.9,12.2-3.8,18.5-5.7c6.6-2,12.9-3.9,19.5-5.8c7-2.1,13.7-4.2,20.7-6.3
	c6.5-1.9,12.9-3.9,19.4-5.8c6.6-2,12.9-3.9,19.5-5.8c6.9-2.1,13.7-4.2,20.6-6.3c6.4-1.9,12.6-3.8,18.9-5.7c6.5-2,12.9-3.9,19.4-5.9
	c5.9-1.8,11.5-3.5,17.4-5.3c4.1-1.2,8.1-2.5,12.2-3.7c3-0.9,5.8-1.8,8.8-2.7c4.7-1.4,9.2-2.7,13.8-4.1c0.7-0.1,1.2-0.2,1.7-0.4
	c12.5-3.7,25-7.5,37.4-11.3c0,3.3,0,6.7-0.2,10.4c-0.3,2.5-0.4,4.6-0.5,6.7c-0.8,12.1-1.6,24.1-2.4,36.2c-0.6,9.3-1.2,18.6-1.8,27.8
	c-0.8,12-1.7,24-2.4,36c-0.6,9.4-1.1,18.7-1.8,28.1c-0.8,12.5-1.6,25-2.5,37.5c-0.4,6.4-0.9,12.7-1.6,19.1c-3.3,0.8-6.5,1.6-9.6,2.4
	c-7.4,1.8-14.7,3.6-22.1,5.2c1.8-12.2,3.6-24.2,5.4-36.1c3.8-24.9,7.6-49.7,11.4-74.6c0.6-4,1.2-8,1.8-12.3
	c-15.7,6-30.9,11.9-46.2,17.7c-2,0.7-2.6,1.8-2.8,3.8c-2.1,17.1-4.3,34.1-6.5,51.2c-2.2,17.3-4.4,34.6-6.6,51.9
	c-1.3,9.9-2.5,19.8-3.8,29.8c-0.1,0-0.3,0-0.4,0c-8.6-39.7-17.2-79.3-25.8-119c-15.9,6.1-31.4,12-47,17.9c-1.5,0.6-1.9,1.4-2.2,2.8
	c-2.3,13.4-4.6,26.8-6.9,40.2c-4.9,28.3-9.7,56.7-14.6,85c-1.1,6.2-2.1,12.3-3.2,18.5c-0.1,0-0.2,0-0.4,0
	c-6-43-11.9-85.9-17.9-129.1c-16.4,6.3-32.6,12.4-48.9,18.7c1.8,11.2,3.6,22.1,5.3,33.1c2.3,14.7,4.7,29.4,6.8,44.2
	c-11.8,3-23.4,6-35.1,8.9C308.3,327.9,303.3,329.1,298.2,330.3z"/>
<path class="st2" d="M0.5,64.4c4.9-1.1,9.8-1.9,14.6-3c20.8-4.5,41.6-9,62.7-13.5c0.8-0.1,1.2-0.3,1.7-0.4c0.1,0,0.2-0.1,0.5,0.1
	c1.7,0.9,3.1,1.9,4.6,2.4c4.9,1.9,9.8,3.6,14.7,5.5c19.5,7.3,38.9,14.6,58.4,21.9c16.7,6.2,33.4,12.4,50.1,18.7
	c20.3,7.6,40.6,15.3,60.8,22.9c20.8,7.8,41.6,15.5,62.4,23.3c0.7,0.3,1.2,1.1,1.8,1.6c-7.1,2.2-14.3,4.5-21.4,6.7
	c-4.2,1.3-8.3,2.5-12.7,3.9c-9.8-2.8-19.3-5.6-28.9-8.5c-32.4-9.8-64.7-19.5-97-29.3c-27.1-8.2-54.1-16.4-81.2-24.6
	C62.5,83.3,33.2,74.5,4,65.6c-1-0.3-2-0.6-3.2-0.9C0.5,64.8,0.5,64.5,0.5,64.4z"/>
<path class="st3" d="M520.5,476.7c-7.9,4.1-15.8,8.2-23.8,12.2c-14.1,7.2-28.1,14.4-42.2,21.6c-13.3,6.8-26.7,13.7-40,20.5
	c-14.1,7.2-28.1,14.4-42.2,21.6c-6.7,3.5-13.4,7-20.1,10.5c-17.8,9.2-35.6,18.4-53.5,27.7c-0.1,0.2-0.3,0.2-0.5,0.2
	c-0.1,0-0.1-0.2-0.1-0.6c0-20.1,0-39.7,0.2-59.4c1.8-0.1,3.5,0.1,5-0.3c24.6-6.2,49.2-12.5,73.8-18.8c18.3-4.6,36.5-9.3,54.8-13.9
	c28.2-7.1,56.3-14.3,84.5-21.4C517.7,476.3,519.1,476.7,520.5,476.7z"/>
<path class="st4" d="M436.7,29.6c0.3,0.1,0.5,0.2,1.1,0.5c0.6,0.2,0.9,0.3,1.2,0.4c0.4,0,0.8,0,1.4,0.1c0.5,0.1,0.8,0,1.1,0
	c13.4,2.9,26.7,5.9,40.1,8.8c15.7,3.4,31.5,6.8,47.2,10.2c17.4,3.8,34.8,7.6,52.3,11.4c4.8,1,9.6,2.1,14.7,3.2
	c0.2,0,0.2,0.3,0.2,0.4c-12.5,3.9-25,7.6-37.4,11.4c-0.5,0.2-1,0.3-1.9,0.4c-1.4-0.4-2.4-0.8-3.3-1.2c-15.2-5.7-30.5-11.3-45.7-17
	c-18.5-6.9-37-13.8-55.5-20.8c-5.6-2.1-11.2-4.4-16.8-6.6c-0.9-0.3-1.8-0.5-1-1.7c0.3,0.1,0.5,0.2,1,0.6
	C435.8,29.7,436.2,29.7,436.7,29.6z"/>
<path class="st5" d="M301.6,0c2,0.6,3.8,1.4,5.7,1.8c9.7,2.1,19.4,4.1,29.1,6.1c0.3,0.1,0.5,0,0.9,0.2c-1.3,2.2,1,1.9,1.6,2.1
	c13.1,5,26.3,9.9,39.5,14.8c12.3,4.6,24.6,9.1,36.9,13.7c16.3,6.1,32.6,12.2,48.8,18.3c11.2,4.2,22.4,8.4,33.6,12.6
	c12,4.5,24,9,36.1,13.6c-3.9,1.2-7.9,2.4-12.1,3.5c-0.7-0.4-1.1-0.8-1.6-1c-21-7.9-42-15.8-63.1-23.7c-16.7-6.2-33.4-12.4-50.1-18.6
	c-18.9-7.1-37.8-14.3-56.7-21.4c-17.5-6.6-35.1-13.1-52.6-19.6c-0.8-0.3-1.4-1.3-2.1-2c0,0,0,0,0.2,0c0.6-0.2,1-0.3,1.4-0.5
	C298.5,0,300,0,301.6,0z"/>
<path class="st6" d="M296.9,0c-0.2,0.2-0.6,0.3-1.2,0.4c-0.2-0.1-0.2-0.4-0.2-0.4C295.9,0,296.3,0,296.9,0z"/>
<path class="st5" d="M295.4,0c0.1,0,0.1,0.3,0.1,0.4c0,0.1,0,0.1-0.1,0.1c-0.1,0-0.4,0-0.4,0c0-0.1,0-0.2,0-0.4
	C295,0,295.3,0,295.4,0z"/>
<path class="st7" d="M48.9,337.7c-0.5-4.9-1.1-9.9-1.7-15.3c18.3,6.3,36.1,12.4,54.3,18.7c3.4,1.3,6.5,2.5,9.6,3.3
	c1.6,0.4,2,1.1,2.2,2.6c1.5,12.4,4.2,24.5,10.7,35.4c8.7,14.6,20.9,24.4,37.6,28.1c11.6,2.6,20.1-3.8,21.3-15.7
	c0.7-7.1-1.3-13.5-4.6-19.7c-6.8-12.5-17.9-20.6-29.1-28.8c-4.3-3.1-8.6-6.3-13-9.4c-17.3-12.3-33.9-25.6-48.3-41.4
	c-14.3-15.8-25.1-33.5-29.8-54.5c-3.3-14.8-3.9-29.7,0.8-44.4c6.4-19.8,22-30.8,42.9-30.4c13.4,0.3,25.9,4,38.3,8.6
	c20.8,7.7,40.4,17.7,57.6,32.1c21.6,18.1,35.1,41.2,41.3,68.6c1.5,6.8,2.4,13.8,3.6,20.7c0.1,0.8,0,1.6,0,2.6
	c-8.2-2.9-16.3-5.7-24.4-8.5c-12.7-4.4-25.5-8.9-38.2-13.3c-1.7-0.6-2.4-1.3-2.7-3.2c-1.9-12.5-5.6-24.3-14.5-33.8
	c-7.4-8-16.5-13.2-27.1-15.7c-10.3-2.4-17.3,4.8-16,15.7c0.8,6.3,3.9,11.7,8.5,16c4.4,4.1,9.1,7.9,14,11.5
	c17.2,12.8,34.8,25.2,51.8,38.4c14.9,11.6,27.9,25.2,37.9,41.3c2.7,4.3,4.9,8.9,7.5,13.6c6.1,14,9.9,28.2,10.7,43.3
	c-0.6,8.2-1.1,16.1-1.7,24.1c-1.9,7.9-4.5,15.2-8.8,22.1c-5.5,8.7-12.9,14.9-22.5,18.8c-9.6,3.2-19.2,3.7-29,2.4
	c-13.4-1.9-26-6.1-38.3-11.5c-8.5-3.7-16.7-8-25.2-12.1c-12.4-7.1-24-15.1-34.3-24.8c-7.7-7.3-14.2-15.7-19.9-24.9
	c-2.2-4.2-4.4-8.1-6.4-12.2C56.6,370.8,51.7,354.6,48.9,337.7z"/>
<path class="st8" d="M298.2,330.5c5.1-1.5,10.1-2.7,15.2-3.9c11.6-2.9,23.2-5.9,35.1-8.7c0.6,2.3,1,4.4,1.3,6.5
	c1.5,9.3,3,18.6,4.5,27.9c1.4,8.6,2.7,17.3,3.8,25.9c-1,0.1-1.8,0.1-2.6,0.3c-13.9,3.5-27.7,7-41.6,10.5c-5.2,1.3-10.5,2.3-15.8,3.2
	c0-7.8,0-15.4,0-22.9C298.2,356.4,298.2,343.6,298.2,330.5z"/>
<path class="st9" d="M149,346.6c11.4,8.1,22.6,16.2,29.3,28.7c3.3,6.1,5.3,12.6,4.6,19.7c-1.1,11.9-9.7,18.2-21.3,15.7
	c-16.7-3.7-29-13.5-37.6-28.1c-6.5-10.9-9.2-23-10.7-35.4c-0.2-1.5-0.6-2.2-2.2-2.6c-3.2-0.9-6.2-2.1-9.4-3.3
	c1.9-0.2,4.1-0.5,6.1-0.3c8.8,1.2,17.7,2.6,26.5,3.9c4.1,0.6,8.2,1.2,12.3,1.8C147.3,346.7,148.1,346.6,149,346.6z"/>
<path class="st10" d="M48.7,337.7c3,16.9,7.8,33.1,15.5,48.5c2,4.1,4.3,8,6.3,12.4c-2.3,0.1-4.5,0-6.7-0.3
	c-7.8-1.1-15.6-2.4-23.5-3.5c-6-0.8-12.1-1.5-18.1-2.3c-0.7-11.7-1.5-23.4-2.2-35.1c-0.5-7.5-1-14.9-1.5-22.7c3.7,0,7.4,0.1,11,0.6
	c6,0.8,12,1.8,18,2.7C47.8,338.1,48.2,337.8,48.7,337.7z"/>
<path class="st11" d="M297.9,369.3c0.2,7.6,0.2,15.1,0.2,23.2c0,6.5,0,12.5-0.2,18.4c-0.9-0.2-1.6-0.4-2.2-0.5
	c-7.8-1.2-15.6-2.4-23.4-3.5c-7.3-1-14.6-1.9-22-2.9c-0.9-14.9-4.7-29.1-10.6-43c5.8,0.5,11.6,1.2,17.3,2c7.9,1.1,15.8,2.4,23.7,3.6
	C286.4,367.5,292.1,368.4,297.9,369.3z"/>
<path class="st12" d="M358.3,378.2c-1.3-8.6-2.7-17.3-4-25.9c-1.5-9.3-3-18.6-4.5-27.9c-0.3-2.1-0.7-4.2-1.1-6.5
	c-2.4-14.9-4.7-29.7-7.1-44.4c-1.7-11-3.5-22-5.3-33.1c16.3-6.2,32.4-12.4,48.9-18.7c6,43.2,12,86.2,17.9,129.1c0.1,0,0.2,0,0.4,0
	c1.1-6.2,2.1-12.3,3.2-18.5c4.9-28.3,9.7-56.7,14.6-85c2.3-13.4,4.7-26.8,6.9-40.2c0.2-1.5,0.7-2.3,2.2-2.8
	c15.6-5.9,31.1-11.9,47-17.9c8.6,39.7,17.2,79.4,25.8,119c0.1,0,0.3,0,0.4,0c1.3-9.9,2.5-19.8,3.8-29.8c2.2-17.3,4.4-34.6,6.6-51.9
	c2.2-17.1,4.4-34.1,6.5-51.2c0.2-2,0.8-3,2.8-3.8c15.3-5.8,30.6-11.7,46.2-17.7c-0.6,4.3-1.2,8.3-1.8,12.3
	c-3.8,24.9-7.6,49.7-11.4,74.6c-1.8,12-3.6,23.9-5.5,36.3c-2.2,14.5-4.3,28.7-6.4,42.8c-1.2,7.9-2.2,15.8-3.4,23.9
	c-2.1,13.6-4,27-6.1,40.6c-0.6,4-1.2,7.8-1.8,11.6c-0.1,0.6-0.6,1.3-1.1,1.5c-4.8,2.6-9.7,5.2-14.6,7.7c-9.2,4.7-18.4,9.4-27.7,14.1
	c-1.5,0.7-2.8,1.4-4.1,2c-1,0.4-2.1,0.6-3.1,0.6c-1.4-6.4-2.7-12.7-4.1-18.9c-1.9-8.6-3.9-17.1-5.8-25.9c-4.7-21.9-9.3-43.5-14-65.1
	c-1.7-7.9-3.4-15.8-5.1-23.8c-0.5,1-0.7,1.9-0.9,2.8c-4.1,23.6-8.3,47.3-12.4,70.9c-1.4,8.1-2.7,16.2-4.1,24.5
	c-1.2,6.3-2.2,12.4-3.3,18.5c-1.7,10.3-3.4,20.5-5.2,31c-1.1,5.7-2,11.2-3.2,16.7c-2.8,1.4-5.3,2.8-7.9,4.2
	c-7.6,3.9-15.3,7.8-23.1,11.7c-6.4,3.1-12.6,6.2-18.9,9.4c-0.4-1.2-0.7-2.2-0.9-3.4c-0.8-5.9-1.8-11.5-2.7-17.4
	c-1.6-10.3-3.3-20.3-5-30.6c-1-6.3-1.9-12.3-3-18.4C361.4,396.3,359.9,387.3,358.3,378.2z"/>
<path class="st13" d="M140.1,34.3c6.2-1.4,12.4-2.9,18.7-4.3c1-0.2,2-0.4,3.5-0.5c1.6,0.6,2.7,1.4,3.9,1.9
	c15.1,5.7,30.3,11.3,45.4,16.9c13.1,4.9,26.2,9.8,39.3,14.7c16.8,6.3,33.6,12.6,50.3,18.8c13.8,5.1,27.5,10.2,41.3,15.4
	c16.4,6.2,32.9,12.3,49.3,18.6c4.9,1.9,9.7,4,14.5,6c-6.7,2.1-13.5,4.2-20.5,6.1c-0.8-0.6-1.3-1.1-1.9-1.4
	c-20.2-7.6-40.4-15.2-60.7-22.7c-18.1-6.7-36.2-13.4-54.3-20.2c-22.3-8.3-44.5-16.7-66.8-25.1c-19.8-7.4-39.6-14.8-59.4-22.3
	C141.7,35.9,141,35,140.1,34.3z"/>
<path class="st14" d="M139.9,34.3c1.1,0.7,1.8,1.6,2.8,1.9c19.8,7.5,39.6,14.8,59.4,22.3c22.3,8.3,44.5,16.8,66.8,25.1
	c18.1,6.8,36.2,13.5,54.3,20.2c20.2,7.5,40.5,15.1,60.7,22.7c0.6,0.2,1.1,0.8,1.7,1.4c-6.3,2.1-12.7,4.1-19.3,5.8
	c-4.3-1.9-8.3-3.7-12.5-5.2c-13.8-5.2-27.7-10.3-41.5-15.5c-18.3-6.8-36.5-13.7-54.8-20.5c-13.2-4.9-26.4-9.9-39.5-14.8
	c-16.8-6.3-33.6-12.6-50.3-18.9c-12.7-4.8-25.4-9.5-38.1-14.3c-4.4-1.7-8.8-3.3-13.2-5c6.9-1.6,13.8-3.2,20.7-4.7
	C138,34.6,138.9,34.4,139.9,34.3z"/>
<path class="st15" d="M186,24.3c6.2-1.4,12.4-2.9,18.7-4.3c1-0.2,2-0.4,3.4-0.4c1.2,0.7,2,1.4,3,1.8c8.2,3.1,16.4,6.2,24.6,9.2
	c15.2,5.7,30.5,11.3,45.7,17c16.5,6.2,33.1,12.4,49.6,18.6c10.7,4,21.5,8,32.2,12c15.3,5.7,30.6,11.5,46,17.2
	c11.6,4.3,23.1,8.6,34.6,13c0.6,0.2,1,1,1.4,1.6c-6.4,1.9-12.7,3.9-19.3,5.7c-1.2-0.6-2.1-1.2-3-1.6c-5.3-2-10.7-3.9-16-5.9
	c-20.3-7.6-40.6-15.3-60.9-22.9c-16.7-6.3-33.4-12.4-50.2-18.7c-19.5-7.3-39-14.6-58.5-21.9c-16.5-6.2-33.1-12.3-49.6-18.5
	C186.9,26,186.5,25,186,24.3z"/>
<path class="st16" d="M185.7,24.3c0.8,0.7,1.2,1.7,1.9,2c16.5,6.2,33.1,12.3,49.6,18.5c19.5,7.3,39,14.6,58.5,21.9
	c16.7,6.2,33.5,12.4,50.2,18.7c20.3,7.6,40.6,15.3,60.9,22.9c5.3,2,10.7,3.9,16,5.9c1,0.4,1.8,0.9,2.8,1.6c-6.2,2.1-12.6,4-19.1,6
	c-5-2-9.8-4.1-14.7-6c-16.4-6.2-32.9-12.4-49.3-18.6c-13.7-5.2-27.5-10.2-41.3-15.4c-16.8-6.3-33.6-12.6-50.3-18.8
	c-13.1-4.9-26.2-9.8-39.3-14.7c-15.1-5.6-30.3-11.3-45.4-16.9c-1.2-0.5-2.3-1.2-3.7-1.9c6.7-1.6,13.6-3.2,20.5-4.8
	C183.8,24.6,184.7,24.4,185.7,24.3z"/>
<path class="st17" d="M445.3,110.1c-0.7-0.5-1.1-1.3-1.7-1.6c-11.5-4.4-23.1-8.7-34.6-13c-15.3-5.7-30.6-11.5-46-17.2
	c-10.7-4-21.5-8-32.2-12c-16.5-6.2-33.1-12.5-49.6-18.6c-15.2-5.7-30.5-11.4-45.7-17c-8.2-3.1-16.4-6.1-24.6-9.2
	c-0.9-0.4-1.7-1.1-2.7-1.8c5.9-1.5,12-2.9,18-4.3c1.7-0.4,3.4-0.7,5.2-0.9c0.5,0.7,0.7,1.5,1.2,1.8c2.6,1.1,5.2,2,7.8,3
	c13.8,5.1,27.5,10.2,41.3,15.4c18.9,7.1,37.8,14.2,56.7,21.3c18.1,6.8,36.2,13.5,54.3,20.2c20,7.5,39.9,14.9,59.9,22.5
	c4.4,1.7,8.7,3.5,13.1,5.3C459,105.9,452.3,108,445.3,110.1z"/>
<path class="st18" d="M116.2,39.5c4.6,1.7,9,3.4,13.4,5c12.7,4.8,25.4,9.5,38.1,14.3c16.8,6.3,33.6,12.6,50.3,18.9
	c13.2,4.9,26.4,9.9,39.5,14.8c18.3,6.8,36.5,13.7,54.8,20.5c13.8,5.2,27.7,10.3,41.5,15.5c4.1,1.6,8.2,3.4,12.3,5.2
	c-6,2.1-12,4-18.2,5.7c-1-0.8-1.8-1.5-2.7-1.9c-2.6-1-5.3-1.9-7.9-2.9c-17.5-6.6-35-13.2-52.5-19.8c-18.1-6.8-36.2-13.4-54.3-20.2
	c-25.1-9.4-50.1-18.8-75.1-28.2c-18.7-7-37.5-14-56.2-21.1c-0.8-0.3-1.4-1-2.1-1.6C103.3,42.3,109.6,40.9,116.2,39.5z"/>
<path class="st19" d="M466,103.8c-4.6-1.8-8.9-3.7-13.3-5.3c-20-7.5-39.9-15-59.9-22.5c-18.1-6.8-36.2-13.4-54.3-20.2
	c-18.9-7.1-37.8-14.2-56.7-21.3c-13.7-5.2-27.5-10.3-41.3-15.4c-2.6-1-5.3-1.9-7.8-3c-0.5-0.2-0.7-1-1-1.7c6.3-1.6,12.5-3,18.7-4.4
	c0.8-0.2,1.7-0.3,2.8-0.3c1.5,1,2.6,1.9,3.9,2.4c5.4,2.1,10.8,4,16.2,6c17.5,6.6,35,13.2,52.5,19.8c16.7,6.2,33.4,12.4,50.1,18.6
	c19.5,7.3,38.9,14.6,58.4,21.9c15.3,5.7,30.6,11.4,45.9,17.1c1.6,0.6,2.9,1.7,4.4,2.5C478.5,100,472.4,101.9,466,103.8z"/>
<path class="st20" d="M484.9,98.1c-1.7-0.8-3-1.9-4.6-2.5c-15.3-5.8-30.6-11.4-45.9-17.1c-19.5-7.3-38.9-14.6-58.4-21.9
	c-16.7-6.2-33.4-12.4-50.1-18.6c-17.5-6.6-35-13.2-52.5-19.8c-5.4-2-10.8-3.9-16.2-6c-1.3-0.5-2.5-1.5-3.7-2.4
	c6.3-1.6,12.6-3.1,18.9-4.5c0.9-0.2,1.9-0.3,3-0.3c1.2,0.8,2.1,1.5,3.1,1.9c12.8,4.8,25.7,9.6,38.5,14.4
	c20.9,7.8,41.7,15.7,62.6,23.5c16.7,6.2,33.4,12.4,50.1,18.6c22.8,8.5,45.7,17.1,68.5,25.7c2.1,0.8,4,2.1,6,3.2
	C497.8,94.2,491.5,96.1,484.9,98.1z"/>
<path class="st6" d="M504.4,92.2c-2.2-1.1-4.1-2.4-6.2-3.2c-22.8-8.6-45.6-17.1-68.5-25.7C413,57.2,396.2,51,379.5,44.8
	C358.7,37,337.8,29.1,317,21.3c-12.8-4.8-25.7-9.6-38.5-14.4c-1-0.4-1.9-1.1-2.9-1.9c5.3-1.4,10.6-2.7,16-3.9c1-0.2,2-0.4,3.3-0.5
	c0.2,0,0.5,0,0.6,0c0.8,0.7,1.4,1.7,2.3,2c17.5,6.6,35,13.1,52.6,19.6c18.9,7.1,37.8,14.3,56.7,21.4c16.7,6.3,33.4,12.4,50.1,18.6
	c21,7.9,42.1,15.8,63.1,23.7c0.5,0.2,0.9,0.5,1.4,1C515.9,88.7,510.2,90.5,504.4,92.2z"/>
<path class="st21" d="M96.8,43.8c0.8,0.6,1.5,1.3,2.3,1.6c18.7,7.1,37.5,14,56.2,21.1c25,9.4,50.1,18.8,75.1,28.2
	c18.1,6.8,36.2,13.4,54.3,20.2c17.5,6.6,35,13.2,52.5,19.8c2.6,1,5.3,1.8,7.9,2.9c0.9,0.4,1.6,1.1,2.5,1.9
	c-4.7,1.6-9.5,3.1-14.5,4.5c-0.8-0.5-1.3-1.3-2-1.6c-20.8-7.8-41.6-15.5-62.4-23.3c-20.3-7.6-40.6-15.3-60.8-22.9
	c-16.7-6.3-33.4-12.4-50.1-18.7c-19.5-7.3-38.9-14.6-58.4-21.9c-4.9-1.8-9.9-3.6-14.7-5.5c-1.5-0.6-2.9-1.5-4.5-2.4
	c4.7-1.2,9.4-2.3,14.6-3.4c0.8-0.1,1.2-0.3,1.6-0.4C96.5,43.8,96.6,43.8,96.8,43.8z"/>
<path class="st22" d="M541,340.8c1.1-7.9,2.2-15.8,3.3-23.7c2.1-14.1,4.2-28.3,6.4-42.6c7.5-2,14.8-3.8,22.2-5.6
	c3.1-0.8,6.3-1.6,9.6-2.4c-0.2,4.5-0.7,9-1,13.5c-0.3,4.5-0.3,9-0.6,13.5c-0.8,12.6-1.6,25.3-2.7,38.1c-2.4,0.6-4.6,1-6.7,1.5
	C561.4,335.7,551.2,338.3,541,340.8z"/>
<path class="st23" d="M433.8,29c-0.6,1.2,0.3,1.4,1.2,1.8c5.6,2.2,11.2,4.5,16.8,6.6c18.5,7,37,13.9,55.5,20.8
	c15.2,5.7,30.5,11.4,45.7,17c1,0.4,2,0.7,3.1,1.2c-4.3,1.4-8.8,2.8-13.5,4c-0.6-0.4-0.9-0.8-1.3-0.9c-13.7-5.2-27.3-10.3-41-15.4
	c-12.4-4.6-24.7-9.2-37.1-13.8c-16.3-6.1-32.6-12.2-48.8-18.3c-10.8-4.1-21.6-8.1-32.4-12.3c-0.8-0.3-1.3-1.2-1.9-1.8
	c3.6,0.6,7.2,1.1,10.7,1.9c13.3,2.9,26.5,5.8,39.8,8.7C431.8,28.6,432.7,28.8,433.8,29z"/>
<path class="st24" d="M380.1,17.9c0.8,0.6,1.3,1.5,2.1,1.8c10.8,4.1,21.6,8.2,32.4,12.3c16.3,6.1,32.6,12.2,48.8,18.3
	c12.4,4.6,24.7,9.2,37.1,13.8c13.7,5.1,27.3,10.3,41,15.4c0.4,0.1,0.7,0.5,1.1,0.9c-2.8,1.1-5.6,2-8.6,2.9
	c-12.2-4.5-24.2-9-36.3-13.6c-11.2-4.2-22.4-8.4-33.6-12.6c-16.3-6.1-32.6-12.2-48.8-18.3c-12.3-4.6-24.6-9.1-36.9-13.7
	c-13.2-4.9-26.4-9.8-39.5-14.8c-0.5-0.2-2.9,0.1-1.4-2.1c2.1,0.5,4.1,1.1,6.2,1.6c4.8,1.1,9.5,2.3,14.3,3.2c5.1,1,10.2,1.9,15.3,2.9
	C375.5,16.4,377.7,17.2,380.1,17.9z"/>
<path class="st25" d="M298.2,531c0,19.7,0,39.4,0,59.3c-7.1-3.3-14.2-6.8-21.2-10.4c-51.2-26.2-102.4-52.4-153.5-78.6
	c-18.6-9.5-37.1-19.2-55.8-29c0.7-0.6,1.6-1.4,2.3-1.3c9.5,1.3,18.9,2.7,28.4,4.2c9.9,1.5,19.8,3.1,29.7,4.6
	c11.2,1.7,22.4,3.2,33.6,4.9c9.9,1.5,19.8,3.1,29.7,4.6c10.2,1.5,20.3,2.8,30.5,4.3c11.2,1.7,22.4,3.4,33.5,5.2c8,1.2,16,2.4,24,3.6
	c6.3,0.9,12.6,1.8,18.9,3C298.2,514.1,298.2,522.6,298.2,531z"/>
<path class="st26" d="M298.1,505.2c-6.3-0.9-12.6-1.8-18.9-2.7c-8-1.2-16-2.4-24-3.6c-11.2-1.7-22.3-3.5-33.5-5.2
	c-10.2-1.5-20.3-2.8-30.5-4.3c-9.9-1.5-19.8-3.1-29.7-4.6c-11.2-1.7-22.4-3.2-33.6-4.9c-9.9-1.5-19.8-3.1-29.7-4.6
	c-9.5-1.4-18.9-2.8-28.4-4.2c-0.8-0.1-1.7,0.6-2.5,1.2c-13.4-6.6-26.8-13.4-40.1-20.3c-0.7-0.3-1.5-1.2-1.5-1.8
	c-0.2-3.7,0-7.4-0.2-11.1c0-1.4-0.5-2.7-0.6-4.2c1.4-0.2,2.6-0.3,3.7-0.1c9.9,1.5,19.7,3.1,29.6,4.6c10.1,1.5,20.3,2.8,30.5,4.3
	c11.1,1.7,22.2,3.5,33.2,5.1c0.8,0.1,1.8-0.3,2.7-0.5c8.3,4,16.6,8.2,25.1,12c12.3,5.4,24.9,9.6,38.3,11.5
	c9.8,1.4,19.4,0.8,29.2-2.3c1.1,0.4,1.8,0.9,2.6,1c11.8,1.8,23.6,3.6,35.3,5.3c8,1.2,16,2.4,24,3.6c6.3,0.9,12.6,1.8,18.9,3
	c0,5.5,0,10.8,0,16.3C298.2,501,298.2,503.1,298.1,505.2z"/>
<path class="st27" d="M124.8,448.1c-0.8,0.3-1.7,0.8-2.6,0.7c-11.1-1.7-22.2-3.5-33.2-5.1c-10.1-1.5-20.3-2.8-30.5-4.3
	c-9.9-1.5-19.7-3.1-29.6-4.6c-1.1-0.2-2.3-0.1-3.6-0.1c-0.8-8.9-1.4-17.8-2-26.7c-0.3-5-0.7-10-1-15.2c6.1,0.5,12.1,1.2,18.1,2.1
	c7.8,1.1,15.6,2.3,23.5,3.5c2.2,0.3,4.4,0.5,6.7,0.5c5.7,8.8,12.2,17.2,19.9,24.5C100.8,433,112.4,441,124.8,448.1z"/>
<path class="st28" d="M298.2,505.4c0-2.4,0-4.5,0.2-6.8c0.4,1.5,0.7,3.1,0.8,4.8c0.1,3.2,0.8,3.8,3.8,3c14-3.6,27.9-7.2,41.9-10.7
	c21.3-5.4,42.6-10.9,64-16.3c32.1-8.1,64.2-16.2,96.2-24.4c20.4-5.2,40.8-10.4,61.2-15.6c1.7-0.4,3.4-0.9,4.9,0.5c0,3.7,0,7.4,0,11
	c-17.1,8.8-33.7,17.3-50.4,25.8c-1.5,0-2.9-0.3-4.2,0c-28.2,7.1-56.3,14.3-84.5,21.4c-18.3,4.6-36.5,9.2-54.8,13.9
	c-24.6,6.3-49.2,12.5-73.8,18.8c-1.5,0.4-3.2,0.2-5,0.3C298.2,522.6,298.2,514.1,298.2,505.4z"/>
<path class="st29" d="M571.3,439.8c-1.7-1.2-3.4-0.8-5.1-0.3c-20.4,5.2-40.8,10.5-61.2,15.6c-32.1,8.1-64.2,16.2-96.2,24.4
	c-21.3,5.4-42.6,10.8-64,16.3c-14,3.6-27.9,7.2-41.9,10.7c-3,0.8-3.7,0.2-3.8-3c-0.1-1.7-0.4-3.3-0.8-5.1
	c-0.2-5.3-0.2-10.6-0.2-16.1c0-0.2,0-0.2,0.2-0.2c0.6,1.7,1.2,3.5,1.3,5.2c0.1,2.1,0.3,2.9,2.8,2.3c18.4-4.8,36.8-9.4,55.2-14
	c5.2-1.3,10.5-2.3,15.8-3.5c0.3,1,0.6,1.9,1,3.1c6.3-3.1,12.5-6.2,18.9-9.2c1.1,0.3,2,0.6,2.8,0.4c14.5-3.7,29.1-7.5,43.6-11.2
	c32-8.1,64.1-16.2,96.1-24.4c10.1-2.6,20.3-5.1,30.4-7.8c2.3-0.6,4.3-0.6,6.2,1C572.2,429.3,571.8,434.5,571.3,439.8z"/>
<path class="st30" d="M424.5,449.8c1-5.5,1.9-11,3.2-16.7c4.6-1.2,9-2.3,13.2-3.3c13.8-3.5,27.6-7,41.5-10.5c1-0.3,2.1-0.4,3.1-0.8
	c1.3-0.5,2.6-1.3,4.2-1.8c1,0.1,1.8,0.3,2.5,0.1c4.4-1.1,8.8-2.2,13.2-3.3c22.9-5.8,45.8-11.6,68.8-17.4c-0.3,5.5-0.7,11-1.3,16.7
	c-1.1,0.3-1.9,0.4-2.6,0.5c-23.5,6-47,12-70.5,18c-21.5,5.5-43.1,11-64.7,16.4C431.7,448.6,428.1,449.1,424.5,449.8z"/>
<path class="st31" d="M541,341c10.3-2.8,20.5-5.3,30.7-7.8c2.1-0.5,4.2-0.9,6.6-1.3c-0.1,4.8-0.5,9.5-0.8,14.3
	c-0.3,4.4-0.4,8.8-0.6,13.2c-0.2,4-0.5,8-1.1,12.3c-1.3,0.4-2.4,0.4-3.4,0.6c-6.8,1.7-13.5,3.5-20.3,5.1c-5.7,1.4-11.4,2.6-17.1,4
	C536.9,368,538.9,354.6,541,341z"/>
<path class="st32" d="M424.3,449.9c3.8-0.7,7.4-1.3,10.9-2.1c21.6-5.4,43.1-10.9,64.7-16.4c23.5-6,47-12,70.5-18
	c0.8-0.2,1.5-0.2,2.5-0.3c0.1,3.5-0.1,7.1-0.3,10.8c-1.9-1.4-3.9-1.4-6.2-0.8c-10.1,2.7-20.3,5.3-30.4,7.8
	c-32,8.1-64.1,16.2-96.1,24.4c-14.5,3.7-29.1,7.5-43.6,11.2c-0.8,0.2-1.7-0.2-2.6-0.5c7.6-4.1,15.2-8,22.8-11.9
	C419,452.7,421.6,451.3,424.3,449.9z"/>
<path class="st33" d="M534.9,381.6c5.8-1.5,11.5-2.8,17.1-4.1c6.8-1.7,13.5-3.4,20.3-5.1c1-0.3,2.1-0.3,3.3-0.4
	c-0.3,6.8-0.9,13.6-1.4,20.4c-0.1,1.1,0.1,2.3,0.1,3.6c-23,6-45.9,11.8-68.8,17.6c-4.4,1.1-8.8,2.3-13.2,3.3c-0.7,0.2-1.5,0-2.3-0.2
	c9.1-4.9,18.3-9.5,27.4-14.2c4.9-2.5,9.8-5.1,14.6-7.7c0.5-0.3,1-1,1.1-1.5C533.7,389.4,534.2,385.6,534.9,381.6z"/>
<path class="st18" d="M96.2,43.8C96,44,95.6,44.1,95,44.2C95.2,44.1,95.6,43.9,96.2,43.8z"/>
<path class="st21" d="M79.4,47.5c-0.2,0.2-0.7,0.3-1.3,0.5C78.3,47.8,78.8,47.6,79.4,47.5z"/>
<path class="st23" d="M436.5,29.6c-0.3,0.1-0.7,0.2-1.2,0.1C435.5,29.5,435.9,29.5,436.5,29.6z"/>
<path class="st23" d="M438.8,30.4c-0.2,0.1-0.5,0-0.9-0.2C438.1,30.1,438.4,30.2,438.8,30.4z"/>
<path class="st23" d="M441.3,30.6c-0.1,0.1-0.4,0.2-0.8,0.1C440.6,30.6,440.9,30.6,441.3,30.6z"/>
<path class="st34" d="M298.2,482c-6.3-0.9-12.6-1.8-18.9-2.7c-8-1.2-16-2.4-24-3.6c-11.8-1.8-23.6-3.5-35.3-5.3
	c-0.8-0.1-1.4-0.6-2.4-1c9.1-4,16.6-10.1,22.3-18.8c5.4,0.8,10.4,1.7,15.5,2.4c7.9,1.2,15.8,2.4,23.7,3.6c6.4,0.9,12.7,1.8,19.1,3
	c0,2.4,0,4.5,0,6.8C298.2,471.8,298.2,476.9,298.2,482C298.2,482,298.2,482,298.2,482z"/>
<path class="st35" d="M298.2,459.4c-6.4-0.9-12.7-1.8-19.1-2.8c-7.9-1.2-15.8-2.3-23.7-3.6c-5.1-0.8-10.1-1.7-15.3-2.6
	c4-6.8,6.6-14.1,8.7-22c2.1,0.2,3.9,0.6,5.7,0.9c7.9,1.2,15.7,2.4,23.6,3.6c6.7,1,13.4,1.8,20.1,3
	C298.2,443.9,298.2,451.6,298.2,459.4z"/>
<path class="st36" d="M298.2,435.7c-6.7-0.9-13.4-1.8-20.1-2.8c-7.9-1.1-15.8-2.4-23.6-3.6c-1.8-0.3-3.6-0.7-5.6-1
	c0.3-7.9,0.8-15.9,1.4-24c7.4,0.7,14.7,1.6,22,2.6c7.8,1.1,15.6,2.3,23.4,3.5c0.7,0.1,1.4,0.3,2.2,0.7c0.2,8.2,0.2,16.1,0.2,24.1
	C298.2,435.5,298.2,435.6,298.2,435.7z"/>
<path class="st37" d="M298.2,435.1c0-7.9,0-15.8,0-24c0-6.2,0-12.2,0-18.4c5.3-1.4,10.6-2.4,15.8-3.7c13.9-3.4,27.7-7,41.6-10.5
	c0.8-0.2,1.5-0.2,2.6-0.3c1.8,9.1,3.3,18.1,4.8,27.2c1,6,2,12.1,2.7,18.4c-0.8,0.3-1.5,0.4-2,0.5c-12.5,3.2-25,6.3-37.5,9.5
	c-8.5,2.2-17,4.3-25.9,6.6c-0.2-1.3-0.2-2.4-0.6-3.4C299.4,436.3,298.7,435.7,298.2,435.1z"/>
<path class="st38" d="M298.2,435.3c0.5,0.5,1.3,1,1.5,1.7c0.4,1,0.4,2.1,0.6,3.4c8.9-2.3,17.4-4.4,25.9-6.6
	c12.5-3.2,25-6.3,37.5-9.5c0.6-0.1,1.2-0.2,2-0.3c1.9,10,3.6,20.1,5,30.4c-0.6,0.2-1,0.2-1.3,0.3c-21.6,5.5-43.2,11-64.9,16.5
	c-1.3,0.3-2.6,0.6-4.2,0.9c0-1.6,0-2.8,0-3.9c0-1.5-0.7-2.1-2.1-2c0-2.1,0-4.2,0-6.6c0-8,0-15.7,0-23.7
	C298.2,435.6,298.2,435.5,298.2,435.3z"/>
<path class="st33" d="M482.5,419.1c-13.8,3.7-27.7,7.2-41.5,10.7c-4.3,1.1-8.6,2.1-13.1,3.2c1.5-10.3,3.2-20.5,4.9-30.8
	c1-6.1,2.1-12.2,3.5-18.6c7.8-2.1,15.3-4.1,22.9-6c4.5-1.1,9-2.1,13.5-3.1c1.9,8.6,3.9,17.1,5.8,25.7
	C479.7,406.4,481.1,412.7,482.5,419.1z"/>
<path class="st39" d="M472.6,374.3c-4.5,1.3-9,2.2-13.5,3.4c-7.5,1.9-15,3.8-22.8,5.8c1.1-8.1,2.4-16.2,3.8-24.3
	c4.1-23.6,8.2-47.3,12.4-70.9c0.2-0.9,0.4-1.9,0.9-2.8c1.7,7.9,3.4,15.8,5.1,23.8C463.2,330.8,467.9,352.5,472.6,374.3z"/>
<path class="st30" d="M298.2,466.5c1.4-0.3,2.1,0.3,2.1,1.8c0,1.1,0,2.2,0,3.9c1.6-0.3,2.9-0.6,4.2-0.9c21.6-5.5,43.2-11,64.9-16.5
	c0.3-0.1,0.7-0.1,1.3-0.1c1.1,5.6,2.1,11.3,2.9,17.2c-5.3,1.4-10.6,2.4-15.9,3.7c-18.4,4.6-36.8,9.3-55.2,14
	c-2.5,0.7-2.8-0.1-2.8-2.3c0-1.7-0.7-3.4-1.3-5.2C298.2,476.9,298.2,471.8,298.2,466.5z"/>
</svg>
